<svg xmlns="http://www.w3.org/2000/svg" xmlns:xlink="http://www.w3.org/1999/xlink" width="144.438" height="144.482" viewBox="0 0 144.438 144.482">
  <defs>
    <linearGradient id="linear-gradient" x1="0.146" y1="0.147" x2="0.853" y2="0.854" gradientUnits="objectBoundingBox">
      <stop offset="0.279" stop-color="#ffc72c"/>
      <stop offset="0.531" stop-color="#f5b922"/>
      <stop offset="0.997" stop-color="#dc970b"/>
      <stop offset="1" stop-color="#dc970b"/>
    </linearGradient>
    <linearGradient id="linear-gradient-2" x1="0" y1="0.5" x2="1" y2="0.5" xlink:href="#linear-gradient"/>
  </defs>
  <g id="Grupo_2043" data-name="Grupo 2043" transform="translate(-8525.178 -3854.792)">
    <g id="Grupo_2041" data-name="Grupo 2041">
      <path id="Trazado_7908" data-name="Trazado 7908" d="M8597.34,3854.792a72.241,72.241,0,1,1-72.161,72.774A72.353,72.353,0,0,1,8597.34,3854.792Z" fill="url(#linear-gradient)"/>
    </g>
    <g id="Grupo_2042" data-name="Grupo 2042">
      <path id="Trazado_7909" data-name="Trazado 7909" d="M8597.569,3871.525c31.363.42,55.605,25.656,55.083,57.341-.5,30.05-25.819,54.01-56.615,53.568-30.035-.431-54.727-25.512-54.235-55.094C8542.325,3895.782,8566.971,3871.115,8597.569,3871.525Zm-48.78,55.25c-.172,26.434,21.533,48.541,47.867,48.754,27.136.22,48.821-21.33,49-48.692.17-26.013-21.247-47.932-47.034-48.134C8570.826,3878.485,8548.966,3899.571,8548.789,3926.775Z" fill="#fff"/>
      <path id="Trazado_7910" data-name="Trazado 7910" d="M8555.942,3926.8c.15-23.187,18.782-41.159,42.475-40.973,21.979.172,40.233,18.854,40.089,41.026a41.318,41.318,0,0,1-41.765,41.5C8574.295,3968.179,8555.795,3949.335,8555.942,3926.8Z" fill="#fff"/>
      <path id="Trazado_7911" data-name="Trazado 7911" d="M8590.245,3936.527c8.179-8.19,16.013-16.038,23.853-23.88.658-.658,1.28-1.7,2.043-1.828,1.3-.22,3.076-.312,3.938.4.718.6.623,2.453.474,3.7-.082.683-.99,1.295-1.58,1.885q-12.545,12.565-25.11,25.113c-3.018,3.013-4.086,3-7.133-.038q-5.84-5.826-11.665-11.666c-1.975-1.987-2.285-3.979-.74-5.321,2.046-1.775,3.727-.771,5.315.863C8583.075,3929.295,8586.554,3932.786,8590.245,3936.527Z" fill="url(#linear-gradient-2)"/>
    </g>
  </g>
</svg>
