<svg xmlns="http://www.w3.org/2000/svg" xmlns:xlink="http://www.w3.org/1999/xlink" width="144.438" height="144.482" viewBox="0 0 144.438 144.482">
  <defs>
    <linearGradient id="linear-gradient" x1="0.146" y1="0.147" x2="0.853" y2="0.854" gradientUnits="objectBoundingBox">
      <stop offset="0.279" stop-color="#ffc72c"/>
      <stop offset="0.531" stop-color="#f5b922"/>
      <stop offset="0.997" stop-color="#dc970b"/>
      <stop offset="1" stop-color="#dc970b"/>
    </linearGradient>
  </defs>
  <g id="Grupo_2030" data-name="Grupo 2030" transform="translate(-9334.753 -4086.177)">
    <g id="Grupo_2028" data-name="Grupo 2028">
      <path id="Trazado_7873" data-name="Trazado 7873" d="M9406.914,4086.177a72.241,72.241,0,1,1-72.16,72.774A72.353,72.353,0,0,1,9406.914,4086.177Z" fill="url(#linear-gradient)"/>
    </g>
    <g id="Grupo_2029" data-name="Grupo 2029">
      <path id="Trazado_7874" data-name="Trazado 7874" d="M9406.533,4185.847a23.921,23.921,0,1,1-23.867-23.991A23.945,23.945,0,0,1,9406.533,4185.847Zm-33.691-3.76c-3.011.659-3.353,1.1-3.353,4.174q0,4.781,0,9.562c0,2.614.884,3.506,3.483,3.507q9.669,0,19.336,0a7.933,7.933,0,0,0,1.242-.076,2.394,2.394,0,0,0,2.136-2.319q.051-6.132-.017-12.263a2.4,2.4,0,0,0-2.106-2.351c-.369-.071-.745-.112-1.234-.183,0-1.509.063-3-.011-4.478a9.754,9.754,0,0,0-19.474,1.044C9372.825,4179.838,9372.842,4180.975,9372.842,4182.087Z" fill="#fff"/>
      <path id="Trazado_7875" data-name="Trazado 7875" d="M9389.164,4151.772c.538-4.63.937-9.142,1.628-13.608.447-2.892,1.321-5.718,2-8.574.121-.506.3-.832.955-.829,6.336.029,12.672.02,19.008.024a3.279,3.279,0,0,1,.406.063v22.924Z" fill="#fff"/>
      <path id="Trazado_7876" data-name="Trazado 7876" d="M9416.671,4155.228h23.748c-.1,1.92-.144,3.781-.3,5.632a79.875,79.875,0,0,1-3.084,16.6c-.156.513-.334.8-.972.793-6.306-.03-12.611-.019-18.917-.022-.135,0-.269-.029-.476-.052Z" fill="#fff"/>
      <path id="Trazado_7877" data-name="Trazado 7877" d="M9416.674,4128.808h20.107a80.644,80.644,0,0,1,3.61,22.949h-23.718Z" fill="#fff"/>
      <path id="Trazado_7878" data-name="Trazado 7878" d="M9443.916,4155.224h19.113c-.225,2.081-.353,4.109-.677,6.1a47.673,47.673,0,0,1-5.683,16.059,1.436,1.436,0,0,1-1.445.869c-4.644-.036-9.288-.018-13.932-.018h-.866c.787-3.851,1.712-7.609,2.291-11.42C9443.294,4163.027,9443.522,4159.183,9443.916,4155.224Z" fill="#fff"/>
      <path id="Trazado_7879" data-name="Trazado 7879" d="M9462.869,4151.775h-19.133a84.827,84.827,0,0,0-3.52-22.955c.365-.031.6-.067.832-.067,4.779,0,9.558-.017,14.335.026a1.531,1.531,0,0,1,1.112.634,47.224,47.224,0,0,1,6.444,22.075A1.392,1.392,0,0,1,9462.869,4151.775Z" fill="#fff"/>
      <path id="Trazado_7880" data-name="Trazado 7880" d="M9389.583,4128.836a86.669,86.669,0,0,0-3.509,22.933H9366.7c.372-2.705.618-5.35,1.118-7.946a46.129,46.129,0,0,1,5.358-14.2,1.451,1.451,0,0,1,1.453-.862c4.642.037,9.282.018,13.923.021C9388.856,4128.779,9389.156,4128.811,9389.583,4128.836Z" fill="#fff"/>
      <path id="Trazado_7881" data-name="Trazado 7881" d="M9413.193,4178.237c-1.363,0-2.646.044-3.92-.037-.264-.016-.619-.458-.726-.774a26.774,26.774,0,0,0-12.035-14.969,48.676,48.676,0,0,0-6.147-2.724c-.5-.209-.8-.373-.8-.986,0-1.138-.1-2.276-.168-3.5h23.8Z" fill="#fff"/>
      <path id="Trazado_7882" data-name="Trazado 7882" d="M9413.172,4125.387h-18.777c-.013-.107-.06-.211-.03-.286,2.307-5.942,5.357-11.4,10.274-15.621,2.586-2.221,5.955-3.759,8.533-3.868Z" fill="#fff"/>
      <path id="Trazado_7883" data-name="Trazado 7883" d="M9416.646,4181.626H9435.6c-.506,1.19-.957,2.339-1.477,3.455-2.242,4.815-5.037,9.234-9.193,12.661a15.845,15.845,0,0,1-8.283,3.71Z" fill="#fff"/>
      <path id="Trazado_7884" data-name="Trazado 7884" d="M9416.644,4125.349v-19.824c.736.147,1.438.237,2.111.43a18.557,18.557,0,0,1,8.167,5.136,41.493,41.493,0,0,1,8.666,14.258Z" fill="#fff"/>
      <path id="Trazado_7885" data-name="Trazado 7885" d="M9427.7,4199.789c5.2-4.921,8.556-10.953,11.1-17.51a1.2,1.2,0,0,1,.828-.682c4.676-.043,9.354-.03,14.31-.03A47.6,47.6,0,0,1,9427.7,4199.789Z" fill="#fff"/>
      <path id="Trazado_7886" data-name="Trazado 7886" d="M9453.962,4125.424h-3.756c-3.392,0-6.785-.024-10.177.018a1.194,1.194,0,0,1-1.335-.931,45.272,45.272,0,0,0-9.43-15.607c-.288-.3-.588-.586-.886-.876a5.433,5.433,0,0,1-.768-.848A48.166,48.166,0,0,1,9453.962,4125.424Z" fill="#fff"/>
      <path id="Trazado_7887" data-name="Trazado 7887" d="M9402.257,4107.079c-1.426,1.6-2.854,3.055-4.119,4.641a47.125,47.125,0,0,0-7.011,12.787,1.184,1.184,0,0,1-1.32.936c-4.262-.04-8.524-.018-12.788-.021-.3,0-.6-.028-1.1-.053A48.659,48.659,0,0,1,9402.257,4107.079Z" fill="#fff"/>
      <path id="Trazado_7888" data-name="Trazado 7888" d="M9413.2,4201.667l-7.8-.884a27.506,27.506,0,0,0,4.143-19.217c.941,0,1.764,0,2.588,0,.337,0,.674.028,1.066.045Z" fill="#fff"/>
      <path id="Trazado_7889" data-name="Trazado 7889" d="M9367.7,4163.011l-.925-7.791h19.271l.183,3.557a27.039,27.039,0,0,0-18.529,4.234Z" fill="#fff"/>
      <path id="Trazado_7890" data-name="Trazado 7890" d="M9389.025,4182.167h-12.669a32.453,32.453,0,0,1,.047-5.119,6.312,6.312,0,0,1,6.676-5.041,6.392,6.392,0,0,1,5.932,5.915C9389.1,4179.3,9389.025,4180.681,9389.025,4182.167Z" fill="#fff"/>
      <path id="Trazado_7891" data-name="Trazado 7891" d="M9385.42,4189.983a4.781,4.781,0,0,1-.8,1.6,2.233,2.233,0,0,0-.761,2.1c.026.307.105.709-.046.912-.314.42-.765,1.012-1.163,1.016s-.837-.594-1.2-.979c-.11-.115-.066-.4-.056-.6a2.848,2.848,0,0,0-.856-2.579,2.389,2.389,0,0,1-.041-3.058,2.684,2.684,0,0,1,2.95-.975A3.009,3.009,0,0,1,9385.42,4189.983Z" fill="#fff"/>
    </g>
  </g>
</svg>
