<svg xmlns="http://www.w3.org/2000/svg" width="44.323" height="44.408" viewBox="0 0 44.323 44.408">
  <g id="Grupo_2429" data-name="Grupo 2429" transform="translate(-1437.194 -7016.39)">
    <path id="Trazado_12273" data-name="Trazado 12273" d="M1476.15,7060.8h-33.587a1.144,1.144,0,0,0-.2-.072,6.051,6.051,0,0,1-5.167-6.11q0-9.426,0-18.853a6.057,6.057,0,0,1,6.191-6.189q2.6-.005,5.191,0h.473c-.016-.11-.02-.167-.032-.223a10.6,10.6,0,0,1,8.161-12.729c.405-.089.816-.155,1.224-.231h1.9c.464.088.931.164,1.392.265a10.568,10.568,0,0,1,8.216,9.717c.048,1.054-.091,2.116-.145,3.2h.393c1.772,0,3.545-.008,5.317,0a6.042,6.042,0,0,1,5.8,4.414c.091.317.158.64.236.961v20.469a2.2,2.2,0,0,0-.077.245,5.99,5.99,0,0,1-4.375,4.909C1476.766,7060.667,1476.456,7060.724,1476.15,7060.8Zm-29.944-29.49v0c-1.038,0-2.077-.022-3.115,0a4.22,4.22,0,0,0-4.069,3.583c-.14,1.067-.056,2.162-.1,3.243a.682.682,0,0,0,.4.708q8.507,4.9,17,9.824a5.654,5.654,0,0,0,6.067,0c.9-.523,1.8-1.04,2.695-1.56q7.188-4.158,14.379-8.309a.563.563,0,0,0,.329-.577c-.019-.867,0-1.735-.01-2.6a4.32,4.32,0,0,0-4.332-4.319c-2.019-.016-4.039,0-6.058-.009a.465.465,0,0,0-.493.3,10.465,10.465,0,0,1-6.587,5.6.517.517,0,0,0-.4.431c-.17.7-.354,1.4-.561,2.089a2.023,2.023,0,0,1-1.457,1.466,2.068,2.068,0,0,1-2.564-1.591c-.192-.665-.345-1.342-.553-2a.664.664,0,0,0-.376-.38,10.541,10.541,0,0,1-6.565-5.577.521.521,0,0,0-.555-.346C1448.255,7031.32,1447.23,7031.308,1446.206,7031.308Zm-7.261,9.317c-.009.167-.017.252-.017.336q0,6.873.006,13.745a4.432,4.432,0,0,0,.134,1.07,4.292,4.292,0,0,0,4.248,3.284q16.056.009,32.111,0c.087,0,.173,0,.26-.007a4.371,4.371,0,0,0,4.009-3.433.5.5,0,0,0-.277-.62q-5.982-3.438-11.945-6.906a.535.535,0,0,0-.625,0c-1.241.733-2.484,1.464-3.743,2.166a7.256,7.256,0,0,1-7.5,0c-1.247-.7-2.478-1.417-3.7-2.148a.6.6,0,0,0-.7.006q-2.7,1.585-5.43,3.137a1.441,1.441,0,0,1-.725.209.768.768,0,0,1-.736-.681.84.84,0,0,1,.462-.94l4.6-2.666c.129-.075.255-.156.435-.267Zm29.28-13.773c-.014-.215-.015-.593-.068-.964a8.875,8.875,0,1,0-10.768,9.785,1.135,1.135,0,0,1,.936.938c.182.787.388,1.569.625,2.341a2.25,2.25,0,0,0,.418.58,2.508,2.508,0,0,0,.4-.6c.228-.744.442-1.5.6-2.257a1.22,1.22,0,0,1,1.053-1.031A8.915,8.915,0,0,0,1468.225,7026.852Zm11.537,26.356v-12.575l-10.868,6.288Z" fill="#fff"/>
    <path id="Trazado_12274" data-name="Trazado 12274" d="M1441.767,7053.431a.856.856,0,0,1-.847-.851.863.863,0,1,1,1.725-.013A.857.857,0,0,1,1441.767,7053.431Z" fill="#fff"/>
    <path id="Trazado_12275" data-name="Trazado 12275" d="M1460.882,7029.41a2.858,2.858,0,0,1-3.807-.756,2.822,2.822,0,0,1,.028-3.319,2.765,2.765,0,0,1,3.12-.988.768.768,0,0,0,.714-.045.831.831,0,0,1,1.224.794c.026.808.007,1.618.011,2.428a3.614,3.614,0,0,0,.032.561,1.059,1.059,0,0,0,1.033.878,1.036,1.036,0,0,0,1.056-.848,5.064,5.064,0,0,0-3.986-5.986,4.983,4.983,0,1,0,.143,9.756,1.5,1.5,0,0,1,.718-.01.767.767,0,0,1,.551.836.834.834,0,0,1-.708.815,6.551,6.551,0,0,1-4.551-.454,6.716,6.716,0,1,1,9.574-6.563,12.8,12.8,0,0,1,.013,1.516,2.8,2.8,0,0,1-5.015,1.58Zm-1.518-1.314a1.081,1.081,0,1,0-1.079-1.064A1.079,1.079,0,0,0,1459.364,7028.1Z" fill="#fff"/>
  </g>
</svg>
