<svg xmlns="http://www.w3.org/2000/svg" width="207.44" height="88.486" viewBox="0 0 207.44 88.486">
  <g id="Grupo_2432" data-name="Grupo 2432" transform="translate(-101.014 -7473.706)">
    <g id="Grupo_2431" data-name="Grupo 2431">
      <g id="Grupo_2430" data-name="Grupo 2430">
        <path id="Trazado_12277" data-name="Trazado 12277" d="M270.847,7513.371a2.506,2.506,0,0,0-.773,1.359c-.744.387-.975,1.283-1.939,1.452-.112.017-.082.177-.1.29a2.686,2.686,0,0,0-1.356.485c-5.409.628-8.21-2.673-7.169-7.556h.29c.479-1.812,2.058-2.528,3.587-3.29h.774C268.716,7505.377,271.807,7508.571,270.847,7513.371Zm-9.783-1.062a18.211,18.211,0,0,0,1.26,2.616c.693.184,1.087.816,1.937.968.591.1,1.313-.076,2.131,0a8.2,8.2,0,0,0,2.423-1.743,5.737,5.737,0,0,1,.483-1.65v-1.742c-.627-2.083-1.8-3.628-4.262-3.874C262.49,7507.446,260.712,7508.685,261.064,7512.309Z" fill="#8d949a"/>
        <path id="Trazado_12278" data-name="Trazado 12278" d="M280.436,7514.15a26.666,26.666,0,0,0-.1-7.847h1.744c-.937,2.873.057,7.679-.581,10.849-.836-.035-.9-.848-1.647-.97v-.388a14.524,14.524,0,0,1-2.519-3.294c.017-.209-.342-.044-.485-.1.007-.621-.437-.791-.775-1.066.163-.454-.57-.721-.773-.968-.493-.6-.808-1.813-1.552-1.647.371,2.018-.294,5.916.389,7.943a4.159,4.159,0,0,1-1.839,0c.667-1.015.484-2.885.484-5.134,0-2.115.218-3.99-.484-5.136a6.312,6.312,0,0,1,1.839-.094c.11.117.276.176.193.484.89.5,1.081,1.7,2.034,2.131v.483C277.973,7510.738,278.859,7512.785,280.436,7514.15Z" fill="#8d949a"/>
        <path id="Trazado_12279" data-name="Trazado 12279" d="M289.446,7506.3c.139,1.185.976,1.672.969,3,.016.113.178.083.292.1.585,2.126,1.682,3.741,2.226,5.908.4.375.568.983.97,1.358a10.549,10.549,0,0,1-2.229.1,7.954,7.954,0,0,0-1.453-4.066c-1.33.087-3.046-.206-4.068.19-.246,1.34-1.067,2.1-.967,3.779a3.4,3.4,0,0,1-1.745,0c.238-.572.738-.877.678-1.742a18.023,18.023,0,0,0,1.742-4.262h.292c.025-1.4.967-1.878.969-3.3h.291V7506.3C288.181,7506.366,288.918,7506.2,289.446,7506.3Zm-2.033,3.1c.112,1.016-.625,1.187-.482,2.229h3c-.608-1.3-.924-2.887-1.743-3.973A2.592,2.592,0,0,1,287.413,7509.4Z" fill="#8d949a"/>
        <path id="Trazado_12280" data-name="Trazado 12280" d="M232.363,7491.555v1.557a6.29,6.29,0,0,0-4.088-.778c-.9.159-1.245.955-1.945,1.067-.018.375-.117.666-.488.685-1.145,3.564.726,7.007,4.089,6.814.639-.035,1.306-.531,2.141-.486a2.429,2.429,0,0,1,.78-.487,3.259,3.259,0,0,1-.683,1.753,10.548,10.548,0,0,1-4.87,0,7.749,7.749,0,0,1-3.015-2.336,10.593,10.593,0,0,1-.487-4.284c.525-.545.385-1.757,1.264-1.948v-.486a7.609,7.609,0,0,1,5.551-1.557,5.817,5.817,0,0,0,1.557.289C232.132,7491.522,232.246,7491.543,232.363,7491.555Z" fill="#8d949a"/>
        <path id="Trazado_12281" data-name="Trazado 12281" d="M233.63,7494.573h.292c.125-1.306,1.311-1.544,1.754-2.533.431.013.75-.089.777-.485.658-.081,1.111-.166,1.753-.292,3.358-.673,6.329,1.1,6.814,4.088-.083.312.32.132.292.391-.09.525.234,1.465-.292,1.557v.875c-.88,1.683-1.938,3.187-4.187,3.506-.1.1-.195.19-.291.292C235.462,7502.356,232.67,7499.3,233.63,7494.573Zm9.345.193c-.5-2.025-2.693-3.077-5.256-2.432a1.109,1.109,0,0,1-.973.486c-.471.7-1.2,1.136-1.268,2.24-.088.1-.357.028-.29.291-.05,3.716,1.488,5.849,5.451,5.549a1.449,1.449,0,0,1,1.071-.486c.279-.727,1.243-.77,1.265-1.754h.293a11.544,11.544,0,0,0,0-3.8C243.153,7494.848,242.994,7494.88,242.975,7494.766Z" fill="#8d949a"/>
        <path id="Trazado_12282" data-name="Trazado 12282" d="M270.82,7491.358a2.3,2.3,0,0,0,.2,1.268c-.169-.038-.186.075-.2.194-.25-.171-.791-.051-.777-.486-1.388-.353-3.164-.267-3.8.68.026.728-.106.94.294,1.46.1.133.479.579.486.586.092.064.414-.084.487,0,.035.037-.042.265,0,.291.424.242,1.089.26,1.557.488.388.183.546.677.976.486v.29c.743-.158.534.632,1.263.488v.391c.836.38.591,1.853.292,2.626a4.449,4.449,0,0,0-1.263,1.266,8.454,8.454,0,0,1-5.355.294,2.349,2.349,0,0,1-.486-1.753c1.1,1.2,5.458,1.688,5.742-.583a2.517,2.517,0,0,0-1.459-1.949c-.137-.049-.36.066-.486,0-.042-.02.038-.271,0-.292-.55-.283-1.171-.283-1.561-.488-.04-.018.041-.268,0-.29-.285-.158-.925-.2-1.263-.486.073.062-.72-.847-.683-.779-.19-.358.041-.835-.29-1.172.063-1.135.755-1.642,1.265-2.333h.678C267.287,7490.807,269.7,7490.98,270.82,7491.358Z" fill="#8d949a"/>
        <path id="Trazado_12283" data-name="Trazado 12283" d="M285.715,7491.555v.291c.514-.166.586.3.779.488.372.356,1.17.855,1.265.973a4.155,4.155,0,0,1,.78,2.435c-.052.214.186.137.193.29.106,4.192-3.948,7.059-8.177,5.648-1.221-.41-1.884-1.308-2.92-2.047a7.314,7.314,0,0,1-.778-4.282c.045-.221.379-.471.486-.778.049-.136-.066-.365,0-.487.024-.041.269.04.292,0,.136-.258-.042-.48.194-.685a7.345,7.345,0,0,1,7.886-1.846Zm-4.575.779c-.111.042-.365.424-.585.486-.1.026-.31-.056-.39,0a4.12,4.12,0,0,1-.485.779c-.05.042-.252-.048-.294,0-.417.518-.337.916-.485,1.558a4.015,4.015,0,0,0,0,2.53c.053.172-.068.421,0,.583a7.937,7.937,0,0,0,.779.976c.2.174.246.636.293.681.872.887,2.158,1.009,3.9.973a2.66,2.66,0,0,1,1.361-.486,5.786,5.786,0,0,0,1.753-4.382c-.038-.187-.38-.076-.292-.388v-.68c-.624-.9-.971-2.084-2.239-2.338v-.292A7.343,7.343,0,0,0,281.14,7492.334Z" fill="#8d949a"/>
        <path id="Trazado_12284" data-name="Trazado 12284" d="M240.627,7506.4c1.084,3.407,2.6,6.374,3.776,9.687.156.137.384.2.484.388-.236.548-1.684.262-2.227.195-.072-.3.336-.118.193-.485a25.893,25.893,0,0,0-1.449-3.484h-3.878c-.188.037-.075.374-.386.288.1.906-.552,1.062-.483,1.939h-.292c.138.832-.407,1.173,0,1.742a4.375,4.375,0,0,1-1.939,0c1.18-1.306,1.34-3.632,2.424-5.037-.023-1.183.81-1.514.773-2.712h.291a5.932,5.932,0,0,1,.678-1.938C237.83,7505.978,240,7506.3,240.627,7506.4Zm-2.713,5.233h3c-.258-1.422-1.057-2.3-1.26-3.778h-.482C238.981,7509.337,238.154,7510.192,237.914,7511.63Z" fill="#8d949a"/>
        <path id="Trazado_12285" data-name="Trazado 12285" d="M295.452,7506.3h2.033c-.434,2.695-.074,6.189-.192,9.2,1.641.333,3.977.327,4.941-.58a15.407,15.407,0,0,0-.678,1.742c-1.843.226-4.1.035-6.1.1A58.2,58.2,0,0,0,295.452,7506.3Z" fill="#8d949a"/>
        <path id="Trazado_12286" data-name="Trazado 12286" d="M258.454,7491.358c.1.394-.152.435-.288.588.622,3.136.7,6.823,1.555,9.734h-2.142a2.147,2.147,0,0,1,.293-.975c-.489-2.3-.593-4.988-.974-7.4-.935.1-.571,1.507-1.264,1.85-.506,2.481-1.689,4.282-2.437,6.523-1.2-.385-1.517-1.66-1.848-2.922a50.563,50.563,0,0,1-2.531-5.646c-.333-.075-.124.4-.486.289.158,1.486-.335,2.491-.488,3.8-.075.636.13,1.336,0,1.755-.038.117-.274.177-.291.29a4.329,4.329,0,0,0,.194,2.239c-.321.347-1.473.2-1.948.1.211-.083.215-.367.487-.391.223-3.311,1.33-6.681,1.07-9.834H249.6c.92,2.523,2.248,4.635,3.019,7.3.277-.015.19.331.583.194a70.039,70.039,0,0,0,2.729-7.3A4.614,4.614,0,0,1,258.454,7491.358Z" fill="#8d949a"/>
        <path id="Trazado_12287" data-name="Trazado 12287" d="M263.033,7491.358c.12,1.581-.422,6.563-.1,9.247a5.037,5.037,0,0,0,.292,1.075H261.18a56.314,56.314,0,0,0,0-10.322C261.822,7491.425,262.673,7491.261,263.033,7491.358Z" fill="#8d949a"/>
        <path id="Trazado_12288" data-name="Trazado 12288" d="M275.591,7491.358a37.524,37.524,0,0,0,0,10.322h-2.239c.983-2.2.267-6.092.486-9.054a3.168,3.168,0,0,1-.292-1.268C274.316,7491.421,275.061,7491.254,275.591,7491.358Z" fill="#8d949a"/>
        <path id="Trazado_12289" data-name="Trazado 12289" d="M298.179,7499.148a26.212,26.212,0,0,0-.1-7.79h2.044c-.468.216-.424.939-.779,1.268v9.539c-1.294-.359-1.812-1.5-2.726-2.238a69.481,69.481,0,0,0-4.965-6.328c-.116,2.05-.324,6.344.2,8.081H290c.657-1.033.487-2.8.487-5.065,0-2.173.145-4-.487-5.257.484-.119,1.053.067,1.754,0,1.844,2.193,3.771,4.88,5.742,7.107C297.693,7498.688,297.836,7499.078,298.179,7499.148Z" fill="#8d949a"/>
        <path id="Trazado_12290" data-name="Trazado 12290" d="M258.067,7523.868c-.247-.163-.779-.047-.765-.479-2.953-.7-5.494.2-5.943,2.591-.5,3.992,1.964,6.408,5.56,5.363h.766a1.743,1.743,0,0,1,.865-.479c.046.721-.531.815-.483,1.534-.339.237-1.064.084-1.244.48-3.744.292-5.793-1.109-7-3.356-1.363-5.368,2.6-8.713,7.955-7.381-.018.21.079.307.287.291Z" fill="#8d949a"/>
        <path id="Trazado_12291" data-name="Trazado 12291" d="M218.488,7522.141c1.466.169,3.048-.218,4.309,0a5.406,5.406,0,0,1,2.205,1.248,3.223,3.223,0,0,1-.286,2.494c-.632-.122-.555.47-.957.574a2.742,2.742,0,0,0,.669.383,2.319,2.319,0,0,1,1.532,1.726c.111.37.378.415.288,1.148a3.341,3.341,0,0,1-.288.864c-.069.118-.418.188-.479.286s.081.389,0,.479c-.042.052-.236-.045-.286,0-.224.226.046.106-.384.287-.188.083-.313.447-.383.482-.412.216-1.069.144-1.343.479h-4.6A39.4,39.4,0,0,0,218.488,7522.141Zm2.012,1.056v3.165a3.529,3.529,0,0,0,2.968-.958C223.791,7523.294,222.279,7522.946,220.5,7523.2Zm0,8.146a5.171,5.171,0,0,0,3.449-.285c1.4-2.26-.515-4.242-3.449-3.641Z" fill="#8d949a"/>
        <path id="Trazado_12292" data-name="Trazado 12292" d="M231.135,7522.141h2.016c.1.956.74,1.371.766,2.4.013.111.175.08.287.092.086,1.191.861,1.7.959,2.878,1.015,1.506,1.291,3.755,2.491,5.079h-2.491a1.117,1.117,0,0,0,.191-.863c-.386-.637-.316-1.726-.959-2.11a1.259,1.259,0,0,0-.191-.957h-4.123c-.487,1.089-1.26,2.365-.955,3.93h-2.109a17.93,17.93,0,0,0,2.4-5.462h.289c0-.569.017-1.133.477-1.246C230.179,7524.317,231.344,7523.915,231.135,7522.141Zm.1,3.742h-.289c.178.784-.418.8-.289,1.534,1.221-.22,2.284.441,2.973-.1-.493-1.2-.988-2.4-1.439-3.642H231.9C231.852,7524.586,231.293,7524.985,231.234,7525.883Z" fill="#8d949a"/>
        <path id="Trazado_12293" data-name="Trazado 12293" d="M238.9,7522.141h1.631c2.283,2.548,4.154,5.5,6.519,7.96,0-2.4.535-6.16-.383-7.96h2.108c-1.284,2.3-.417,7.307-.67,10.93-1.55-.528-2.026-2.129-3.262-2.97v-.387c-.329-.272-.527-.683-.955-.859v-.384c-1.017-.9-1.6-2.236-2.684-3.067-.135-.379-.164-.86-.766-.77a60.2,60.2,0,0,0,0,7.382c.125.226.411.29.477.575H238.9c-.031-.546.3-.726.481-1.053C239.2,7528.427,239.822,7524.514,238.9,7522.141Z" fill="#8d949a"/>
        <path id="Trazado_12294" data-name="Trazado 12294" d="M263.245,7522.141h2.011c.228.6.215,1.45.768,1.727-.182.981.625.973.478,1.92a43.776,43.776,0,0,1,2.492,5.94,3.212,3.212,0,0,1,.767.863h-2.494c.45-.461-.011-1.035,0-1.631-.014-.108-.172-.079-.286-.1.016-1.006-.529-1.452-.766-2.2h-4.026a8.137,8.137,0,0,0-1.15,3.93h-1.917a1.237,1.237,0,0,1,.669-.767c.591-1.656,1.409-3.645,2.013-5.462.059-.175.231-.566.484-.479C262.307,7524.339,263.368,7523.836,263.245,7522.141Zm-.671,5.178c.806.544,1.691-.118,2.49.288.3.072.118-.332.48-.19.035-1.221-.793-1.572-.766-2.783-.545,0-.188-.9-.672-.957C263.6,7524.893,263.127,7526.148,262.574,7527.319Z" fill="#8d949a"/>
        <path id="Trazado_12295" data-name="Trazado 12295" d="M271.005,7522.141c1.388.125,2.806-.163,4.024,0a5.14,5.14,0,0,1,2.4,1.248c.87,2.031-.6,3.585-2.205,4.028-.108.52.247.581.481.766a6.7,6.7,0,0,0,2.012,2.4v.382a11.982,11.982,0,0,1,1.63,1.344c.664-1.055.384-2.846.384-4.41V7523.1c.013-.427-.395-.435-.29-.961h2.206c-.56,1.15-.384,3.138-.384,5.371,0,2.094-.225,3.974.384,5.079-1.84-.143-3.653.38-4.695-.479-.066-.054-.165-.361-.29-.482-.334-.322-.545-.165-.48-.766a15.242,15.242,0,0,1-2.681-3.545c1.464-.3,3.427-1.575,2.49-3.353-.17-.326-.558-.316-.767-.769a8.071,8.071,0,0,0-2.491,0c.225,3.07-.5,7.082.478,9.394h-2.2A38.9,38.9,0,0,0,271.005,7522.141Z" fill="#8d949a"/>
        <path id="Trazado_12296" data-name="Trazado 12296" d="M286.915,7522.141h2.012c1.465,3.521,2.6,7.375,4.507,10.45H290.94c.533-1.469-.668-2.751-1.053-3.93h-4.123c-.17,1.351-1.411,2.478-.86,3.93h-2.013a23.759,23.759,0,0,0,2.492-5.942h.288c.009-1.4.987-1.824.958-3.26h.286Zm-.48,5.276c.312-.12.075.311.381.19.762-.378,1.528,0,2.209,0,.148-.041.081-.3.383-.19v-.385a8.966,8.966,0,0,1-1.247-3.164c-.361.139-.185-.261-.477-.191C287.471,7525.128,286.625,7525.941,286.435,7527.417Z" fill="#8d949a"/>
        <path id="Trazado_12297" data-name="Trazado 12297" d="M298.093,7521.8a4.768,4.768,0,0,1,2.466.325v.429c1.173,1.184,1.763,2.954,2.788,4.288,1.387-.65,1.547-2.527,2.787-3.325a3.416,3.416,0,0,0-.214-1.717h2.465a45.913,45.913,0,0,1-4.182,6.22v4.608c.131.336.452.484.537.859h-2.786c.884-1.009.424-3.361.533-5.144C300.9,7526.281,299.885,7523.656,298.093,7521.8Z" fill="#8d949a"/>
        <path id="Trazado_12298" data-name="Trazado 12298" d="M274.655,7537.4a18.987,18.987,0,0,1,3.1-.1c.207-.044.186.139.194.293.867-.185.9.292,1.55.677a1.752,1.752,0,0,1,.679.582c.323.359.929.309.776.873,1.54,1.046,1.217,4.638.29,6.1-.671.327-.938,1.141-1.549,1.55-.488.321-1.154.279-1.553.775a11.836,11.836,0,0,1-3.971,0c-2.469-1.055-4.233-2.806-3.78-6.781A6.538,6.538,0,0,1,274.655,7537.4Zm-1.743,2.228a.63.63,0,0,1-.483.776,9.409,9.409,0,0,0-.29,3.391c.217,1.417,1.387,2.27,2.033,3.1a6.242,6.242,0,0,0,4.262,0c.5-.84,1.511-1.294,1.745-2.518.156-.811-.111-1.779,0-2.906a10.316,10.316,0,0,0-1.745-2.618c-.256,0-.607.088-.484-.291A5.464,5.464,0,0,0,272.912,7539.631Z" fill="#8d949a"/>
        <path id="Trazado_12299" data-name="Trazado 12299" d="M306.921,7545.154v.2c-.307.721-.707,1.355-1.065,2.032a6.094,6.094,0,0,0-1.55.775,2.209,2.209,0,0,0-1.744.484c-.713-.546-2.2-.322-3-.775a4.885,4.885,0,0,0-.2-1.648c1.159.919,3.516,1.614,5.135.678.075-.337.53-.514.581-.678.615-1.964-1.752-2.687-3-3.1-.025-.393-.345-.494-.774-.482-.395-.252-.608-.686-1.162-.776a2.436,2.436,0,0,0-.582-1.069c-.225-1.618.315-2.287,1.161-2.712.093-.044.056-.268.1-.29a8.121,8.121,0,0,1,5.041-.193v1.552c-.882-.914-3.747-1.192-4.554,0,.051.372-.069.731,0,1.066a1.659,1.659,0,0,0,1.26,1.163c.157.052.208.439.29.483.294.159.775.111,1.163.29.532.246.95.787,1.358.968.118.053.378-.074.483,0,.04.031,0,.251.2.388A3.011,3.011,0,0,1,306.921,7545.154Z" fill="#8d949a"/>
        <path id="Trazado_12300" data-name="Trazado 12300" d="M218.072,7537.6c1.426.11,3.4-.151,4.749,0,1.15.129,1.882.776,2.806.968.42.456.629,1.122,1.259,1.358-.078.631.252.849.489,1.161.643,3.741-1.165,5.8-3.587,6.784a3.617,3.617,0,0,0-1.648.291h-4.263a2.234,2.234,0,0,1,.388-.872C218.156,7544.1,218.495,7540.467,218.072,7537.6Zm7.555,6.588c.79-3.938-1.8-6.244-5.714-5.329v8.042C222.507,7547.393,225.2,7546.317,225.627,7544.184Z" fill="#8d949a"/>
        <path id="Trazado_12301" data-name="Trazado 12301" d="M228.924,7537.6h5.522v1.452a5.785,5.785,0,0,0-3.777-.193c.36.7.128,2,.191,3h2.618a3.618,3.618,0,0,1-.1,1.258,4.16,4.16,0,0,0-2.709,0,6.594,6.594,0,0,1,0,3.393c.062.1.219.1.191.292,1.588.371,3.733.451,4.845-.388a7.81,7.81,0,0,1-.483,1.743h-6.3c.642-1.153.485-3.158.485-5.522C229.409,7540.443,229.65,7538.616,228.924,7537.6Z" fill="#8d949a"/>
        <path id="Trazado_12302" data-name="Trazado 12302" d="M240.742,7537.6h1.94c.169,1.409.894,2.271,1.065,3.684.706.585.478,2.1,1.261,2.614-.088.9.428,1.187.484,1.939,1.006-.155.978-1.349,1.259-2.226.746-1.8,1.918-3.6,1.744-6.011h1.743c-1.173,3.734-2.93,6.888-3.972,10.758-.138-.011-.275-.021-.292.094a4.136,4.136,0,0,1-2.227-3.489c-.016-.11-.176-.078-.29-.1-.064-1.39-.906-2-.967-3.388C241.705,7540.382,241.5,7538.716,240.742,7537.6Z" fill="#8d949a"/>
        <path id="Trazado_12303" data-name="Trazado 12303" d="M254.792,7537.6h2.036c.563,1.568,1.269,2.993,1.744,4.652.014.113.178.081.29.1.039,1.253.852,1.733.97,2.9.683.868.726,2.375,1.745,2.909h-2.715c.508-1.51-.626-2.878-1.065-4.068h-3.974c-.47,1.158-1.562,2.568-1.066,4.068a9.861,9.861,0,0,1-2.229-.1c1.645-1.357,1.743-4.267,3-6.006a11.446,11.446,0,0,1,1.26-3.291Zm-.485,5.328c.948-.148,2.526.327,3-.288-.807-.937-.682-2.811-1.744-3.488C255.248,7540.5,254.587,7541.525,254.307,7542.924Z" fill="#8d949a"/>
        <path id="Trazado_12304" data-name="Trazado 12304" d="M262.835,7537.6h2.035c-.425,2.706-.083,6.183-.193,9.207a10.954,10.954,0,0,0,2.9.288,17.789,17.789,0,0,0,2.036-.676c-.293.543-.468,1.21-.777,1.743h-6.2c.007-.412.353-.485.386-.872C262.917,7544.1,263.262,7540.462,262.835,7537.6Z" fill="#8d949a"/>
        <path id="Trazado_12305" data-name="Trazado 12305" d="M283.28,7537.6c1.491.19,3.206-.254,4.554,0a3.077,3.077,0,0,1,2.226,1.938c.171.917-.33,1.491-.58,2.326-.818.213-1.15.917-1.937,1.164,1.327,1.739,2.5,3.638,4.359,4.843.511-1.272.292-2.973.292-4.651v-4.846c.048-.371-.337-.307-.2-.774h5.329v1.259a13.855,13.855,0,0,0-3.391-.193,20.458,20.458,0,0,0-.1,3.2h2.52a2.281,2.281,0,0,1,.191,1.258c-.6-.337-1.726-.142-2.615-.194a30.246,30.246,0,0,0-.1,3.879,10.394,10.394,0,0,0,4.069.094c.311-.141.391-.51.873-.482a5.637,5.637,0,0,0-.486,1.743c-2.691-.319-5.293.432-7.653,0-1.719-.319-1.948-2.086-3.2-2.807-.442-1.012-1.179-1.732-1.647-2.715,1.6-.305,3-.817,2.713-3.005a2.668,2.668,0,0,0-3.3-1.067c.15,3.147-.321,6.914.295,9.594H283.28a2.263,2.263,0,0,1,.388-.872C283.463,7544.129,284.107,7540.129,283.28,7537.6Z" fill="#8d949a"/>
        <path id="Trazado_12306" data-name="Trazado 12306" d="M254.962,7514.925a8.26,8.26,0,0,0-.775,1.742.714.714,0,0,0-.773.29c-4.447.472-6.779-1.167-7.75-4.166-.138-3.978,1.3-6.386,4.842-6.68,1-.4,2.7.032,3.681.286a2.8,2.8,0,0,1,0,1.455c-.715-.042-1.365-.574-2.129-.674a4.92,4.92,0,0,0-3.879,1.255.624.624,0,0,1-.483.774,8.059,8.059,0,0,0,0,4.069,19.892,19.892,0,0,0,1.744,2.132A6.9,6.9,0,0,0,254.962,7514.925Z" fill="#8d949a"/>
        <path id="Trazado_12307" data-name="Trazado 12307" d="M232.877,7517.152c-.527.106-.5-.339-1.067-.195-.354-.809-1.26-1.063-1.549-1.937-.3-.115-.25-.589-.68-.579-.129-.806-.742-1.133-1.257-1.553v-.483c-.3.071-.115-.336-.483-.194-.3-1.067-1.375-1.781-2.034-2.616-.265-.333-.249-.987-.875-.871-.034,2.39-.451,6.01.292,7.943a3.384,3.384,0,0,1-1.741,0c-.094-.418.271-.375.288-.677-.17-3.124.355-6.94-.288-9.593a5.652,5.652,0,0,1,1.839-.094c-.062.544.566.4.485.967a3.281,3.281,0,0,1,1.258,1.551c1.307,1.212,2.147,2.89,3.488,4.067.191.614.461,1.154,1.16,1.262.047-2.34.439-5.867-.288-7.753.372-.268,1.372.084,1.741-.192.307-.046-.164.623-.289.775Z" fill="#8d949a"/>
        <path id="Trazado_12308" data-name="Trazado 12308" d="M257.965,7506.3c0-.1.119-.076.194-.1-.186.2-.15.625-.389.775.111,3.182-.233,6.821.2,9.687a4.71,4.71,0,0,1-2.036,0,1.8,1.8,0,0,1,.291-.873c-.166-3.063.351-6.807-.291-9.4A11.718,11.718,0,0,1,257.965,7506.3Z" fill="#8d949a"/>
      </g>
    </g>
    <path id="Trazado_12309" data-name="Trazado 12309" d="M170.338,7480.294H123.987l3.416-5.588h39.3Z" fill="#fff" stroke="#fff" stroke-linecap="round" stroke-width="2"/>
    <path id="Trazado_12310" data-name="Trazado 12310" d="M181.328,7555.545H134.977l3.416,5.588h39.3Z" fill="#fff" stroke="#fff" stroke-linecap="round" stroke-width="2"/>
    <path id="Trazado_12311" data-name="Trazado 12311" d="M134.343,7561.133l-23.981-39.665-3.015,5.814,20.334,33.634Z" fill="#fff" stroke="#fff" stroke-linecap="round" stroke-width="2"/>
    <path id="Trazado_12312" data-name="Trazado 12312" d="M105.13,7523.841l23.476-39.965-6.549.115-19.907,33.889Z" fill="#fff" stroke="#fff" stroke-linecap="round" stroke-width="2"/>
    <path id="Trazado_12313" data-name="Trazado 12313" d="M194.676,7514.6l-23.853-39.742h6.549l20.5,34.138Z" fill="#fff" stroke="#fff" stroke-linecap="round" stroke-width="2"/>
    <path id="Trazado_12314" data-name="Trazado 12314" d="M176.688,7552.046l23.245-39.991,3.168,5.9-19.961,34.089Z" fill="#fff" stroke="#fff" stroke-linecap="round" stroke-width="2"/>
    <path id="Trazado_12315" data-name="Trazado 12315" d="M121.1,7518.838c.1,3.239,2.364,7.745,6.926,7.632a10.226,10.226,0,0,0,6.135-2.253c-.393,1.038-.974,2.837-1.686,4.785a13.638,13.638,0,0,1-6.334,1.131c-5.759,0-10.429-5.643-10.429-12.6s5.01-11.483,10.77-11.483a24.861,24.861,0,0,1,4.96.449c.02,2.017-.029,2.987-.019,4.139a8.417,8.417,0,0,0-5.357-1.4C122.093,7509.518,120.908,7514.309,121.1,7518.838Z" fill="#fff"/>
    <path id="Trazado_12316" data-name="Trazado 12316" d="M152.058,7529.915s-4.475,1.43-11.339-12.052c-1.538-3.268-2.5-2.279-2.5-2.279s.067,8.869.083,11.506c0,.933,1.207,2.2,1.207,2.2h-4.731a5.23,5.23,0,0,0,.586-2.031c0-.7.147-11.808,0-17.546a5.656,5.656,0,0,0-1.2-3.1h5.621l8.773,13.763s.946.4.826-.813c-.076-.769.291-11.3-1-12.922h4.794a2.822,2.822,0,0,0-1.029,2.323C152.151,7510.574,152.058,7529.915,152.058,7529.915Z" fill="#fff"/>
    <path id="Trazado_12317" data-name="Trazado 12317" d="M169.631,7522.147c-.176-4.346-4.4-5.68-4.4-5.68s3-1.657,3.255-4.412-2.426-5.45-4.525-5.45H153.7a1.657,1.657,0,0,1,.809,1.267v19.954c0,.7-.809,1.286-.809,1.286h10.728C166.543,7529.112,169.808,7526.493,169.631,7522.147Zm-9.811-9.974v-2.566a3.711,3.711,0,0,1,2.32.289c1.058.809.938,1.465.938,2.566a3.282,3.282,0,0,1-1.411,2.741,2.349,2.349,0,0,1-1.847.277Zm3.144,13.819a5.38,5.38,0,0,1-3.144.339v-7.9a4.92,4.92,0,0,1,2.7.171,4.378,4.378,0,0,1,2.061,3.676C164.579,7523.494,164.116,7525.282,162.964,7525.992Z" fill="#fff"/>
    <path id="Trazado_12318" data-name="Trazado 12318" d="M179.932,7529.959s-4.526-1.088-5.344-3.531l-6.644-19.823h5.994l4.3,16.091s.749,1.9,1.7-1.049c.664-2.061,2.758-9.045,3.1-12.788a2.29,2.29,0,0,0-1.2-2.254h4.945Z" fill="#fff"/>
    <path id="Trazado_12319" data-name="Trazado 12319" d="M225.547,7496.877a4.284,4.284,0,0,0,4.493,4.023,5.4,5.4,0,0,0,2.937-1.163,3.639,3.639,0,0,1-.744,1.862,7.119,7.119,0,0,1-3.1.406,5.763,5.763,0,0,1-5.451-5.723,5.452,5.452,0,0,1,5.614-5.213,16.677,16.677,0,0,1,3.043.479c.01.916-.014,1.356-.009,1.879-.5-.585-1.033-.95-3.233-1.172C227.2,7492.387,225.409,7493.929,225.547,7496.877Z" fill="#fff"/>
    <path id="Trazado_12320" data-name="Trazado 12320" d="M247.523,7511.758a4.284,4.284,0,0,0,4.494,4.022,5.4,5.4,0,0,0,2.937-1.162,3.628,3.628,0,0,1-.745,1.861,7.1,7.1,0,0,1-3.1.406,5.762,5.762,0,0,1-5.451-5.722,5.453,5.453,0,0,1,5.614-5.213,16.62,16.62,0,0,1,3.044.479c.01.915-.014,1.356-.01,1.879-.5-.585-1.033-.95-3.233-1.172C249.174,7507.268,247.385,7508.81,247.523,7511.758Z" fill="#fff"/>
    <path id="Trazado_12321" data-name="Trazado 12321" d="M251.268,7527.706a4.285,4.285,0,0,0,4.494,4.022,5.4,5.4,0,0,0,2.937-1.162,3.628,3.628,0,0,1-.745,1.861,7.093,7.093,0,0,1-3.1.406,5.764,5.764,0,0,1-5.451-5.722,5.453,5.453,0,0,1,5.614-5.213,16.706,16.706,0,0,1,3.044.479c.01.915-.014,1.356-.01,1.879-.5-.585-1.033-.95-3.233-1.172C252.919,7523.216,251.13,7524.758,251.268,7527.706Z" fill="#fff"/>
    <path id="Trazado_12322" data-name="Trazado 12322" d="M232.807,7517.013s-1.165.3-6.192-6.9c-.839-1.5-1.845-1.515-1.845-1.515.022,2.563.025,4.383.045,7.117,0,.43.658,1.011.658,1.011h-2.1a2.149,2.149,0,0,0,.32-.935c0-.323.08-5.437,0-8.079a2.425,2.425,0,0,0-.655-1.429h2.282l6.163,7.879s.517.186.451-.374c-.041-.354.159-6.747-.547-7.492h2.031a1.255,1.255,0,0,0-.562,1.07C232.857,7508.108,232.807,7517.013,232.807,7517.013Z" fill="#fff"/>
    <path id="Trazado_12323" data-name="Trazado 12323" d="M281.774,7517.013s-1.164.3-6.192-6.9c-.839-1.5-1.845-1.515-1.845-1.515.022,2.563.025,4.383.045,7.117,0,.43.659,1.011.659,1.011h-2.1a2.149,2.149,0,0,0,.32-.935c0-.323.08-5.437,0-8.079a2.425,2.425,0,0,0-.655-1.429h2.282l6.163,7.879s.517.186.451-.374c-.041-.354.159-6.747-.547-7.492h2.031a1.255,1.255,0,0,0-.562,1.07C281.825,7508.108,281.774,7517.013,281.774,7517.013Z" fill="#fff"/>
    <path id="Trazado_12324" data-name="Trazado 12324" d="M248.413,7533s-1.164.3-6.192-6.9c-.839-1.505-1.845-1.515-1.845-1.515.022,2.563.025,4.383.045,7.117,0,.43.659,1.011.659,1.011h-2.1a2.146,2.146,0,0,0,.32-.935c0-.323.08-5.437,0-8.078a2.42,2.42,0,0,0-.655-1.429h2.282l6.163,7.878s.517.186.451-.374c-.041-.354.159-6.747-.547-7.492h2.031a1.255,1.255,0,0,0-.562,1.07C248.464,7524.1,248.413,7533,248.413,7533Z" fill="#fff"/>
    <path id="Trazado_12325" data-name="Trazado 12325" d="M299.641,7502.107s-1.164.3-6.191-6.9c-.84-1.5-1.846-1.516-1.846-1.516.023,2.563.025,4.383.045,7.118,0,.43.659,1.011.659,1.011h-2.1a2.147,2.147,0,0,0,.32-.936c0-.323.08-5.436,0-8.078a2.425,2.425,0,0,0-.655-1.429h2.282l6.163,7.879s.516.186.451-.375c-.042-.353.159-6.746-.548-7.491h2.032a1.252,1.252,0,0,0-.562,1.07C299.692,7493.2,299.641,7502.107,299.641,7502.107Z" fill="#fff"/>
    <path id="Trazado_12326" data-name="Trazado 12326" d="M225.5,7529.352a3.024,3.024,0,0,0-2.047-2.642,3.065,3.065,0,0,0,1.513-2.051,2.484,2.484,0,0,0-2.1-2.535H218.3a.769.769,0,0,1,.376.589v9.28c0,.324-.376.6-.376.6h4.779A2.963,2.963,0,0,0,225.5,7529.352Zm-5.034-4.638v-1.527a7.943,7.943,0,0,1,1.752.02c1.287.4,1.292,1.129,1.292,1.641,0,.462-.049.829-1.352,1.361a6.014,6.014,0,0,1-1.692.143Zm2.934,6.567a4.631,4.631,0,0,1-2.934.016v-3.943a5.047,5.047,0,0,1,2.643.267,2.3,2.3,0,0,1,1.3,1.79A1.8,1.8,0,0,1,223.4,7531.281Z" fill="#fff"/>
    <path id="Trazado_12327" data-name="Trazado 12327" d="M246.214,7548.422s-1.593-.507-1.974-1.644-3.608-9.231-3.608-9.231h2.05l2.576,7.948s.844.918,1.286-.454c.309-.96,1.918-4.7,2.076-6.444a1.067,1.067,0,0,0-.558-1.05h2.3Z" fill="#fff"/>
    <path id="Trazado_12328" data-name="Trazado 12328" d="M239.31,7491.121c-3.331,0-6.031,2.427-6.031,5.422s2.7,5.422,6.031,5.422,6.031-2.427,6.031-5.422S242.641,7491.121,239.31,7491.121Zm-.022,9.771c-2.672,0-4.081-1.947-4.081-4.349s1.409-4.349,4.081-4.349,4.125,1.947,4.125,4.349S241.959,7500.892,239.288,7500.892Z" fill="#fff"/>
    <path id="Trazado_12329" data-name="Trazado 12329" d="M282.75,7491.121c-3.331,0-6.032,2.427-6.032,5.422s2.7,5.422,6.032,5.422,6.03-2.427,6.03-5.422S286.08,7491.121,282.75,7491.121Zm-.023,9.771c-2.672,0-4.081-1.947-4.081-4.349s1.409-4.349,4.081-4.349,4.126,1.947,4.126,4.349S285.4,7500.892,282.727,7500.892Z" fill="#fff"/>
    <path id="Trazado_12330" data-name="Trazado 12330" d="M265.161,7506.12c-3.331,0-6.031,2.427-6.031,5.422s2.7,5.422,6.031,5.422,6.031-2.428,6.031-5.422S268.492,7506.12,265.161,7506.12Zm-.022,9.771c-2.672,0-4.081-1.947-4.081-4.349s1.409-4.349,4.081-4.349,4.125,1.947,4.125,4.349S267.81,7515.891,265.139,7515.891Z" fill="#fff"/>
    <path id="Trazado_12331" data-name="Trazado 12331" d="M276.173,7537.385c-3.331,0-6.031,2.428-6.031,5.422s2.7,5.422,6.031,5.422,6.031-2.427,6.031-5.422S279.5,7537.385,276.173,7537.385Zm-.022,9.771c-2.672,0-4.081-1.947-4.081-4.349s1.409-4.349,4.081-4.349,4.125,1.947,4.125,4.349S278.822,7547.156,276.151,7547.156Z" fill="#fff"/>
    <path id="Trazado_12332" data-name="Trazado 12332" d="M222.439,7537.751h-4.562a.77.77,0,0,1,.376.589v9.28c0,.324-.376.6-.376.6h4.779c4.85,0,4.85-5.881,4.85-5.881A4.854,4.854,0,0,0,222.439,7537.751Zm1.76,8.438a5.638,5.638,0,0,1-4.317.736v-8.094a5.349,5.349,0,0,1,4.636.849,4.068,4.068,0,0,1,1.249,3.006C225.744,7543.253,225.754,7545.377,224.2,7546.189Z" fill="#fff"/>
    <path id="Trazado_12333" data-name="Trazado 12333" d="M235.705,7546.415a2.748,2.748,0,0,1-.719.377,8.447,8.447,0,0,1-4.058.133v-4a5.615,5.615,0,0,1,2.577.313c0-.022,0-1.381,0-1.381h-2.577v-3.028a6.048,6.048,0,0,1,3.53.146c0-.022,0-1.381,0-1.381h-5.534a1.3,1.3,0,0,1,.376.744v9.28c0,.324-.376.6-.376.6h6.159C235.409,7548.107,235.774,7546.952,235.705,7546.415Z" fill="#fff"/>
    <path id="Trazado_12334" data-name="Trazado 12334" d="M298.775,7546.415a2.748,2.748,0,0,1-.719.377,8.447,8.447,0,0,1-4.058.133v-4a5.615,5.615,0,0,1,2.577.313c0-.022,0-1.381,0-1.381H294v-3.028a6.048,6.048,0,0,1,3.53.146c0-.022,0-1.381,0-1.381h-5.535a1.3,1.3,0,0,1,.376.744v9.28c0,.324-.376.6-.376.6h6.159C298.479,7548.107,298.844,7546.952,298.775,7546.415Z" fill="#fff"/>
    <path id="Trazado_12335" data-name="Trazado 12335" d="M261.577,7548.244a5.141,5.141,0,0,1-1.371-1.977,91.09,91.09,0,0,1-3.378-8.671h-2.036a2.368,2.368,0,0,1-.058,1.3c-.844,2.5-3.038,7.94-3.336,8.36-.677.943-1.085.991-1.085.991l2.833-.089a1.065,1.065,0,0,1-.558-1.05c.008-.07.532-1.438,1.138-3.017H257.9c.462,1.158.878,2.216,1,2.574a2.159,2.159,0,0,1-.038,1.582Zm-6.686-5.324c-.622,0-.557-.4-.557-.4s1.066-2.82,1.193-3.213c.3-.437.816.914.816.914s.425,1.043.931,2.3c0,0,.065.4-.557.4Z" fill="#fff"/>
    <path id="Trazado_12336" data-name="Trazado 12336" d="M270.109,7532.679a5.141,5.141,0,0,1-1.371-1.977,91.171,91.171,0,0,1-3.379-8.671h-2.036a2.375,2.375,0,0,1-.057,1.3c-.845,2.5-3.038,7.94-3.336,8.36-.678.943-1.086.991-1.086.991l2.834-.089a1.066,1.066,0,0,1-.559-1.05c.009-.071.533-1.438,1.139-3.017h4.177c.462,1.158.877,2.216,1,2.574a2.16,2.16,0,0,1-.038,1.582Zm-6.687-5.324c-.622,0-.557-.4-.557-.4s1.067-2.819,1.194-3.212c.3-.437.815.914.815.914s.426,1.043.932,2.3c0,0,.064.4-.557.4Z" fill="#fff"/>
    <path id="Trazado_12337" data-name="Trazado 12337" d="M293.8,7532.679a5.141,5.141,0,0,1-1.371-1.977,91.171,91.171,0,0,1-3.379-8.671h-2.036a2.375,2.375,0,0,1-.057,1.3c-.845,2.5-3.038,7.94-3.336,8.36-.678.943-1.086.991-1.086.991l2.833-.089a1.068,1.068,0,0,1-.558-1.05c.009-.071.533-1.438,1.139-3.017h4.177c.462,1.158.877,2.216,1,2.574a2.16,2.16,0,0,1-.038,1.582Zm-6.687-5.324c-.622,0-.557-.4-.557-.4s1.067-2.819,1.194-3.212c.3-.437.815.914.815.914s.426,1.043.932,2.3c0,0,.064.4-.557.4Z" fill="#fff"/>
    <path id="Trazado_12338" data-name="Trazado 12338" d="M293.8,7516.866a5.154,5.154,0,0,1-1.371-1.977,91.171,91.171,0,0,1-3.379-8.671h-2.036a2.375,2.375,0,0,1-.057,1.3c-.845,2.5-3.038,7.94-3.336,8.36-.678.943-1.086.991-1.086.991l2.833-.089a1.068,1.068,0,0,1-.558-1.05c.009-.071.533-1.439,1.139-3.017h4.177c.462,1.157.877,2.215,1,2.574a2.16,2.16,0,0,1-.038,1.582Zm-6.687-5.324c-.622,0-.557-.4-.557-.4s1.067-2.819,1.194-3.212c.3-.437.815.914.815.914s.426,1.043.932,2.3c0,0,.064.4-.557.4Z" fill="#fff"/>
    <path id="Trazado_12339" data-name="Trazado 12339" d="M245.289,7516.866a5.154,5.154,0,0,1-1.371-1.977,91.369,91.369,0,0,1-3.378-8.671H238.5a2.37,2.37,0,0,1-.058,1.3c-.844,2.5-3.038,7.94-3.336,8.36-.678.943-1.086.991-1.086.991l2.834-.089a1.066,1.066,0,0,1-.558-1.05c.008-.071.532-1.439,1.138-3.017h4.177c.462,1.157.878,2.215,1,2.574a2.16,2.16,0,0,1-.038,1.582Zm-6.686-5.324c-.623,0-.558-.4-.558-.4s1.067-2.819,1.194-3.212c.295-.437.815.914.815.914s.426,1.043.932,2.3c0,0,.065.4-.557.4Z" fill="#fff"/>
    <path id="Trazado_12340" data-name="Trazado 12340" d="M238.281,7532.656a5.156,5.156,0,0,1-1.37-1.978,91.083,91.083,0,0,1-3.379-8.67H231.5a2.374,2.374,0,0,1-.057,1.3c-.845,2.5-3.039,7.94-3.336,8.359-.678.944-1.086.992-1.086.992l2.833-.09a1.064,1.064,0,0,1-.558-1.049c.009-.071.533-1.439,1.139-3.017h4.177c.462,1.157.877,2.215,1,2.574a2.159,2.159,0,0,1-.038,1.582Zm-6.686-5.324c-.622,0-.557-.4-.557-.4s1.067-2.82,1.194-3.213c.295-.436.815.914.815.914s.426,1.044.932,2.3c0,0,.064.4-.558.4Z" fill="#fff"/>
    <path id="Trazado_12341" data-name="Trazado 12341" d="M264.585,7546.714c.04-2.425.117-7.092.117-7.491a15.112,15.112,0,0,1,.168-1.627h-2.035s.181,1.47.218,3.267c.055,2.707-.025,6.155-.025,6.423a1.553,1.553,0,0,1-.386.872h6.2s.506-1.148.777-1.8A6.259,6.259,0,0,1,264.585,7546.714Z" fill="#fff"/>
    <path id="Trazado_12342" data-name="Trazado 12342" d="M297.3,7515.484c.04-2.424.117-7.091.117-7.49a15.082,15.082,0,0,1,.168-1.627h-2.035s.18,1.47.217,3.266c.056,2.708-.024,6.156-.024,6.423a1.553,1.553,0,0,1-.386.873h6.2s.505-1.148.777-1.8A6.259,6.259,0,0,1,297.3,7515.484Z" fill="#fff"/>
    <path id="Trazado_12343" data-name="Trazado 12343" d="M281.341,7528.061c.007-1.931.043-4.866.043-5.047a1.551,1.551,0,0,1,.386-.873h-2.509a1.551,1.551,0,0,1,.386.873c0,.181.037,3.116.043,5.047-.006,1.885-.043,3.532-.043,3.714a1.551,1.551,0,0,1-.386.872h2.509a1.551,1.551,0,0,1-.386-.872C281.384,7531.593,281.348,7529.946,281.341,7528.061Z" fill="#fff"/>
    <path id="Trazado_12344" data-name="Trazado 12344" d="M275.3,7497.156c.007-1.931.043-4.866.043-5.047a1.552,1.552,0,0,1,.387-.873h-2.51a1.552,1.552,0,0,1,.387.873c0,.181.036,3.116.043,5.047-.007,1.885-.043,3.532-.043,3.714a1.551,1.551,0,0,1-.387.872h2.51a1.551,1.551,0,0,1-.387-.872C275.339,7500.688,275.3,7499.041,275.3,7497.156Z" fill="#fff"/>
    <path id="Trazado_12345" data-name="Trazado 12345" d="M257.869,7512.314c.007-1.931.043-4.866.043-5.047a1.551,1.551,0,0,1,.386-.872h-2.509a1.551,1.551,0,0,1,.386.872c0,.181.037,3.116.043,5.047-.006,1.885-.043,3.532-.043,3.714a1.547,1.547,0,0,1-.386.872H258.3a1.547,1.547,0,0,1-.386-.872C257.912,7515.846,257.876,7514.2,257.869,7512.314Z" fill="#fff"/>
    <path id="Trazado_12346" data-name="Trazado 12346" d="M263.028,7497.156c.007-1.931.044-4.866.044-5.047a1.553,1.553,0,0,1,.386-.873h-2.509a1.553,1.553,0,0,1,.386.873c0,.181.036,3.116.043,5.047-.007,1.885-.043,3.532-.043,3.714a1.553,1.553,0,0,1-.386.872h2.509a1.553,1.553,0,0,1-.386-.872C263.072,7500.688,263.035,7499.041,263.028,7497.156Z" fill="#fff"/>
    <path id="Trazado_12347" data-name="Trazado 12347" d="M304.177,7528.9c0-.118,0-.242,0-.367,0-.517.136-.644.136-.644l4.14-6.09H305.92s1.02.494.281,1.712a37.841,37.841,0,0,1-2.849,3.595,38,38,0,0,1-2.85-3.595c-.738-1.218.281-1.712.281-1.712H298.25l4.139,6.09a1.211,1.211,0,0,1,.136.644c0,.126,0,.249,0,.367-.006,1.885-.043,3.532-.043,3.714a1.547,1.547,0,0,1-.386.872h2.509a1.547,1.547,0,0,1-.386-.872C304.22,7532.433,304.183,7530.786,304.177,7528.9Z" fill="#fff"/>
    <path id="Trazado_12348" data-name="Trazado 12348" d="M304.177,7528.9c0-.118,0-.242,0-.367,0-.517.136-.644.136-.644l4.14-6.09H305.92s1.02.494.281,1.712a37.841,37.841,0,0,1-2.849,3.595,38,38,0,0,1-2.85-3.595c-.738-1.218.281-1.712.281-1.712H298.25l4.139,6.09a1.211,1.211,0,0,1,.136.644c0,.126,0,.249,0,.367-.006,1.885-.043,3.532-.043,3.714a1.547,1.547,0,0,1-.386.872h2.509a1.547,1.547,0,0,1-.386-.872C304.22,7532.433,304.183,7530.786,304.177,7528.9Z" fill="#fff"/>
    <path id="Trazado_12349" data-name="Trazado 12349" d="M269.849,7496.213c-1.164-.661-3.663-.631-3.607-2.611a1.075,1.075,0,0,1,.612-1.114c2.023-.955,3.212.367,4.091.36-.166-.075-.135-.927-.135-1.4a7.486,7.486,0,0,0-2.633-.332c-1.5,0-3.7,1.335-3.7,2.839.007,1.952,1.771,2.468,3.382,3a4.165,4.165,0,0,1,1.64.913,2.178,2.178,0,0,1,.686,1.725c-.167,1.248-3.255,2.092-5.687.333a2.9,2.9,0,0,0,.483,1.75,12.041,12.041,0,0,0,3.2.285c2.437.074,3.7-1.5,3.7-3.009C272.046,7497.006,269.85,7496.214,269.849,7496.213Z" fill="#fff"/>
    <path id="Trazado_12350" data-name="Trazado 12350" d="M304.809,7542.476c-1.164-.662-3.663-.631-3.607-2.612a1.075,1.075,0,0,1,.613-1.114c2.022-.954,3.211.368,4.09.361-.165-.075-.135-.928-.135-1.4a7.493,7.493,0,0,0-2.633-.332c-1.5,0-3.7,1.335-3.7,2.839.006,1.952,1.77,2.468,3.382,3a4.17,4.17,0,0,1,1.64.913,2.181,2.181,0,0,1,.685,1.724c-.167,1.249-3.255,2.093-5.686.334a2.9,2.9,0,0,0,.482,1.75,12.067,12.067,0,0,0,3.2.285c2.437.074,3.7-1.5,3.7-3.009C307.006,7543.268,304.81,7542.477,304.809,7542.476Z" fill="#fff"/>
    <path id="Trazado_12351" data-name="Trazado 12351" d="M259.93,7501.7a1.56,1.56,0,0,1-.441-.97c-.037-.24-1.267-8.508-1.267-8.788,0-.4.516-.71.516-.71s-2.5-.141-2.685.319-1.17,4.638-3.151,6.683c-1.98-2.045-2.967-6.223-3.15-6.683s-2.686-.319-2.686-.319.517.315.517.71c0,.28-1.23,8.548-1.268,8.788a1.56,1.56,0,0,1-.441.97h2.412a1.75,1.75,0,0,1-.419-1c0-.526.806-6.405.806-6.405s.091-.682.111-.966c.079-.153.213-.055.439.178,2.62,6.683,3.679,8.062,3.679,8.062s1.059-1.379,3.68-8.062c.225-.233.359-.331.438-.178.02.284.111.966.111.966s.806,5.879.806,6.405a1.752,1.752,0,0,1-.418,1Z" fill="#fff"/>
    <path id="Trazado_12352" data-name="Trazado 12352" d="M287.628,7542.906c1.368-.524,2.631-1.4,2.631-2.4,0-3.59-3.26-2.907-4.982-2.907h-2a1.3,1.3,0,0,1,.376.744v9.28c0,.324-.376.6-.376.6h2.329a.76.76,0,0,1-.411-.585v-4.224h.013v-.893l-.013-.005v-3.946a2.144,2.144,0,0,1,1.217-.216,2.08,2.08,0,0,1,2.136,2.02c.065,1.472-1.566,2.264-2.745,2.267l.417.755c.736,1.2,4.061,6.349,6.071,4.491C292.323,7547.854,289.908,7547.081,287.628,7542.906Z" fill="#fff"/>
    <path id="Trazado_12353" data-name="Trazado 12353" d="M275.566,7527.348c1.369-.524,2.632-1.405,2.632-2.4,0-3.59-3.261-2.907-4.982-2.907h-2a1.3,1.3,0,0,1,.376.745v9.279c0,.324-.376.6-.376.6h2.329a.76.76,0,0,1-.411-.585v-4.224h.012v-.893l-.012,0v-3.946a2.141,2.141,0,0,1,1.216-.216,2.081,2.081,0,0,1,2.137,2.02c.065,1.472-1.566,2.264-2.745,2.267l.417.755c.736,1.2,4.061,6.349,6.07,4.491C280.262,7532.3,277.846,7531.523,275.566,7527.348Z" fill="#fff"/>
  </g>
</svg>
