<svg xmlns="http://www.w3.org/2000/svg" xmlns:xlink="http://www.w3.org/1999/xlink" width="207.558" height="79.484" viewBox="0 0 207.558 79.484">
  <defs>
    <linearGradient id="linear-gradient" y1="0.5" x2="1" y2="0.5" gradientUnits="objectBoundingBox">
      <stop offset="0" stop-color="#524092"/>
      <stop offset="0.322" stop-color="#392f61"/>
      <stop offset="0.431" stop-color="#302950"/>
      <stop offset="0.695" stop-color="#2f284e"/>
      <stop offset="0.876" stop-color="#191529"/>
      <stop offset="1" stop-color="#0d0b15"/>
    </linearGradient>
  </defs>
  <g id="Grupo_2447" data-name="Grupo 2447" transform="translate(-1611.769 -7478.178)">
    <g id="Trazado_12676" data-name="Trazado 12676" fill="none">
      <path d="M1719.312,7547.035a29.465,29.465,0,0,1-.711-58.921,39.742,39.742,0,1,0,.765,58.919Z" stroke="none"/>
      <path d="M 1692.317016601562 7552.662109375 C 1697.297485351562 7552.662109375 1702.148681640625 7551.60546875 1706.589965820312 7549.6025390625 C 1693.86083984375 7544.5302734375 1684.842041015625 7532.0810546875 1684.842041015625 7517.56494140625 C 1684.842041015625 7503.4921875 1693.522583007812 7491.203125 1705.808715820312 7485.89501953125 C 1705.478881835938 7485.755859375 1705.146606445312 7485.62158203125 1704.811767578125 7485.49267578125 C 1700.8310546875 7483.95703125 1696.627197265625 7483.17822265625 1692.317016601562 7483.17822265625 C 1687.624633789062 7483.17822265625 1683.075317382812 7484.09619140625 1678.795288085938 7485.90625 C 1674.658813476562 7487.65576171875 1670.94287109375 7490.16162109375 1667.750610351562 7493.35400390625 C 1664.558349609375 7496.5458984375 1662.052612304688 7500.26220703125 1660.303100585938 7504.3984375 C 1658.492797851562 7508.67822265625 1657.574951171875 7513.2275390625 1657.574951171875 7517.919921875 C 1657.574951171875 7522.6123046875 1658.492797851562 7527.16162109375 1660.303100585938 7531.44189453125 C 1662.052734375 7535.578125 1664.558349609375 7539.2939453125 1667.750610351562 7542.486328125 C 1670.94287109375 7545.6787109375 1674.658813476562 7548.1845703125 1678.79541015625 7549.93408203125 C 1683.075317382812 7551.744140625 1687.624633789062 7552.662109375 1692.317016601562 7552.662109375 M 1692.317016601562 7557.662109375 C 1670.368041992188 7557.662109375 1652.574951171875 7539.869140625 1652.574951171875 7517.919921875 C 1652.574951171875 7495.97119140625 1670.368041992188 7478.17822265625 1692.317016601562 7478.17822265625 C 1702.39501953125 7478.17822265625 1711.595947265625 7481.93115234375 1718.600952148438 7488.11376953125 C 1702.655029296875 7488.4921875 1689.842041015625 7501.52783203125 1689.842041015625 7517.56494140625 C 1689.842041015625 7533.8408203125 1703.036010742188 7547.03515625 1719.31201171875 7547.03515625 C 1719.329956054688 7547.03515625 1719.348022460938 7547.033203125 1719.365966796875 7547.033203125 C 1712.27197265625 7553.626953125 1702.765991210938 7557.662109375 1692.317016601562 7557.662109375 Z" stroke="none" fill="#fff"/>
    </g>
    <g id="Trazado_12677" data-name="Trazado 12677" fill="none">
      <path d="M1747.255,7478.178a39.592,39.592,0,0,0-26.317,9.964,29.464,29.464,0,0,1-.754,58.871,39.741,39.741,0,1,0,27.071-68.835Z" stroke="none"/>
      <path d="M 1747.255004882812 7483.17822265625 C 1742.938232421875 7483.17822265625 1738.728271484375 7483.958984375 1734.742065429688 7485.49951171875 C 1734.273193359375 7485.6806640625 1733.809204101562 7485.87158203125 1733.349975585938 7486.072265625 C 1745.432739257812 7491.4609375 1753.781005859375 7503.5830078125 1753.781005859375 7517.56494140625 C 1753.781005859375 7531.984375 1745.106201171875 7544.25732421875 1732.579833984375 7549.41845703125 C 1737.12939453125 7551.541015625 1742.122924804688 7552.662109375 1747.255004882812 7552.662109375 C 1751.947387695312 7552.662109375 1756.496704101562 7551.744140625 1760.776611328125 7549.93408203125 C 1764.9130859375 7548.1845703125 1768.629028320312 7545.6787109375 1771.8212890625 7542.486328125 C 1775.013549804688 7539.2939453125 1777.519287109375 7535.578125 1779.268798828125 7531.44189453125 C 1781.0791015625 7527.16162109375 1781.996948242188 7522.6123046875 1781.996948242188 7517.919921875 C 1781.996948242188 7513.2275390625 1781.0791015625 7508.67822265625 1779.268798828125 7504.3984375 C 1777.519287109375 7500.26220703125 1775.013549804688 7496.5458984375 1771.8212890625 7493.35400390625 C 1768.629028320312 7490.16162109375 1764.9130859375 7487.65576171875 1760.776611328125 7485.90625 C 1756.496704101562 7484.09619140625 1751.947387695312 7483.17822265625 1747.255004882812 7483.17822265625 M 1747.255004882812 7478.17822265625 C 1769.203979492188 7478.17822265625 1786.996948242188 7495.97119140625 1786.996948242188 7517.919921875 C 1786.996948242188 7539.869140625 1769.203979492188 7557.662109375 1747.255004882812 7557.662109375 C 1736.795043945312 7557.662109375 1727.280029296875 7553.619140625 1720.183959960938 7547.01318359375 C 1736.055053710938 7546.5498046875 1748.781005859375 7533.5478515625 1748.781005859375 7517.56494140625 C 1748.781005859375 7501.8359375 1736.45703125 7488.98681640625 1720.93798828125 7488.14208984375 C 1727.947998046875 7481.94287109375 1737.161010742188 7478.17822265625 1747.255004882812 7478.17822265625 Z" stroke="none" fill="#fff"/>
    </g>
    <g id="Grupo_2437" data-name="Grupo 2437">
      <path id="Trazado_12678" data-name="Trazado 12678" d="M1625.008,7512.229a3.175,3.175,0,0,1,2.044.682,2.581,2.581,0,0,1,.789,2.158.689.689,0,0,0,.21.493.661.661,0,0,0,.5.191l7.817-.286a.684.684,0,0,0,.655-.761,8.076,8.076,0,0,0-3.576-5.9c-2.047-1.437-4.981-2.166-8.719-2.166-4.01,0-7.2.955-9.473,2.838a9.4,9.4,0,0,0-3.486,7.577,8.776,8.776,0,0,0,3.7,7.464,15.563,15.563,0,0,0,9.38,2.637,16.135,16.135,0,0,0,8.128-1.915,7.787,7.787,0,0,0,4.043-5.726.683.683,0,0,0-.648-.79l-7.656-.313a.683.683,0,0,0-.708.595c-.222,1.714-1.16,2.479-3.039,2.479a3.11,3.11,0,0,1-2.392-.874c-.384-.406-.842-1.37-.842-3.653C1621.734,7512.72,1623.6,7512.229,1625.008,7512.229Z" fill="url(#linear-gradient)"/>
      <path id="Trazado_12679" data-name="Trazado 12679" d="M1660.96,7509.327a16.369,16.369,0,0,0-9.684-2.686c-4.242,0-7.623.963-10.047,2.861a9.064,9.064,0,0,0-3.731,7.417,8.822,8.822,0,0,0,3.914,7.51,16.478,16.478,0,0,0,9.784,2.728,16.069,16.069,0,0,0,9.742-2.8,9.068,9.068,0,0,0,3.9-7.641A8.672,8.672,0,0,0,1660.96,7509.327Zm-13.077,7.742c0-4.338,1.96-4.84,3.433-4.84,1.346,0,3.134.431,3.134,4.16,0,2.58-.433,3.708-.8,4.2a2.881,2.881,0,0,1-2.5.981C1649.751,7521.569,1647.883,7521.1,1647.883,7517.069Z" fill="url(#linear-gradient)"/>
      <path id="Trazado_12680" data-name="Trazado 12680" d="M1691.019,7506.928H1684.2a.684.684,0,0,0-.684.684v5.5a19.633,19.633,0,0,0,.117,2.144q-.537-.628-1.171-1.3l-6.357-6.8a.683.683,0,0,0-.5-.217h-7.917a.683.683,0,0,0-.684.684v18.574a.684.684,0,0,0,.684.684h6.8a.685.685,0,0,0,.685-.684V7517.2q.528.664,1.051,1.239l7.473,8.206a.682.682,0,0,0,.506.224h6.818a.684.684,0,0,0,.684-.684v-18.574A.683.683,0,0,0,1691.019,7506.928Z" fill="url(#linear-gradient)"/>
      <path id="Trazado_12681" data-name="Trazado 12681" d="M1717.059,7509.856c-2.393-1.943-6-2.928-10.727-2.928h-10.555a.684.684,0,0,0-.685.684v18.574a.684.684,0,0,0,.685.684h11.075a16.817,16.817,0,0,0,9.922-2.732,8.646,8.646,0,0,0,3.957-7.328A8.818,8.818,0,0,0,1717.059,7509.856Zm-12.222,2.659h1.495a3.9,3.9,0,0,1,3.15,1.232,4.473,4.473,0,0,1,1.1,3.05,4.258,4.258,0,0,1-1.219,3.249,4.175,4.175,0,0,1-3.034,1.183h-1.495Z" fill="url(#linear-gradient)"/>
      <path id="Trazado_12682" data-name="Trazado 12682" d="M1745.715,7506.928h-6.6a.684.684,0,0,0-.684.684v10.872a7.212,7.212,0,0,1-.153,1.958c-.022.064-.145.3-.793.6a5.369,5.369,0,0,1-2.2.38,3.784,3.784,0,0,1-2.235-.478,1.61,1.61,0,0,1-.55-1.4v-11.934a.683.683,0,0,0-.684-.684H1723.3a.684.684,0,0,0-.684.684v12.6a5.618,5.618,0,0,0,3.522,5.41,20.428,20.428,0,0,0,8.577,1.535,18.479,18.479,0,0,0,8.254-1.605,5.877,5.877,0,0,0,3.426-5.639v-12.3A.683.683,0,0,0,1745.715,7506.928Z" fill="url(#linear-gradient)"/>
      <path id="Trazado_12683" data-name="Trazado 12683" d="M1767.221,7514.538c-.685-.181-1.606-.375-2.756-.583l6.8-1.4a.686.686,0,0,0,.452-1.018c-1.91-3.248-5.815-4.9-11.606-4.9-3.773,0-6.725.619-8.776,1.839-2.165,1.288-3.263,2.956-3.263,4.958a5.031,5.031,0,0,0,2.315,4.1,12.372,12.372,0,0,0,4.357,1.679l-7.45.913a.685.685,0,0,0-.55.941c1.668,4.037,6.025,6.084,12.948,6.084a19.85,19.85,0,0,0,9.132-1.828c2.473-1.288,3.727-3.029,3.727-5.175a4.823,4.823,0,0,0-1.591-3.594A8.444,8.444,0,0,0,1767.221,7514.538Zm-9.466-1.932c0-.19.546-.472,2.053-.472,1.927,0,3.2.512,3.787,1.523a.661.661,0,0,0,.139.17q-1.544-.264-3.547-.552a9.261,9.261,0,0,1-2.211-.488C1757.91,7512.756,1757.755,7512.677,1757.755,7512.606Zm4.908,8.355s-.224.458-2.475.458c-2.4,0-3.879-.617-4.41-1.834a.618.618,0,0,0-.1-.159q1.836.379,4.235.69a9.57,9.57,0,0,1,2.417.535C1762.663,7520.8,1762.663,7520.918,1762.663,7520.961Z" fill="url(#linear-gradient)"/>
      <path id="Trazado_12684" data-name="Trazado 12684" d="M1795.593,7506.928h-20.531a.684.684,0,0,0-.685.684v18.574a.684.684,0,0,0,.685.684h20.531a.684.684,0,0,0,.684-.684v-4.436a.684.684,0,0,0-.684-.685h-11.63V7519.4h9.271a.683.683,0,0,0,.684-.684v-4.124a.683.683,0,0,0-.684-.684h-9.271v-1.325h11.63a.684.684,0,0,0,.684-.685v-4.286A.683.683,0,0,0,1795.593,7506.928Z" fill="url(#linear-gradient)"/>
      <path id="Trazado_12685" data-name="Trazado 12685" d="M1818.643,7506.928h-19.732a.684.684,0,0,0-.684.684v18.574a.684.684,0,0,0,.684.684h8.156a.684.684,0,0,0,.685-.684v-6.269h8.212a.684.684,0,0,0,.684-.685v-4.177a.684.684,0,0,0-.684-.685h-8.212v-1.651h10.891a.685.685,0,0,0,.684-.685v-4.422A.683.683,0,0,0,1818.643,7506.928Z" fill="url(#linear-gradient)"/>
    </g>
    <g id="Grupo_2446" data-name="Grupo 2446">
      <g id="Grupo_2438" data-name="Grupo 2438">
        <path id="Trazado_12686" data-name="Trazado 12686" d="M1628.686,7519.1l7.657.313a7.1,7.1,0,0,1-3.709,5.238,15.388,15.388,0,0,1-7.786,1.824,14.834,14.834,0,0,1-8.976-2.5,8.094,8.094,0,0,1-3.419-6.913,8.7,8.7,0,0,1,3.239-7.048q3.238-2.68,9.036-2.681,5.416,0,8.326,2.041a7.39,7.39,0,0,1,3.289,5.416l-7.817.286a3.228,3.228,0,0,0-1.049-2.694,3.86,3.86,0,0,0-2.469-.831q-3.959,0-3.958,5.416,0,3.034,1.029,4.123a3.783,3.783,0,0,0,2.889,1.089Q1628.286,7522.172,1628.686,7519.1Z" fill="#fff"/>
        <path id="Trazado_12687" data-name="Trazado 12687" d="M1628.686,7519.1l7.657.313a7.1,7.1,0,0,1-3.709,5.238,15.388,15.388,0,0,1-7.786,1.824,14.834,14.834,0,0,1-8.976-2.5,8.094,8.094,0,0,1-3.419-6.913,8.7,8.7,0,0,1,3.239-7.048q3.238-2.68,9.036-2.681,5.416,0,8.326,2.041a7.39,7.39,0,0,1,3.289,5.416l-7.817.286a3.228,3.228,0,0,0-1.049-2.694,3.86,3.86,0,0,0-2.469-.831q-3.959,0-3.958,5.416,0,3.034,1.029,4.123a3.783,3.783,0,0,0,2.889,1.089Q1628.286,7522.172,1628.686,7519.1Z" fill="none"/>
      </g>
      <g id="Grupo_2439" data-name="Grupo 2439">
        <path id="Trazado_12688" data-name="Trazado 12688" d="M1651.2,7526.472a15.745,15.745,0,0,1-9.386-2.6,8.138,8.138,0,0,1-3.628-6.954,8.38,8.38,0,0,1,3.468-6.878q3.469-2.715,9.626-2.715a15.637,15.637,0,0,1,9.286,2.558,7.99,7.99,0,0,1,3.589,6.831,8.382,8.382,0,0,1-3.619,7.09A15.337,15.337,0,0,1,1651.2,7526.472Zm-.04-4.219A3.54,3.54,0,0,0,1654.2,7521q.93-1.259.93-4.606,0-4.845-3.819-4.845-4.119,0-4.118,5.525Q1647.2,7522.253,1651.156,7522.253Z" fill="#fff"/>
        <path id="Trazado_12689" data-name="Trazado 12689" d="M1651.2,7526.472a15.745,15.745,0,0,1-9.386-2.6,8.138,8.138,0,0,1-3.628-6.954,8.38,8.38,0,0,1,3.468-6.878q3.469-2.715,9.626-2.715a15.637,15.637,0,0,1,9.286,2.558,7.99,7.99,0,0,1,3.589,6.831,8.382,8.382,0,0,1-3.619,7.09A15.337,15.337,0,0,1,1651.2,7526.472Zm-.04-4.219A3.54,3.54,0,0,0,1654.2,7521q.93-1.259.93-4.606,0-4.845-3.819-4.845-4.119,0-4.118,5.525Q1647.2,7522.253,1651.156,7522.253Z" fill="none"/>
      </g>
      <g id="Grupo_2440" data-name="Grupo 2440">
        <path id="Trazado_12690" data-name="Trazado 12690" d="M1691.019,7526.186H1684.2l-7.474-8.207a29.662,29.662,0,0,1-2.9-3.836,9.144,9.144,0,0,1,.66,3.049v8.994h-6.8v-18.574h7.917l6.357,6.8a25.441,25.441,0,0,1,2.879,3.566,18.679,18.679,0,0,1-.64-4.872v-5.5h6.817Z" fill="#fff"/>
        <path id="Trazado_12691" data-name="Trazado 12691" d="M1691.019,7526.186H1684.2l-7.474-8.207a29.662,29.662,0,0,1-2.9-3.836,9.144,9.144,0,0,1,.66,3.049v8.994h-6.8v-18.574h7.917l6.357,6.8a25.441,25.441,0,0,1,2.879,3.566,18.679,18.679,0,0,1-.64-4.872v-5.5h6.817Z" fill="none"/>
      </g>
      <g id="Grupo_2441" data-name="Grupo 2441">
        <path id="Trazado_12692" data-name="Trazado 12692" d="M1695.777,7526.186v-18.574h10.555q6.877,0,10.3,2.776a8.128,8.128,0,0,1,3.418,6.423,7.965,7.965,0,0,1-3.668,6.769,16.082,16.082,0,0,1-9.526,2.606Zm8.376-4.273h2.179a4.868,4.868,0,0,0,3.508-1.374,4.948,4.948,0,0,0,1.43-3.742,5.171,5.171,0,0,0-1.27-3.5,4.58,4.58,0,0,0-3.668-1.47h-2.179Z" fill="#fff"/>
        <path id="Trazado_12693" data-name="Trazado 12693" d="M1695.777,7526.186v-18.574h10.555q6.877,0,10.3,2.776a8.128,8.128,0,0,1,3.418,6.423,7.965,7.965,0,0,1-3.668,6.769,16.082,16.082,0,0,1-9.526,2.606Zm8.376-4.273h2.179a4.868,4.868,0,0,0,3.508-1.374,4.948,4.948,0,0,0,1.43-3.742,5.171,5.171,0,0,0-1.27-3.5,4.58,4.58,0,0,0-3.668-1.47h-2.179Z" fill="none"/>
      </g>
      <g id="Grupo_2442" data-name="Grupo 2442">
        <path id="Trazado_12694" data-name="Trazado 12694" d="M1745.715,7507.612v12.3a5.221,5.221,0,0,1-3.049,5.028,17.744,17.744,0,0,1-7.946,1.531,19.676,19.676,0,0,1-8.287-1.47,4.959,4.959,0,0,1-3.128-4.79v-12.6h8.516v11.934a2.258,2.258,0,0,0,.827,1.945,4.486,4.486,0,0,0,2.642.613,6.012,6.012,0,0,0,2.482-.442,1.982,1.982,0,0,0,1.156-1,8.067,8.067,0,0,0,.19-2.177v-10.872Z" fill="#fff"/>
        <path id="Trazado_12695" data-name="Trazado 12695" d="M1745.715,7507.612v12.3a5.221,5.221,0,0,1-3.049,5.028,17.744,17.744,0,0,1-7.946,1.531,19.676,19.676,0,0,1-8.287-1.47,4.959,4.959,0,0,1-3.128-4.79v-12.6h8.516v11.934a2.258,2.258,0,0,0,.827,1.945,4.486,4.486,0,0,0,2.642.613,6.012,6.012,0,0,0,2.482-.442,1.982,1.982,0,0,0,1.156-1,8.067,8.067,0,0,0,.19-2.177v-10.872Z" fill="none"/>
      </g>
      <g id="Grupo_2443" data-name="Grupo 2443">
        <path id="Trazado_12696" data-name="Trazado 12696" d="M1747.374,7520.811l7.777-.952q.978,2.244,5.037,2.245,3.159,0,3.159-1.143a1.033,1.033,0,0,0-.73-.932,10.509,10.509,0,0,0-2.609-.592q-7.178-.936-9.216-2.447a4.365,4.365,0,0,1-2.039-3.552q0-2.628,2.929-4.369t8.426-1.743q8.337,0,11.016,4.559l-6.937,1.428q-1.08-1.863-4.379-1.864-2.737,0-2.738,1.157a.887.887,0,0,0,.619.8,10.217,10.217,0,0,0,2.4.543,70.1,70.1,0,0,1,6.958,1.248,7.724,7.724,0,0,1,3.438,1.856,4.141,4.141,0,0,1,1.378,3.1q0,2.819-3.358,4.568a19.1,19.1,0,0,1-8.816,1.75Q1749.712,7526.472,1747.374,7520.811Z" fill="#fff"/>
        <path id="Trazado_12697" data-name="Trazado 12697" d="M1747.374,7520.811l7.777-.952q.978,2.244,5.037,2.245,3.159,0,3.159-1.143a1.033,1.033,0,0,0-.73-.932,10.509,10.509,0,0,0-2.609-.592q-7.178-.936-9.216-2.447a4.365,4.365,0,0,1-2.039-3.552q0-2.628,2.929-4.369t8.426-1.743q8.337,0,11.016,4.559l-6.937,1.428q-1.08-1.863-4.379-1.864-2.737,0-2.738,1.157a.887.887,0,0,0,.619.8,10.217,10.217,0,0,0,2.4.543,70.1,70.1,0,0,1,6.958,1.248,7.724,7.724,0,0,1,3.438,1.856,4.141,4.141,0,0,1,1.378,3.1q0,2.819-3.358,4.568a19.1,19.1,0,0,1-8.816,1.75Q1749.712,7526.472,1747.374,7520.811Z" fill="none"/>
      </g>
      <g id="Grupo_2444" data-name="Grupo 2444">
        <path id="Trazado_12698" data-name="Trazado 12698" d="M1795.593,7521.75v4.436h-20.531v-18.574h20.531v4.286h-12.315v2.695h9.956v4.123h-9.956v3.034Z" fill="#fff"/>
        <path id="Trazado_12699" data-name="Trazado 12699" d="M1795.593,7521.75v4.436h-20.531v-18.574h20.531v4.286h-12.315v2.695h9.956v4.123h-9.956v3.034Z" fill="none"/>
      </g>
      <g id="Grupo_2445" data-name="Grupo 2445">
        <path id="Trazado_12700" data-name="Trazado 12700" d="M1815.964,7519.233h-8.9v6.953h-8.157v-18.574h19.732v4.422h-11.575v3.021h8.9Z" fill="#fff"/>
        <path id="Trazado_12701" data-name="Trazado 12701" d="M1815.964,7519.233h-8.9v6.953h-8.157v-18.574h19.732v4.422h-11.575v3.021h8.9Z" fill="none"/>
      </g>
    </g>
  </g>
</svg>
