<svg xmlns="http://www.w3.org/2000/svg" width="142" height="142" viewBox="0 0 142 142">
  <g id="Grupo_2023" data-name="Grupo 2023" transform="translate(-9220 -2587)">
    <path id="Trazado_7825" data-name="Trazado 7825" d="M9271.586,2587a18.859,18.859,0,0,1,9.021,5.04c2.569,2.376,5.8,2.48,9,1.472a40.813,40.813,0,0,0,5.063-2.177c1.25-.588,2.408-1.378,3.672-1.925,4.291-1.857,7.82.482,7.922,5.19a21.654,21.654,0,0,1-1.9,8.449,88.926,88.926,0,0,1-8.913,16.23c-.658.995-1.335,1.977-2.08,3.08,1.1.139,2.1.186,3.051.4a8.228,8.228,0,0,1-.5,16.15,15.6,15.6,0,0,1-2.482.175q-22.871.015-45.739-.019a3.077,3.077,0,0,0-2.622,1.143q-3.984,4.7-8.056,9.331a4.041,4.041,0,0,1-1.47,1.187,2.133,2.133,0,0,1-2.595-.774,2.223,2.223,0,0,1,.073-2.937c2.137-2.607,4.309-5.185,6.472-7.77.351-.419.727-.816,1.146-1.286-3.5-2.533-4.976-5.837-3.553-9.925,1.407-4.039,4.613-5.659,8.993-5.561-.389-.593-.673-1.043-.973-1.482a92.711,92.711,0,0,1-10.029-17.821c-1.249-3.133-2.376-6.334-1.809-9.813.6-3.711,3.631-5.523,7.143-4.183a31.115,31.115,0,0,1,4.3,2.192c2.977,1.7,6.1,3.067,9.572,2.551a9.028,9.028,0,0,0,4.586-1.993,18.477,18.477,0,0,1,9.1-4.923Zm9.963,35.5c1.725,0,3.292.079,4.845-.041a2.52,2.52,0,0,0,1.653-.87q2.228-3,4.25-6.154c3.317-5.173,6.487-10.436,8.533-16.27a19.745,19.745,0,0,0,.895-4.309c.113-1-.416-1.617-1.54-1.075-.91.44-1.792.944-2.706,1.378a53.942,53.942,0,0,1-5.892,2.693c-5.895,1.962-11.187.956-15.646-3.592a8.369,8.369,0,0,0-2.015-1.446,8.894,8.894,0,0,0-10.709,1.643,13.605,13.605,0,0,1-10.289,4.337,21.285,21.285,0,0,1-10.458-3.283,26.433,26.433,0,0,0-3.043-1.63c-1.369-.606-1.879-.325-1.674,1.158a23.633,23.633,0,0,0,1.349,5.468c3.073,7.737,7.614,14.64,12.442,21.365a1.478,1.478,0,0,0,.968.6c1.739.059,3.482.027,5.363.027v-1.646c0-3.327-.029-6.654.02-9.981a2.315,2.315,0,0,1,2.879-2.484,2.464,2.464,0,0,1,1.845,2.739q0,4.922,0,9.843c0,.485.041.97.062,1.417h14.138v-1.765q0-4.922.006-9.843a2.22,2.22,0,0,1,1.867-2.4,2.125,2.125,0,0,1,2.532,1.223,4.289,4.289,0,0,1,.31,1.744C9281.562,2615,9281.549,2618.644,9281.549,2622.5Zm-11.79,4.725h-20.921c-1.386,0-2.773-.051-4.156.027a3.524,3.524,0,0,0-.377,7,10.485,10.485,0,0,0,1.792.1q23.624.006,47.245,0a10.682,10.682,0,0,0,1.792-.1,3.323,3.323,0,0,0,2.816-2.528c.674-2.421-1.057-4.485-3.808-4.491C9286.015,2627.213,9277.887,2627.225,9269.759,2627.225Z" fill="#524092"/>
    <path id="Trazado_7826" data-name="Trazado 7826" d="M9301.539,2729c-2.921-.926-5.047-2.641-5.664-5.8a10.074,10.074,0,0,1-.144-1.927q-.012-33.673,0-67.348c0-4.828,2.931-7.773,7.767-7.775,16.537-.011,33.074.062,49.609-.049,4.416-.029,7.5,1.453,8.9,5.8v71.278a7.963,7.963,0,0,1-5.824,5.824Zm-1.088-41.461q0,16.7,0,33.409c0,2.57.745,3.326,3.276,3.326q25.093,0,50.185,0c2.642,0,3.362-.724,3.362-3.377q0-33.271,0-66.542c0-2.767-.688-3.473-3.413-3.473q-25.022,0-50.045,0c-2.646,0-3.365.729-3.365,3.385Q9300.449,2670.9,9300.451,2687.539Z" fill="#524092"/>
    <path id="Trazado_7827" data-name="Trazado 7827" d="M9220,2679.91a86.075,86.075,0,0,1,1.442-8.572c1.01-3.773,2.35-7.463,3.673-11.144.644-1.79,1.956-2.378,3.325-1.8,1.39.582,1.771,1.961.965,3.767a54.437,54.437,0,0,0-3.336,34.529c2.856,13.225,11.087,21.513,23.986,25.085,12.482,3.456,25.087,3.294,37.691.509,1.844-.407,3.03.152,3.411,1.613.367,1.408-.476,2.616-2.332,2.942-4.039.708-8.1,1.291-12.149,1.929-.4.064-.806.157-1.208.236h-10.816c-.359-.071-.718-.153-1.078-.211-4.824-.772-9.763-1.119-14.452-2.386-15.681-4.235-25.141-14.433-28.059-30.509-.444-2.446-.714-4.923-1.063-7.386Z" fill="#524092"/>
    <path id="Trazado_7828" data-name="Trazado 7828" d="M9272.181,2709.943c-.31,1.941.595,4.824-2.563,4.768-2.98-.054-2.051-2.809-2.291-4.394a69.576,69.576,0,0,1-7.637-2.684c-4.688-2.266-7.885-5.877-8.785-11.193a8.755,8.755,0,0,1-.109-1.794,2.266,2.266,0,0,1,2.149-2.284,2.163,2.163,0,0,1,2.494,2.044c-.19,5.936,6.37,10.279,11.813,10.656v-21.038c-1.451-.352-2.947-.609-4.374-1.077-5.4-1.772-9.651-4.91-11.494-10.513-1.817-5.528.445-11.411,5.614-15.161a19.954,19.954,0,0,1,9.152-3.683c.938-.127,1.32-.443,1.216-1.38a7.459,7.459,0,0,1,.01-1.385,2.273,2.273,0,0,1,2.174-2.262,2.3,2.3,0,0,1,2.482,2.1,22.924,22.924,0,0,1,.019,2.632c1.4.3,2.681.487,3.9.864,5.665,1.749,10.128,4.9,12.072,10.8a13.455,13.455,0,0,1,.556,3.4,2.328,2.328,0,0,1-2.213,2.655,2.425,2.425,0,0,1-2.471-2.309,12.07,12.07,0,0,0-11.465-10.423,1.834,1.834,0,0,0-.239.038v20.943c1.828.5,3.683.878,5.447,1.511a17.131,17.131,0,0,1,8.836,6.821c4.03,6.186,2.244,13.957-4.258,18.606A21.74,21.74,0,0,1,9272.181,2709.943Zm-4.906-30.806v-20.973c-4.359.723-8.074,2.307-10.468,6.089a7.756,7.756,0,0,0-.092,8.64C9259.073,2676.773,9262.838,2678.394,9267.274,2679.137Zm4.882,26.007a15.588,15.588,0,0,0,8.091-3.366,9.023,9.023,0,0,0,3.576-6.332c.431-5.578-5.729-11.416-11.667-11.023Z" fill="#524092"/>
    <path id="Trazado_7829" data-name="Trazado 7829" d="M9328.8,2676.909q-7.969,0-15.939,0c-3.471-.007-5.256-1.816-5.267-5.318-.008-2.865-.021-5.729,0-8.594a4.67,4.67,0,0,1,5.05-4.99q16.216-.018,32.434,0a4.673,4.673,0,0,1,5.055,4.985q.048,4.5,0,9.01a4.612,4.612,0,0,1-4.979,4.9C9339.7,2676.925,9334.25,2676.909,9328.8,2676.909Zm16.553-14.092h-32.922v9.267h32.922Z" fill="#524092"/>
    <path id="Trazado_7830" data-name="Trazado 7830" d="M9313.526,2693.5c1.154,0,2.311-.037,3.464.011a2.347,2.347,0,1,1-.021,4.693c-2.308.044-4.619.041-6.928,0a2.272,2.272,0,0,1-2.435-2.287,2.3,2.3,0,0,1,2.453-2.415C9311.215,2693.472,9312.371,2693.5,9313.526,2693.5Z" fill="#524092"/>
    <path id="Trazado_7831" data-name="Trazado 7831" d="M9330.143,2684.056c1.155,0,2.313-.037,3.466.01a2.342,2.342,0,0,1,.021,4.683q-3.6.094-7.207,0a2.281,2.281,0,0,1-2.268-2.333,2.339,2.339,0,0,1,2.384-2.357c.093-.006.185,0,.278,0h3.325Z" fill="#524092"/>
    <path id="Trazado_7832" data-name="Trazado 7832" d="M9346.54,2707.672c-1.156,0-2.313.034-3.466-.01a2.34,2.34,0,1,1-.057-4.68c2.4-.069,4.809-.07,7.209,0a2.34,2.34,0,1,1-.082,4.68C9348.945,2707.706,9347.742,2707.672,9346.54,2707.672Z" fill="#524092"/>
    <path id="Trazado_7833" data-name="Trazado 7833" d="M9346.475,2717.128c-1.154,0-2.312.044-3.465-.011a2.315,2.315,0,0,1-2.312-2.289,2.272,2.272,0,0,1,2.108-2.347c2.537-.1,5.083-.1,7.62,0a2.277,2.277,0,0,1,2.105,2.351,2.31,2.31,0,0,1-2.314,2.284C9348.973,2717.173,9347.723,2717.128,9346.475,2717.128Z" fill="#524092"/>
    <path id="Trazado_7834" data-name="Trazado 7834" d="M9346.66,2684.056c1.156,0,2.312-.035,3.466.007a2.342,2.342,0,1,1,.119,4.682q-3.6.1-7.209,0a2.341,2.341,0,1,1,.019-4.682C9344.255,2684.02,9345.458,2684.057,9346.66,2684.056Z" fill="#524092"/>
    <path id="Trazado_7835" data-name="Trazado 7835" d="M9313.453,2688.768c-1.155,0-2.312.043-3.464-.009a2.312,2.312,0,0,1-2.386-2.353,2.255,2.255,0,0,1,2.372-2.34q3.533-.063,7.066,0a2.231,2.231,0,0,1,2.313,2.255,2.291,2.291,0,0,1-2.3,2.43C9315.857,2688.818,9314.654,2688.767,9313.453,2688.768Z" fill="#524092"/>
    <path id="Trazado_7836" data-name="Trazado 7836" d="M9330.105,2698.219c-1.2,0-2.405.04-3.6-.012a2.3,2.3,0,0,1-2.342-2.391,2.274,2.274,0,0,1,2.3-2.293q3.6-.082,7.208,0a2.279,2.279,0,0,1,2.272,2.321,2.309,2.309,0,0,1-2.371,2.364C9332.416,2698.257,9331.26,2698.219,9330.105,2698.219Z" fill="#524092"/>
    <path id="Trazado_7837" data-name="Trazado 7837" d="M9346.6,2698.223c-1.149,0-2.3.029-3.449-.01a2.353,2.353,0,1,1,.032-4.7q3.451-.058,6.9,0a2.381,2.381,0,0,1,2.451,2.3,2.418,2.418,0,0,1-2.484,2.409c-.092.005-.184,0-.275,0Z" fill="#524092"/>
    <path id="Trazado_7838" data-name="Trazado 7838" d="M9330.048,2707.674c-1.155,0-2.311.03-3.465-.008a2.347,2.347,0,1,1-.063-4.692q3.532-.09,7.067,0a2.35,2.35,0,1,1-.074,4.7c-.093,0-.185,0-.277,0h-3.187Z" fill="#524092"/>
    <path id="Trazado_7839" data-name="Trazado 7839" d="M9330.08,2717.133c-1.2,0-2.4.04-3.6-.013a2.332,2.332,0,0,1-.126-4.66c2.444-.092,4.9-.092,7.341-.006a2.337,2.337,0,0,1-.149,4.672C9332.391,2717.17,9331.235,2717.135,9330.08,2717.133Z" fill="#524092"/>
    <path id="Trazado_7840" data-name="Trazado 7840" d="M9313.44,2707.672c-1.154,0-2.311.034-3.464-.008a2.341,2.341,0,0,1-.127-4.679c2.4-.077,4.8-.073,7.2-.006a2.263,2.263,0,0,1,2.3,2.426,2.291,2.291,0,0,1-2.448,2.269c-.093,0-.185,0-.277,0h-3.187Z" fill="#524092"/>
    <path id="Trazado_7841" data-name="Trazado 7841" d="M9313.394,2717.132c-1.153,0-2.31.04-3.462-.011a2.33,2.33,0,0,1-.17-4.654c2.489-.095,4.987-.1,7.476,0a2.214,2.214,0,0,1,2.114,2.446,2.242,2.242,0,0,1-2.357,2.207C9315.8,2717.171,9314.594,2717.133,9313.394,2717.132Z" fill="#524092"/>
  </g>
</svg>
