<svg xmlns="http://www.w3.org/2000/svg" width="106.367" height="134" viewBox="0 0 106.367 134">
  <g id="Grupo_2027" data-name="Grupo 2027" transform="translate(-9236.585 -2323)">
    <path id="Trazado_7863" data-name="Trazado 7863" d="M9318.348,2323a19.226,19.226,0,0,1,2.169,1.637c6.941,6.89,13.84,13.822,20.792,20.7a5.16,5.16,0,0,1,1.644,3.938q-.037,49.131-.02,98.262c0,6.089-3.394,9.461-9.5,9.461q-43.859,0-87.721,0c-4.486,0-7.709-2.251-8.755-6.218a13.84,13.84,0,0,1-.353-3.494q-.026-56.85-.015-113.7c0-6.328,1.274-8.25,7.014-10.583Zm-3.408,5.629c-.4-.03-.615-.06-.828-.06q-34.228,0-68.453,0c-2.4,0-3.434,1.051-3.434,3.44q-.01,57.97,0,115.939c0,2.45,1.039,3.477,3.531,3.477q44,.012,87.992,0c2.545,0,3.549-1.028,3.55-3.591q.006-48.744-.028-97.489a2.828,2.828,0,0,0-.733-1.8c-5-5.064-10.053-10.078-15.1-15.1-.225-.223-.5-.4-.925-.733,0,3.1,0,5.971,0,8.838.007,2.808.959,3.754,3.777,3.762,1.508,0,3.016,0,4.509,0v5.468c-2.278,0-4.457.067-6.626-.033a6.4,6.4,0,0,1-2.484-.721,8.206,8.206,0,0,1-4.746-7.819C9314.917,2337.722,9314.939,2333.234,9314.939,2328.629Z" fill="#524092"/>
    <path id="Trazado_7864" data-name="Trazado 7864" d="M9326.148,2401.2c0,8.9-.019,17.794.017,26.69a4.955,4.955,0,0,1-1.613,3.95c-1.538,1.42-2.965,2.961-4.465,4.424-1.614,1.572-3.069,1.581-4.686.012s-3.208-3.212-4.831-4.8a3.857,3.857,0,0,1-1.218-2.915q.021-27.409.018-54.819c0-2.221,1.058-3.269,3.311-3.3,3.277-.039,6.557-.023,9.833-.007,2.586.011,3.628,1.064,3.631,3.678Q9326.159,2387.661,9326.148,2401.2Zm-8.528,29.583a13.842,13.842,0,0,1,1.208-1.137,4.4,4.4,0,0,0,1.727-4.057c-.079-11.336-.041-22.674-.041-34.01v-1.493h-5.5a3.749,3.749,0,0,0-.068.465q-.006,18.313.008,36.627a1.765,1.765,0,0,0,.34,1.057C9316.012,2429.1,9316.806,2429.906,9317.62,2430.786Zm2.8-46.431v-8.206H9315v8.206Z" fill="#524092"/>
    <path id="Trazado_7865" data-name="Trazado 7865" d="M9300.907,2370.439v5.539h-41.831c-.028.548-.067.962-.068,1.375q-.006,5.889,0,11.777c0,2.7.987,3.676,3.729,3.677q18.226.008,36.455,0h1.669v5.494c-.4.023-.821.068-1.239.068q-18.621,0-37.242,0c-4.379,0-7.581-2.282-8.643-6.2a11.754,11.754,0,0,1-.351-2.971c-.034-5.016-.022-10.032-.013-15.048,0-2.68,1.038-3.709,3.733-3.711q21.242-.007,42.487,0Z" fill="#524092"/>
    <path id="Trazado_7866" data-name="Trazado 7866" d="M9253.433,2423.428v-5.382h47.446c.031.357.084.694.086,1.031.01,1.427,0,2.855,0,4.351Z" fill="#524092"/>
    <path id="Trazado_7867" data-name="Trazado 7867" d="M9253.435,2345.211v-5.365h27.841v5.365Z" fill="#524092"/>
    <path id="Trazado_7868" data-name="Trazado 7868" d="M9273.019,2412.218v-5.386h27.859v5.386Z" fill="#524092"/>
    <path id="Trazado_7869" data-name="Trazado 7869" d="M9300.887,2429.068v5.535h-5.539c0-1.69-.023-3.326.03-4.96.007-.2.429-.542.667-.55C9297.607,2429.044,9299.172,2429.068,9300.887,2429.068Z" fill="#524092"/>
    <path id="Trazado_7870" data-name="Trazado 7870" d="M9258.941,2351.028v5.366h-5.487v-5.366Z" fill="#524092"/>
    <path id="Trazado_7871" data-name="Trazado 7871" d="M9284.256,2434.572v-5.42h5.417v5.42Z" fill="#524092"/>
    <path id="Trazado_7872" data-name="Trazado 7872" d="M9264.624,2356.433v-5.4h5.423v5.4Z" fill="#524092"/>
  </g>
</svg>
