<svg xmlns="http://www.w3.org/2000/svg" xmlns:xlink="http://www.w3.org/1999/xlink" width="144.438" height="144.482" viewBox="0 0 144.438 144.482">
  <defs>
    <linearGradient id="linear-gradient" x1="0.146" y1="0.147" x2="0.853" y2="0.854" gradientUnits="objectBoundingBox">
      <stop offset="0.279" stop-color="#ffc72c"/>
      <stop offset="0.531" stop-color="#f5b922"/>
      <stop offset="0.997" stop-color="#dc970b"/>
      <stop offset="1" stop-color="#dc970b"/>
    </linearGradient>
  </defs>
  <g id="Grupo_2033" data-name="Grupo 2033" transform="translate(-8525.178 -4540.484)">
    <g id="Grupo_2031" data-name="Grupo 2031">
      <path id="Trazado_7892" data-name="Trazado 7892" d="M8597.34,4540.485a72.241,72.241,0,1,1-72.161,72.774A72.355,72.355,0,0,1,8597.34,4540.485Z" fill="url(#linear-gradient)"/>
    </g>
    <g id="Grupo_2032" data-name="Grupo 2032">
      <path id="Trazado_7893" data-name="Trazado 7893" d="M8548.3,4648.061a20.81,20.81,0,0,1,1.542-1.973c2.79-2.829,5.625-5.613,8.425-8.432a2.751,2.751,0,0,1,4.924,2.025c-.04,1.4-.01,2.791-.01,4.321,3.166.076,6.271.553,9.363-.134a4.3,4.3,0,0,0,3.146-2.7c.687-1.743,1.194-3.561,1.712-5.365.317-1.112.859-1.683,1.741-1.6s1.416.753,1.436,1.884a34.929,34.929,0,0,1-.956,10.644c-1.276,4.31-4.09,6.586-8.594,6.784-2.566.112-5.141.02-7.849.02,0,1.387-.036,2.742.011,4.094a2.816,2.816,0,0,1-1.644,3.037c-1.37.585-2.429-.008-3.4-.99-2.816-2.848-5.676-5.654-8.491-8.5a17.8,17.8,0,0,1-1.356-1.747Z" fill="#fff"/>
      <path id="Trazado_7894" data-name="Trazado 7894" d="M8604.258,4653.59c-1.229,0-2.361.028-3.493-.006-1.917-.058-3.852-.018-5.748-.263a8.084,8.084,0,0,1-6.838-5.525,23.182,23.182,0,0,1-1.3-7.362c-.07-1.493-.041-2.993-.013-4.489a1.592,1.592,0,0,1,1.478-1.744c.827-.051,1.4.482,1.661,1.46.42,1.566.8,3.15,1.336,4.676a5.392,5.392,0,0,0,5.432,3.825c2.467.033,4.935.007,7.483.007,0-1.71.019-3.169-.006-4.628a2.725,2.725,0,0,1,1.624-2.759,2.671,2.671,0,0,1,3.188.771q4.537,4.512,9.057,9.043a2.707,2.707,0,0,1-.019,4.274q-4.475,4.5-8.986,8.975a2.7,2.7,0,0,1-3.267.8,2.773,2.773,0,0,1-1.6-2.871C8604.283,4656.387,8604.258,4655,8604.258,4653.59Z" fill="#fff"/>
      <path id="Trazado_7895" data-name="Trazado 7895" d="M8645.485,4588.98a17.016,17.016,0,0,1-2.589-.866,1.81,1.81,0,0,1-.865-.869c-.4-.921-.648-1.908-1.032-2.838-.5-1.218-1.526-2.419-1.492-3.6.034-1.205,1.1-2.373,1.677-3.573a3.074,3.074,0,0,0-.593-3.852q-1.827-1.9-3.729-3.732a3.132,3.132,0,0,0-3.864-.591c-1.055.511-2.073,1.1-3.145,1.571a1.619,1.619,0,0,1-1.138-.013q-2.9-1.143-5.755-2.4a1.777,1.777,0,0,1-.874-.857c-.42-1.055-.71-2.16-1.083-3.234a3.18,3.18,0,0,0-3.227-2.348c-1.7-.028-3.393-.024-5.087,0a3.208,3.208,0,0,0-3.332,2.471c-.332.986-.678,1.968-.959,2.968a1.349,1.349,0,0,1-1.064,1.082,23.677,23.677,0,0,0-2.852,1c-1.19.486-2.37,1.469-3.529,1.432-1.179-.037-2.321-1.066-3.491-1.637a3.161,3.161,0,0,0-4.013.649c-1.143,1.115-2.266,2.25-3.391,3.382a3.242,3.242,0,0,0-.692,4.4c.41.822.816,1.646,1.331,2.68-6.128-4.027-12.526-2.121-15.862,1.883a11.267,11.267,0,0,0-2.558,9.39,11.742,11.742,0,0,0,5.54,8.1c-.311.037-.406.055-.5.059a15.789,15.789,0,0,0-15.517,16.072c-.009,3.711,0,7.422,0,11.132,0,2.942,1.436,4.386,4.364,4.386q17.561,0,35.119,0c2.933,0,4.357-1.437,4.359-4.388,0-1.839,0-3.679,0-5.635a8.9,8.9,0,0,0,1.247.362,1.822,1.822,0,0,1,1.658,1.6,27.59,27.59,0,0,0,.965,2.965,2.846,2.846,0,0,0,2.712,2.036q2.981.081,5.965,0a2.877,2.877,0,0,0,2.685-1.949,12.939,12.939,0,0,0,.765-2.31,2.692,2.692,0,0,1,2.451-2.526,6.122,6.122,0,0,0,1.646-.6c1.215-.534,2.433-1.553,3.624-1.516,1.241.039,2.444,1.1,3.678,1.687a3.093,3.093,0,0,0,3.78-.565q1.935-1.863,3.8-3.8a3.051,3.051,0,0,0,.594-3.766c-.49-1.027-1-2.047-1.556-3.038a1.3,1.3,0,0,1,0-1.426,12.367,12.367,0,0,0,1.527-3.358c.456-2.46,1.914-3.6,4.237-3.987a3.788,3.788,0,0,0,3.058-2.559v-6.836A3.865,3.865,0,0,0,8645.485,4588.98Zm-70.235.529a8.475,8.475,0,1,1,8.489,8.519A8.455,8.455,0,0,1,8575.25,4589.509Zm27.265,37.515c0,.528-.038,1.051-.705,1.057-2.665.024-5.329.01-8.109.01v-1.13q0-5.076,0-10.154c0-1.253-.562-1.943-1.549-1.947s-1.571.7-1.574,1.935q-.01,5.078,0,10.154v1.1h-13.71v-1.036c0-3.482.01-6.964-.009-10.447a1.564,1.564,0,1,0-3.116-.019c-.011.227,0,.455,0,.683V4628.1c-2.77,0-5.4.02-8.038-.031-.26,0-.732-.444-.732-.681.01-4.65-.241-9.331.209-13.943.577-5.922,5.964-10.53,11.912-10.658,4.432-.1,8.869-.109,13.3,0a12.608,12.608,0,0,1,12.112,12.326C8602.548,4619.083,8602.506,4623.054,8602.515,4627.024Zm12.762-21.373a10.643,10.643,0,1,1-.149-21.285,10.643,10.643,0,1,1,.149,21.285Z" fill="#fff"/>
    </g>
  </g>
</svg>
