<svg xmlns="http://www.w3.org/2000/svg" width="115.145" height="132.048" viewBox="0 0 115.145 132.048">
  <g id="Grupo_2025" data-name="Grupo 2025" transform="translate(-9232.121 -1769.952)">
    <path id="Trazado_7850" data-name="Trazado 7850" d="M9329.074,1852.544c.183-2.514.531-2.842,2.764-2.845,1.827,0,3.654-.007,5.481,0,1.863.009,2.384.505,2.395,2.338.018,2.877-.045,5.756.045,8.63a2.882,2.882,0,0,0,.855,1.823c1.837,1.71,3.786,3.3,5.672,4.959,1.238,1.089,1.283,1.778.242,3.018-.733.875-1.491,1.729-2.241,2.59-1.916,2.2-1.957,2.2-4.56.423v1.692q0,12.056,0,24.111c0,2.333-.383,2.714-2.692,2.714h-40.561c-2.227,0-2.65-.418-2.653-2.611,0-1.911,0-3.822,0-5.932h-1.672q-24.116,0-48.233,0c-5.61,0-9.884-2.99-11.309-7.953a12.382,12.382,0,0,1-.463-3.369q-.035-45.07-.012-90.142c0-6.52,4.736-11.207,11.393-11.292,4.749-.06,9.5-.028,14.25,0a1.631,1.631,0,0,0,1.732-.939,4.7,4.7,0,0,1,3.983-2.526,4.84,4.84,0,0,1,1.092-.05c1.9.282,3-.33,4.047-2.155a9.921,9.921,0,0,1,9.671-5.056,10.407,10.407,0,0,1,9.134,6.039,1.784,1.784,0,0,0,1.98,1.181,17.5,17.5,0,0,1,2.735.074,4.27,4.27,0,0,1,3.578,2.22,2.214,2.214,0,0,0,2.4,1.215c4.477-.041,8.952-.034,13.428-.013,7.085.031,11.765,4.7,11.77,11.777q.018,26.85-.02,53.7a2.766,2.766,0,0,0,1.134,2.43C9325.97,1849.808,9327.417,1851.122,9329.074,1852.544Zm-35.3,20.914c-.327.224-.478.315-.614.422-1.629,1.275-2.134,1.221-3.511-.38q-1.115-1.3-2.233-2.595c-1.552-1.807-1.521-2.282.238-3.8q11.143-9.627,22.293-19.247a2.483,2.483,0,0,0,1.046-2.062q-.053-25.206-.029-50.411c0-1.87-.422-2.307-2.23-2.313-3.928-.014-7.855-.033-11.782.027a2.7,2.7,0,0,0-1.62.708,5.445,5.445,0,0,1-3.792,1.636q-13.84,0-27.678,0a5.509,5.509,0,0,1-3.687-1.559,3.2,3.2,0,0,0-1.858-.78c-3.788-.071-7.58-.04-11.371-.033-2.093,0-2.465.382-2.465,2.482q0,41.507,0,83.013c0,2.154.371,2.521,2.571,2.521q22.608,0,45.216,0h1.508Zm23.006-19.99c-6.295,5.439-12.5,10.817-18.737,16.161a2.472,2.472,0,0,0-.952,2.1c.033,8.537.021,17.074.021,25.611v1.287h10.931v-1.566q0-8.422,0-16.846c0-1.861.473-2.322,2.361-2.324q6.3-.008,12.6,0c2.083,0,2.537.463,2.539,2.594q0,8.353,0,16.709v1.472h10.764a6.076,6.076,0,0,0,.12-.832q.009-13.284-.018-26.569a1.912,1.912,0,0,0-.559-1.287C9329.552,1864.49,9323.225,1859.038,9316.775,1853.468Zm-23.021,30.9h-1.891q-22.611,0-45.222,0c-3.462,0-5.451-1.928-5.452-5.27q-.01-42.059,0-84.118a4.816,4.816,0,0,1,5.1-5.194c1.735-.039,3.471-.009,5.207-.009h7.141v-5.8h-1.43c-4.385,0-8.77-.007-13.155,0-5.524.01-8.643,3.142-8.643,8.676q0,44.388,0,88.776c0,5.625,3.1,8.74,8.716,8.741q24.05.006,48.1,0h1.526Zm-16.13-92.215c4.473,0,8.946.009,13.419,0,1.7-.005,2.333-.613,2.357-2.3q.048-3.559,0-7.119c-.025-1.608-.66-2.219-2.272-2.267-1.141-.035-2.286-.065-3.423,0-1.48.09-2.484-.341-2.754-1.953a4.1,4.1,0,0,0-.6-1.371,7.308,7.308,0,0,0-7.3-3.878,7.133,7.133,0,0,0-6.522,5.234,2.373,2.373,0,0,1-2.768,1.97c-1.136-.078-2.282-.04-3.422-.007-1.666.05-2.3.7-2.312,2.364-.019,2.282-.015,4.564,0,6.846.01,1.839.633,2.471,2.456,2.475C9268.86,1792.164,9273.242,1792.157,9277.624,1792.157Zm36.627,51.6.152.393c2.175-3.152,3.8-.92,5.645.5v-1.26q0-25.608-.009-51.216c-.006-4.9-3.27-8.154-8.172-8.2-4.7-.042-9.406-.011-14.109-.005a8.208,8.208,0,0,0-.941.111v5.689c3.9,0,7.684,0,11.467,0,4.232,0,5.967,1.743,5.968,5.994q0,23.212,0,46.424Zm7.942,37.5h-10.765v17.358h10.765Zm-5.414-34.983-26.525,22.917,1.438,1.593c7.9-6.823,15.669-13.543,23.446-20.255,1.412-1.218,1.869-1.206,3.289.019q7.052,6.086,14.1,12.178c3.1,2.68,6.21,5.358,9.356,8.072l1.4-1.622Zm15.7,6.776c0,1.246-.384,2.431.953,3.306a30.206,30.206,0,0,1,2.894,2.456v-5.762Z" fill="#524092"/>
    <path id="Trazado_7851" data-name="Trazado 7851" d="M9288.683,1809.726c-4.885,0-9.771.041-14.653-.042a2.974,2.974,0,0,1-2.024-.981c-.588-.736.013-1.865.99-2.136a5.641,5.641,0,0,1,1.49-.122q14.174-.01,28.35-.005c.274,0,.548,0,.822.005,1.053.035,1.825.524,1.844,1.609.021,1.164-.753,1.673-1.89,1.672Q9296.146,1809.72,9288.683,1809.726Z" fill="#524092"/>
    <path id="Trazado_7852" data-name="Trazado 7852" d="M9288.585,1818.244q-7.052,0-14.1,0c-.456,0-1.016.126-1.344-.087-.512-.334-1.2-.907-1.2-1.38a2.511,2.511,0,0,1,1.053-1.636c.37-.277,1.053-.177,1.6-.177q14.1-.012,28.209-.006c.274,0,.549-.006.822.007,1.1.054,1.925.539,1.887,1.711s-.876,1.578-1.99,1.575C9298.536,1818.236,9293.561,1818.244,9288.585,1818.244Z" fill="#524092"/>
    <path id="Trazado_7853" data-name="Trazado 7853" d="M9288.724,1839.709q7.053,0,14.105,0c.455,0,1.026-.133,1.341.087.538.374,1.205.943,1.274,1.5.058.469-.566,1.151-1.056,1.517a2.693,2.693,0,0,1-1.46.178q-14.243.012-28.483,0c-.5,0-1.141.1-1.459-.167a2.612,2.612,0,0,1-1.05-1.642c0-.472.691-1.045,1.2-1.379.328-.214.888-.092,1.343-.092Q9281.6,1839.706,9288.724,1839.709Z" fill="#524092"/>
    <path id="Trazado_7854" data-name="Trazado 7854" d="M9288.664,1834.44q-7.052,0-14.1,0c-.5,0-1.107.118-1.475-.117-.508-.325-1.168-.945-1.152-1.418a2.621,2.621,0,0,1,1.106-1.6c.331-.254.967-.142,1.466-.143q14.172-.009,28.346,0h.274q2.373.031,2.407,1.624c.021,1.063-.795,1.657-2.353,1.66Q9295.921,1834.449,9288.664,1834.44Z" fill="#524092"/>
    <path id="Trazado_7855" data-name="Trazado 7855" d="M9256.308,1815.809c3.188-3.208,6.178-6.219,9.167-9.229.322-.323.634-.66.978-.96a1.543,1.543,0,0,1,2.32.006,1.594,1.594,0,0,1-.035,2.337c-.295.347-.642.65-.964.972q-4.844,4.843-9.689,9.686c-1.329,1.325-2.024,1.33-3.334.035s-2.591-2.575-3.876-3.873c-1.092-1.1-1.238-2.073-.448-2.825.752-.717,1.7-.579,2.726.469C9254.2,1813.5,9255.2,1814.616,9256.308,1815.809Z" fill="#524092"/>
    <path id="Trazado_7856" data-name="Trazado 7856" d="M9256.334,1840.451l9.17-9.2a12.5,12.5,0,0,1,.974-.956,1.569,1.569,0,0,1,2.324.071,1.525,1.525,0,0,1-.013,2.222c-.855.944-1.786,1.82-2.688,2.722q-4.009,4.011-8.024,8.019c-1.313,1.309-2.03,1.316-3.322.036-1.36-1.347-2.718-2.695-4.058-4.061-.93-.946-1.018-1.905-.288-2.623s1.676-.626,2.622.323C9254.122,1838.1,9255.174,1839.237,9256.334,1840.451Z" fill="#524092"/>
    <path id="Trazado_7857" data-name="Trazado 7857" d="M9256.346,1865.17l9.273-9.331a10.4,10.4,0,0,1,.88-.857,1.555,1.555,0,0,1,2.225.014,1.527,1.527,0,0,1,.042,2.317c-1.115,1.2-2.3,2.335-3.464,3.495q-3.672,3.675-7.35,7.344c-1.2,1.193-1.907,1.188-3.115,0q-2.043-2.016-4.058-4.062c-1-1.015-1.118-1.989-.355-2.719s1.676-.606,2.72.448S9255.22,1863.987,9256.346,1865.17Z" fill="#524092"/>
    <path id="Trazado_7858" data-name="Trazado 7858" d="M9283.2,1855.9c3.059,0,6.118-.007,9.177,0,1.446,0,2.282.613,2.188,1.649-.115,1.259-1,1.634-2.126,1.634q-9.246,0-18.491,0c-1.107,0-2.024-.322-2.1-1.636-.059-1.095.67-1.639,2.171-1.644C9277.081,1855.892,9280.141,1855.9,9283.2,1855.9Z" fill="#524092"/>
    <path id="Trazado_7859" data-name="Trazado 7859" d="M9278.148,1867.7c-1.462,0-2.922.012-4.383,0-1.094-.012-1.912-.446-1.9-1.66s.816-1.624,1.923-1.622q4.519.006,9.037,0c1.079,0,1.829.491,1.856,1.569.03,1.156-.755,1.7-1.875,1.712C9281.252,1867.71,9279.7,1867.7,9278.148,1867.7Z" fill="#524092"/>
  </g>
</svg>
