<svg xmlns="http://www.w3.org/2000/svg" width="77.116" height="76.945" viewBox="0 0 77.116 76.945">
  <g id="Grupo_1148" data-name="Grupo 1148" transform="translate(-1224 -13970.055)">
    <g id="Grupo_1147" data-name="Grupo 1147">
      <path id="Trazado_4287" data-name="Trazado 4287" d="M1298.17,14044.514c-1.009-3.355-1.994-6.633-2.975-9.9h-19.783c.992,3.306,1.969,6.562,2.971,9.9h2.008q3.339,0,6.679,0c.992,0,1.557.445,1.573,1.216.016.794-.57,1.265-1.6,1.265H1225.6c-1.4,0-1.869-.638-1.466-1.988q1.735-5.824,3.484-11.644c.311-1.034.629-1.258,1.739-1.261,1.01,0,2.02-.026,3.029.012.507.02.7-.153.841-.644,1-3.472,2.037-6.933,3.062-10.4.352-1.19.61-1.38,1.876-1.381.984,0,1.969-.025,2.951.011a.676.676,0,0,0,.8-.6c1-3.472,2.04-6.933,3.066-10.4.371-1.254.6-1.428,1.916-1.429h2.592c.421-2.733.835-5.41,1.247-8.087q1.02-6.623,2.035-13.247a1.435,1.435,0,0,1,1.172-1.278c2.533-.628,5.067-1.252,7.6-1.9a1.54,1.54,0,0,1,1.717.548q7.035,8.225,14.1,16.428a1.666,1.666,0,0,1,.323,1.974c-.79,1.791-1.515,3.61-2.326,5.563,1.07,0,2.033,0,3,0,1.092,0,1.411.234,1.721,1.281,1.034,3.488,2.077,6.975,3.079,10.473.151.528.367.692.9.669.982-.045,1.967-.014,2.951-.013,1.152,0,1.454.22,1.776,1.311,1.017,3.44,2.044,6.877,3.027,10.327.171.6.41.83,1.055.79,1.032-.064,2.07-.008,3.106-.021a1.325,1.325,0,0,1,1.427,1.048c1.208,4.029,2.435,8.053,3.632,12.086a1.245,1.245,0,0,1-1.314,1.757q-4.194.022-8.388,0a1.261,1.261,0,0,1-1.427-1.2c-.022-.754.537-1.268,1.434-1.272C1293.582,14044.507,1295.831,14044.514,1298.17,14044.514ZM1258,14009.763c.954,3.164,1.894,6.22,2.782,9.288.157.544.4.653.916.652,6.109-.018,12.218-.011,18.327-.013.222,0,.444-.023.738-.04-.942-3.122-1.882-6.178-2.77-9.246-.157-.543-.4-.653-.916-.652-5.229.018-10.458.011-15.687.011Zm8.713,12.438c1,3.326,1.984,6.6,2.968,9.875h19.784c-1-3.326-1.985-6.6-2.969-9.875Zm-13.387-16.07,12.354-4.73c-.645-.759-1.254-1.395-1.761-2.1a1.678,1.678,0,0,1-.337-1.184,1.331,1.331,0,0,1,.831-.872,1.713,1.713,0,0,1,1.3.375,30.411,30.411,0,0,1,2.063,2.328c.984-1.268,1.916-2.439,2.8-3.643a.738.738,0,0,0-.027-.7q-2.036-2.44-4.138-4.826a.645.645,0,0,0-.562-.188c-1.385.739-2.75,1.516-4.108,2.276a.776.776,0,0,0,.047.142c.448.533.9,1.063,1.346,1.6a1.239,1.239,0,1,1-1.866,1.6c-.448-.489-.884-.988-1.386-1.551Zm5.063,13.54c-.97-3.239-1.908-6.4-2.888-9.551-.055-.176-.468-.339-.717-.341-2.277-.026-4.555,0-6.832-.028-.512-.006-.7.165-.839.649-.743,2.577-1.532,5.143-2.3,7.712-.151.5-.3,1.008-.465,1.559Zm8.707,12.411c-.948-3.144-1.888-6.2-2.776-9.267-.157-.543-.4-.659-.916-.652-2.226.026-4.452.034-6.677,0-.585-.01-.789.2-.942.729-.787,2.727-1.617,5.44-2.431,8.159l-.311,1.036Zm-22.75,12.386h14.042c-.941-3.122-1.882-6.176-2.769-9.245-.158-.546-.406-.655-.919-.648-1.992.026-3.985.011-5.978.011-1.413,0-1.415,0-1.808,1.312C1246.059,14038.734,1245.209,14041.572,1244.342,14044.468Zm-3.364.009c-.962-3.212-1.9-6.373-2.875-9.523a.808.808,0,0,0-.633-.353c-2.33-.025-4.659,0-6.988-.025a.643.643,0,0,0-.748.56c-.6,2.082-1.236,4.154-1.86,6.229l-.934,3.112Zm8.7-12.408c-.961-3.21-1.9-6.372-2.874-9.522a.805.805,0,0,0-.631-.355c-2.329-.026-4.658-.006-6.987-.026a.644.644,0,0,0-.752.556c-.539,1.886-1.12,3.758-1.684,5.637-.368,1.225-.732,2.45-1.109,3.712Zm26.108,12.424c-.97-3.237-1.907-6.4-2.888-9.548-.055-.178-.467-.342-.715-.345-2.277-.025-4.555,0-6.832-.026-.509-.006-.7.161-.841.646-.842,2.9-1.727,5.784-2.594,8.675-.055.185-.085.375-.134.6Zm-22.894-42.835.167.015,5.161-9.025-3.343-3.877Zm4.833,5.464.024.1h12.98c-.758-.887-1.44-1.689-2.129-2.486-1.15-1.331-1.154-1.334-2.8-.705Q1261.759,14005.57,1257.726,14007.121Zm15.375-.94c.723-1.707,1.406-3.311,2.081-4.919a.335.335,0,0,0-.017-.283c-.874-1.029-1.758-2.051-2.676-3.114l-3.116,4.02Zm-8.707-17.7a10.141,10.141,0,0,1-1.106-1.3,2.871,2.871,0,0,0-4.1-1.291,20.939,20.939,0,0,1-2.946.788l3.712,4.272Zm-13.134,40.2.2.009,1.95-6.48h-4.1Zm-8.7,12.407.2.015,1.955-6.488h-4.1Zm17.4,0,.2.021,1.957-6.492h-4.052a2.411,2.411,0,0,0,.048.332Q1259.031,14038.019,1259.96,14041.088Z" fill="#524092"/>
      <path id="Trazado_4288" data-name="Trazado 4288" d="M1279.789,13977.747a6.361,6.361,0,0,1-.677,1.1q-2.475,2.512-5,4.978a1.261,1.261,0,1,1-1.742-1.78q2.485-2.5,4.984-4.988a1.131,1.131,0,0,1,1.458-.344A5.585,5.585,0,0,1,1279.789,13977.747Z" fill="#524092"/>
      <path id="Trazado_4289" data-name="Trazado 4289" d="M1263.79,13975.013c0,1.163.007,2.326,0,3.49-.008.91-.491,1.469-1.242,1.468s-1.235-.558-1.238-1.47q-.012-3.489,0-6.979c0-.913.486-1.469,1.24-1.468s1.232.557,1.24,1.469C1263.8,13972.686,1263.79,13973.85,1263.79,13975.013Z" fill="#524092"/>
      <path id="Trazado_4290" data-name="Trazado 4290" d="M1241.482,13994.87c-1.191,0-2.382.008-3.573,0-.911-.008-1.466-.5-1.459-1.249s.557-1.225,1.481-1.228q3.495-.012,6.99,0c.909,0,1.467.5,1.46,1.248s-.566,1.223-1.481,1.229C1243.76,13994.877,1242.621,13994.87,1241.482,13994.87Z" fill="#524092"/>
      <path id="Trazado_4291" data-name="Trazado 4291" d="M1281.129,13994.87c-1.165,0-2.33.01-3.495,0a1.258,1.258,0,0,1-1.408-1.222,1.242,1.242,0,0,1,1.376-1.252q3.573-.019,7.145,0a1.254,1.254,0,0,1,1.41,1.221c.011.753-.548,1.247-1.455,1.255C1283.511,13994.878,1282.32,13994.87,1281.129,13994.87Z" fill="#524092"/>
      <path id="Trazado_4292" data-name="Trazado 4292" d="M1250.835,13983.086a4.551,4.551,0,0,1-.857,1.029,1.132,1.132,0,0,1-1.476-.276q-1.653-1.636-3.3-3.281c-.587-.583-1.185-1.154-1.755-1.754a1.258,1.258,0,1,1,1.794-1.748q2.507,2.484,4.977,5A5.694,5.694,0,0,1,1250.835,13983.086Z" fill="#524092"/>
      <path id="Trazado_4293" data-name="Trazado 4293" d="M1255.082,14012.271a1.247,1.247,0,0,1-1.339,1.21c-.878.02-1.76.046-2.635-.01-.583-.037-.811.185-.952.722-.274,1.046-.609,2.076-.938,3.106-.279.872-.883,1.229-1.629,1a1.241,1.241,0,0,1-.734-1.7c.442-1.508.914-3.007,1.353-4.516a1.323,1.323,0,0,1,1.4-1.076c1.37.007,2.74-.01,4.109.007A1.244,1.244,0,0,1,1255.082,14012.271Z" fill="#524092"/>
      <path id="Trazado_4294" data-name="Trazado 4294" d="M1263.783,14024.683a1.246,1.246,0,0,1-1.339,1.209c-.879.021-1.76.047-2.636-.009-.583-.037-.81.186-.951.723-.274,1.046-.609,2.075-.938,3.106-.279.871-.884,1.229-1.63,1a1.241,1.241,0,0,1-.733-1.7c.442-1.508.914-3.008,1.353-4.516a1.322,1.322,0,0,1,1.4-1.076c1.37.006,2.74-.01,4.11.006A1.246,1.246,0,0,1,1263.783,14024.683Z" fill="#524092"/>
      <path id="Trazado_4295" data-name="Trazado 4295" d="M1251.728,14035.827c.672,0,1.344-.016,2.016,0a1.241,1.241,0,1,1-.025,2.472c-.93.019-1.861.023-2.791,0a.594.594,0,0,0-.7.521c-.309,1.116-.663,2.222-1.018,3.324a1.234,1.234,0,0,1-1.571.986,1.218,1.218,0,0,1-.8-1.662c.445-1.533.923-3.058,1.371-4.591a1.316,1.316,0,0,1,1.418-1.054C1250.332,14035.834,1251.03,14035.826,1251.728,14035.827Z" fill="#524092"/>
      <path id="Trazado_4296" data-name="Trazado 4296" d="M1234.257,14035.826c.646,0,1.292-.006,1.937,0,.917.011,1.472.47,1.486,1.217.014.771-.561,1.254-1.521,1.262-.9.008-1.808.026-2.711-.009a.593.593,0,0,0-.69.523c-.311,1.089-.644,2.172-.98,3.254-.276.887-.848,1.256-1.6,1.056-.72-.191-1.033-.87-.779-1.737.434-1.481.887-2.958,1.32-4.44a1.386,1.386,0,0,1,1.525-1.132C1232.914,14035.846,1233.586,14035.826,1234.257,14035.826Z" fill="#524092"/>
      <path id="Trazado_4297" data-name="Trazado 4297" d="M1246.381,14024.627a1.23,1.23,0,0,1-1.283,1.262q-1.433.04-2.868,0a.594.594,0,0,0-.7.518c-.315,1.141-.676,2.271-1.037,3.4a1.278,1.278,0,1,1-2.422-.734c.445-1.533.911-3.061,1.371-4.59a1.307,1.307,0,0,1,1.337-1.064c1.422,0,2.843-.013,4.264,0A1.238,1.238,0,0,1,1246.381,14024.627Z" fill="#524092"/>
      <path id="Trazado_4298" data-name="Trazado 4298" d="M1269.609,14038.308c-2.095,0-2.095,0-2.722,1.984-.211.664-.41,1.332-.639,1.99a1.276,1.276,0,0,1-1.546.948,1.256,1.256,0,0,1-.841-1.662c.461-1.586.952-3.162,1.428-4.744a1.293,1.293,0,0,1,1.383-1c1.475.008,2.951-.008,4.426.007a1.247,1.247,0,0,1,1.386,1.242,1.264,1.264,0,0,1-1.4,1.231C1270.592,14038.318,1270.1,14038.308,1269.609,14038.308Z" fill="#524092"/>
    </g>
  </g>
</svg>
