<svg xmlns="http://www.w3.org/2000/svg" width="82.998" height="75" viewBox="0 0 82.998 75">
  <g id="Grupo_1150" data-name="Grupo 1150" transform="translate(-1419.731 -13972)">
    <g id="Grupo_1149" data-name="Grupo 1149">
      <path id="Trazado_4299" data-name="Trazado 4299" d="M1464.207,14047H1429.23c-2.4,0-3.4-.984-3.4-3.358q0-1.206,0-2.412a2.83,2.83,0,0,1,1.932-2.867,3.534,3.534,0,0,0,.031-6.748,2.831,2.831,0,0,1-1.961-2.848q-.015-2.086,0-4.174a2.833,2.833,0,0,1,1.96-2.848,3.532,3.532,0,0,0-.031-6.745,2.83,2.83,0,0,1-1.931-2.869c0-.866-.006-1.731,0-2.6.015-2.124,1.079-3.184,3.212-3.184q23.1,0,46.2,0h24.123c2.329,0,3.346,1.008,3.355,3.317,0,.742-.019,1.485.005,2.226a3.061,3.061,0,0,1-2.139,3.207,3.438,3.438,0,0,0-1.454,5.543,4.53,4.53,0,0,0,1.591,1.066,2.932,2.932,0,0,1,2,2.926c0,1.393.01,2.783,0,4.174a2.785,2.785,0,0,1-1.91,2.785,3.543,3.543,0,0,0,.025,6.789,2.783,2.783,0,0,1,1.887,2.8c.008.929.015,1.856,0,2.783a2.775,2.775,0,0,1-3.071,3.033Q1481.927,14047,1464.207,14047Zm.038-1.884h34.8c.248,0,.495,0,.743,0a.9.9,0,0,0,1.012-1.036c-.008-.8-.052-1.613.014-2.411a1.506,1.506,0,0,0-1.126-1.734,5.005,5.005,0,0,1-3.206-3.907,5.277,5.277,0,0,1,3.308-6.055,1.367,1.367,0,0,0,1.023-1.518,27.254,27.254,0,0,1,0-3.245,1.7,1.7,0,0,0-1.253-1.942,4.989,4.989,0,0,1-3.182-4.623c-.11-2.07.67-3.967,2.566-4.774,1.819-.776,2.024-1.954,1.853-3.545a3.55,3.55,0,0,1,0-.371c0-1.656-.06-1.714-1.734-1.714h-69.595c-.247,0-.495,0-.742,0a.885.885,0,0,0-.968.988c0,.959.016,1.918-.009,2.876a1.12,1.12,0,0,0,.825,1.181,6.324,6.324,0,0,1,1.461.785,5.371,5.371,0,0,1-1.229,9.295,1.435,1.435,0,0,0-1.065,1.587c.055,1.141.053,2.289,0,3.431a1.477,1.477,0,0,0,1.039,1.614,6.294,6.294,0,0,1,2.146,1.55,5.32,5.32,0,0,1-2.081,8.4,1.452,1.452,0,0,0-1.1,1.655c.064.644.011,1.3.013,1.947,0,1.462.109,1.567,1.6,1.567Z" fill="#524092"/>
      <path id="Trazado_4300" data-name="Trazado 4300" d="M1494.661,14000.876a5.437,5.437,0,0,1,1.82-4.241,1.39,1.39,0,0,0,.445-1.854c-.477-1.1-.868-2.246-1.252-3.387a1.242,1.242,0,0,0-1.29-.961,5.387,5.387,0,0,1-3.51-9.511,1.214,1.214,0,0,0,.357-1.558c-.3-.71-.548-1.443-.82-2.165-.433-1.15-.643-1.25-1.783-.829q-9.209,3.4-18.417,6.8l-47.169,17.425c-1.592.588-1.625.658-1.031,2.273.256.7.526,1.386.761,2.088.185.552.131,1.088-.475,1.328-.64.253-1.077-.071-1.307-.674-.384-1.011-.791-2.014-1.112-3.044a2.714,2.714,0,0,1,1.88-3.507q15.978-5.917,31.963-11.82,17.023-6.294,34.048-12.584c2.414-.893,3.594-.347,4.505,2.1.259.694.5,1.395.778,2.082a2.808,2.808,0,0,1-.84,3.425,3.543,3.543,0,0,0-1.324,3.283,3.328,3.328,0,0,0,3.173,2.972,3.317,3.317,0,0,1,3.572,2.7c.315,1.094.768,2.15,1.182,3.214a2.775,2.775,0,0,1-.8,3.356,3.6,3.6,0,0,0-1.235,3.984c.178.63.009,1.136-.664,1.3a.9.9,0,0,1-1.155-.781C1494.827,14001.752,1494.731,14001.206,1494.661,14000.876Z" fill="#524092"/>
      <path id="Trazado_4301" data-name="Trazado 4301" d="M1480.676,13985.366c1.9.128,3.218.87,3.83,2.471,1.564,4.093,3.051,8.214,4.574,12.322.229.618.129,1.137-.523,1.356-.712.241-1.082-.2-1.31-.823q-2.143-5.821-4.3-11.635a3.928,3.928,0,0,0-.492-.986,2.039,2.039,0,0,0-2.593-.516q-8.991,3.312-17.977,6.637-12.462,4.6-24.925,9.2c-.261.1-.55.3-.782.247-.378-.082-.948-.266-1.021-.523a1.661,1.661,0,0,1,.381-1.169c.148-.212.543-.258.832-.364q21.361-7.891,42.726-15.774C1479.669,13985.594,1480.277,13985.475,1480.676,13985.366Z" fill="#524092"/>
      <path id="Trazado_4302" data-name="Trazado 4302" d="M1469.391,13999.361c-.218-.234-.683-.512-.7-.81a1.356,1.356,0,0,1,.569-1.068,17.07,17.07,0,0,1,2.335-.86q2.18-.763,4.358-1.529c.641-.225,1.282-.285,1.54.485s-.279,1.1-.929,1.321c-2.126.729-4.246,1.477-6.368,2.216C1469.995,13999.186,1469.787,13999.241,1469.391,13999.361Z" fill="#524092"/>
      <path id="Trazado_4303" data-name="Trazado 4303" d="M1436.686,13979.56c-.2.241-.387.686-.644.73a1.432,1.432,0,0,1-1.119-.316,6.4,6.4,0,0,1-.838-1.43c-.889-1.624-1.768-3.254-2.665-4.873-.325-.585-.421-1.146.237-1.519s1.1-.015,1.418.578c1.088,2.008,2.187,4.01,3.275,6.017C1436.465,13978.96,1436.538,13979.2,1436.686,13979.56Z" fill="#524092"/>
      <path id="Trazado_4304" data-name="Trazado 4304" d="M1440.9,13979.552c-.2.2-.476.692-.859.8-.659.187-1-.3-1.083-.939q-.376-2.978-.743-5.956c-.08-.652-.059-1.317.771-1.415.875-.1,1.036.538,1.119,1.245C1440.341,13975.273,1440.607,13977.256,1440.9,13979.552Z" fill="#524092"/>
      <path id="Trazado_4305" data-name="Trazado 4305" d="M1434.659,13983.9c.036.838-.669,1.41-1.255,1.068q-2.633-1.535-5.146-3.27a1.209,1.209,0,0,1-.1-1.177,1.394,1.394,0,0,1,1.269-.2c1.117.582,2.158,1.311,3.227,1.984.495.313,1.009.6,1.474.954A3.156,3.156,0,0,1,1434.659,13983.9Z" fill="#524092"/>
      <path id="Trazado_4306" data-name="Trazado 4306" d="M1464.262,14039.563h-23.093c-2.8,0-4.231-1.419-4.232-4.206q0-8.717,0-17.434c0-2.67,1.462-4.137,4.122-4.138q23.232,0,46.463,0a3.713,3.713,0,0,1,4.095,4.074q.011,8.808,0,17.616c0,2.613-1.474,4.082-4.077,4.084Q1475.9,14039.567,1464.262,14039.563Zm0-1.89q11.55,0,23.1,0c1.767,0,2.333-.56,2.334-2.33q.008-8.673,0-17.345c0-1.755-.57-2.309-2.353-2.309q-23.055,0-46.109,0c-1.838,0-2.385.542-2.386,2.372q-.006,8.628,0,17.254c0,1.813.562,2.357,2.405,2.357Z" fill="#524092"/>
      <path id="Trazado_4307" data-name="Trazado 4307" d="M1472.947,14026.945a9.142,9.142,0,1,1-9.02-9.262A9.162,9.162,0,0,1,1472.947,14026.945Zm-16.385-.059a7.249,7.249,0,1,0,7.3-7.309A7.269,7.269,0,0,0,1456.562,14026.887Z" fill="#524092"/>
      <path id="Trazado_4308" data-name="Trazado 4308" d="M1448.139,14033.082c-1.267,0-2.534-.011-3.8,0-.681.008-1.206-.214-1.2-.957s.548-.938,1.221-.936q3.847.018,7.7,0c.657,0,1.223.145,1.241.91.02.822-.563.989-1.262.981C1450.736,14033.072,1449.437,14033.083,1448.139,14033.082Z" fill="#524092"/>
      <path id="Trazado_4309" data-name="Trazado 4309" d="M1479.8,14031.2c1.267,0,2.535.014,3.8-.006.7-.012,1.292.171,1.281.971-.011.737-.563.928-1.236.924q-3.849-.021-7.7,0c-.66,0-1.216-.151-1.226-.923-.011-.834.583-.975,1.274-.968C1477.263,14031.208,1478.531,14031.2,1479.8,14031.2Z" fill="#524092"/>
      <path id="Trazado_4310" data-name="Trazado 4310" d="M1462.861,14022.457c.02-.241-.047-.556.08-.714.244-.3.6-.71.907-.712s.856.432.87.7c.037.685.409.87.937,1.045a3.046,3.046,0,0,1,.8.454c.48.349.711.807.341,1.354-.357.529-.822.5-1.382.246a4.443,4.443,0,0,0-1.731-.48c-.329,0-.66.472-.989.73a3.329,3.329,0,0,0,.825.687c.542.208,1.145.251,1.7.427a2.4,2.4,0,0,1,1.963,2.085,2.874,2.874,0,0,1-1.55,2.837c-.306.193-.454.621-.722.895s-.6.67-.867.648a1.2,1.2,0,0,1-.906-.686c-.093-.533-.351-.682-.781-.861a5.477,5.477,0,0,1-1.327-.825.9.9,0,0,1-.176-1.387c.411-.48.88-.365,1.409-.07a4.537,4.537,0,0,0,1.842.68c.38.021.788-.511,1.184-.795a4.558,4.558,0,0,0-.951-.792,8.874,8.874,0,0,0-1.435-.347,2.411,2.411,0,0,1-2.108-2.149,2.63,2.63,0,0,1,1.623-2.752C1462.56,14022.6,1462.7,14022.536,1462.861,14022.457Z" fill="#524092"/>
    </g>
  </g>
</svg>
