<svg id="Grupo_2564" data-name="Grupo 2564" xmlns="http://www.w3.org/2000/svg" xmlns:xlink="http://www.w3.org/1999/xlink" width="69.762" height="89" viewBox="0 0 69.762 89">
  <defs>
    <clipPath id="clip-path">
      <rect id="Rectángulo_496" data-name="Rectángulo 496" width="69.762" height="89" fill="none"/>
    </clipPath>
  </defs>
  <g id="Grupo_2563" data-name="Grupo 2563" clip-path="url(#clip-path)">
    <path id="Trazado_13558" data-name="Trazado 13558" d="M19.763,89c-2.172-.846-2.933-2.486-2.784-4.731.093-1.409.017-2.83.017-4.385-1.187,0-2.45.017-3.713,0-1.888-.031-3.418-1.012-3.619-2.728a26.47,26.47,0,0,1-.014-5.875,3.34,3.34,0,0,1,3.507-2.769c1.3-.023,2.6-.005,3.842-.005,0-1.778-.03-3.477.007-5.175a3.545,3.545,0,0,1,3.523-3.562c.693-.025,1.388,0,2.341,0-.365-.232-.524-.354-.7-.442A30.886,30.886,0,0,1,4.9,37.333a29.746,29.746,0,0,1,0-12.417c.209-1.03.763-1.479,1.571-1.327s1.162.769.964,1.812A28.551,28.551,0,0,0,54.316,52.52c.131-.114.259-.232.4-.338a1.291,1.291,0,0,1,1.866.049,1.275,1.275,0,0,1-.187,1.92,20.432,20.432,0,0,1-2.282,1.87c-1.921,1.272-3.891,2.47-5.9,3.733.523,0,1.071,0,1.618,0,2.56.017,3.989,1.437,4,3.975,0,1.216.013,2.433,0,3.649A3.589,3.589,0,0,1,50.1,71.1c-1.271.011-2.542,0-3.824,0V77.3c1.166,0,2.344,0,3.522,0,2.607.01,4.027,1.429,4.033,4.025,0,1.014-.063,2.032.013,3.04A4.137,4.137,0,0,1,51.057,89H46.189c-.515-.492-.978-1.023-.651-1.8s1.026-.829,1.754-.809c.781.021,1.564.006,2.345,0,1.334,0,1.586-.247,1.589-1.549q0-1.65,0-3.3c0-1.447-.21-1.662-1.654-1.663q-9.292,0-18.587,0c-3.329,0-6.659-.005-9.988,0-1.091,0-1.39.316-1.4,1.4-.007,1.187,0,2.374,0,3.561,0,1.3.26,1.551,1.588,1.551q9.729,0,19.456,0c.729,0,1.409.045,1.731.84S42.2,88.53,41.669,89Zm8.116-11.7q7.172,0,14.343,0c1.194,0,1.5-.309,1.5-1.489.006-1.043,0-2.086,0-3.129-.005-1.289-.29-1.573-1.588-1.573q-9.169,0-18.34,0-5.172,0-10.344,0c-1.032,0-1.342.321-1.35,1.351-.008,1.072,0,2.143,0,3.215,0,1.382.235,1.623,1.608,1.624q7.084,0,14.168,0M35.373,68.5q7.213,0,14.427,0c1.138,0,1.42-.293,1.426-1.446,0-1.014,0-2.028,0-3.042,0-1.456-.2-1.665-1.649-1.665q-8.822,0-17.643,0-5.432,0-10.864,0c-1.2,0-1.467.282-1.471,1.5q0,1.564,0,3.129c0,1.267.259,1.527,1.52,1.527q7.128,0,14.254,0" fill="#fff"/>
    <path id="Trazado_13559" data-name="Trazado 13559" d="M36.224,55.935c-6.5-.1-11.617-1.829-16.117-5.327a5.668,5.668,0,0,1-.723-.622,1.2,1.2,0,0,1-.09-1.66,1.174,1.174,0,0,1,1.7-.3c.581.377,1.1.844,1.669,1.246C36.038,58.8,55.143,50.557,57.344,34.313A22.162,22.162,0,1,0,17.35,44.025a1.753,1.753,0,0,1,.386,1.249,1.586,1.586,0,0,1-1,.99,1.765,1.765,0,0,1-1.361-.626,22.888,22.888,0,0,1-4.116-9.007,24.763,24.763,0,0,1,17.738-29.4c13.734-3.858,28.385,5.4,30.771,19.438A24.7,24.7,0,0,1,40.574,55.344a41.407,41.407,0,0,1-4.35.591" fill="#fff"/>
    <path id="Trazado_13560" data-name="Trazado 13560" d="M46.44,30.448c.534-.667,1.038-1.3,1.6-2-.93-.758-1.831-1.47-2.706-2.212a1.287,1.287,0,0,1-.265-1.906,1.175,1.175,0,0,1,1.709-.22c1.193.917,2.378,1.85,3.5,2.856a1.863,1.863,0,0,1,.217,2.541,20.591,20.591,0,0,1-2.536,3.076,7.487,7.487,0,0,1-2.36.924v5.717c.158.021.322.039.484.065a1.279,1.279,0,0,1,1.212,1.33A1.3,1.3,0,0,1,46,41.88c-.23.02-.463.008-.695.008H25.752c-1.2,0-1.749-.345-1.84-1.142-.1-.823.346-1.281,1.52-1.548V33.1c-1.6.55-2.466-.387-3.273-1.488-.462-.63-.993-1.208-1.467-1.83a2.042,2.042,0,0,1,.294-3.075q6.058-4.943,12.158-9.832a3.716,3.716,0,0,1,4.608-.07c1.617,1.219,3.177,2.516,4.738,3.808a1.254,1.254,0,0,1,.274,1.843,1.279,1.279,0,0,1-1.92.141c-1.456-1.146-2.891-2.319-4.325-3.493a1.433,1.433,0,0,0-2.033,0Q28.96,23.6,23.418,28.077c-.133.108-.253.231-.436.4l1.6,1.992,7.682-6.214c.54-.437,1.077-.878,1.621-1.31a2.139,2.139,0,0,1,3.19-.025q4.368,3.509,8.719,7.039c.2.16.406.309.643.489m-3.507,8.786c0-2.684.005-5.313-.011-7.941a.76.76,0,0,0-.261-.508c-2.372-1.937-4.756-3.861-7.157-5.8-2.3,1.858-4.539,3.689-6.808,5.485a1.543,1.543,0,0,0-.643,1.393c.04,1.737.014,3.475.014,5.212V39.23H34.31c0-.623-.016-1.2,0-1.768A1.323,1.323,0,0,1,35.6,36.02a1.347,1.347,0,0,1,1.29,1.455c.026.57.005,1.142.005,1.759Z" fill="#fff"/>
    <path id="Trazado_13561" data-name="Trazado 13561" d="M66.791,31.114c-.383,2.533-.722,4.962-1.128,7.38-.169,1.008-.82,1.467-1.6,1.3-.812-.175-1.135-.875-.892-1.933C66.557,23.089,58.4,8.425,44.064,3.995c-10.53-3.251-20-.976-28.226,6.387-.237.212-.454.45-.707.641a1.279,1.279,0,0,1-1.793-.141,1.215,1.215,0,0,1,.107-1.791,41.861,41.861,0,0,1,3.628-3.1A31.107,31.107,0,0,1,65.541,23.378a77.658,77.658,0,0,1,1.25,7.736" fill="#fff"/>
    <path id="Trazado_13562" data-name="Trazado 13562" d="M6.443,20.95A2.417,2.417,0,0,1,4.1,19.787a9.129,9.129,0,0,0-3.057-3.242,2.206,2.206,0,0,1,.046-3.775A9.886,9.886,0,0,0,4.166,9.785a2.181,2.181,0,0,1,3.672-.028,10.107,10.107,0,0,0,3.4,3.143,2.266,2.266,0,0,1,.219,3.75c-1.263,1.128-2.426,2.368-3.684,3.5a6.687,6.687,0,0,1-1.326.8m-.3-3.1L9.233,14.9,6.075,12,3.46,14.982l2.68,2.871" fill="#fff"/>
    <path id="Trazado_13563" data-name="Trazado 13563" d="M69.762,48.758A9.1,9.1,0,0,1,68.755,50.2c-1.115,1.156-2.358,2.195-3.447,3.375a2.266,2.266,0,0,1-3.7-.163,10.836,10.836,0,0,0-3.238-3.43,2.181,2.181,0,0,1,.087-3.67A10.253,10.253,0,0,0,61.6,43.269a2.174,2.174,0,0,1,3.668.011A9.207,9.207,0,0,0,68.6,46.367a2.436,2.436,0,0,1,1.163,2.391m-3.111-.346c-1.084-.994-2.191-2.009-3.16-2.9l-2.6,2.988,2.663,2.855c1.008-.956,2.084-1.979,3.1-2.944" fill="#fff"/>
  </g>
</svg>
