<svg xmlns="http://www.w3.org/2000/svg" width="78" height="78" viewBox="0 0 78 78">
  <g id="Grupo_1142" data-name="Grupo 1142" transform="translate(-822 -13971)">
    <g id="Grupo_1141" data-name="Grupo 1141">
      <path id="Trazado_4266" data-name="Trazado 4266" d="M823.98,13971a2.076,2.076,0,0,1,1.082,2.071q-.033,20.94-.015,41.881v.834l10.581-10.588a5.2,5.2,0,0,1,6.062-7.363,5.137,5.137,0,0,1,3.453,6.507,1.126,1.126,0,0,0,.327,1.361q4.47,4.415,8.885,8.884a.949.949,0,0,0,1.227.3,4.685,4.685,0,0,1,3.635.015.761.761,0,0,0,.99-.187q1.448-1.512,2.962-2.96a.761.761,0,0,0,.192-.977,5.152,5.152,0,0,1,3.378-6.785,5.071,5.071,0,0,1,6.469,3.9,8.223,8.223,0,0,1-.242,2.977.891.891,0,0,0,.227.978q2.9,2.862,5.763,5.761a.713.713,0,0,0,.919.209,4.762,4.762,0,0,1,3.78-.021.849.849,0,0,0,1.1-.277q6.125-6.151,12.271-12.281c1.163-1.162,1.977-1.107,2.974.194V14049H822v-78Zm72.935,74.932v-36.218c-.144.113-.221.162-.285.227q-4.954,4.951-9.893,9.919a.887.887,0,0,0-.137.763,5.156,5.156,0,0,1-2.771,6.727.735.735,0,0,0-.5.8c.02,1.242.008,2.486.007,3.73,0,1.4.027,2.792-.016,4.188a1.482,1.482,0,0,1-1.816,1.531,1.507,1.507,0,0,1-1.209-1.685c-.013-2.563-.016-5.127,0-7.69a.831.831,0,0,0-.581-.9,5.1,5.1,0,0,1-2.706-6.612.774.774,0,0,0-.22-.98c-1.9-1.873-3.772-3.766-5.661-5.645-.252-.251-.429-.582-.946-.383-.536.206-.479.566-.479.966q0,15.229,0,30.455v.808Zm-58.223-.013c.012-.267.027-.443.027-.618q0-18.428-.014-36.854c0-.271-.166-.715-.346-.769a1.064,1.064,0,0,0-.874.254q-6.03,5.977-12,12.01a1.741,1.741,0,0,0-.416,1.126q-.036,12.031-.018,24.062v.789Zm3.075-.027H855.8v-21.2a5.248,5.248,0,0,1-3.191-7.063.714.714,0,0,0-.152-.63q-4.664-4.7-9.369-9.364a.841.841,0,0,0-.646-.14c-.512.089-.693.4-.692.96q.028,18.384.015,36.769Zm24.856.024c.012-.176.031-.323.031-.47q0-15.486.011-30.973a.73.73,0,0,0-.514-.788.644.644,0,0,0-.843.211c-.939.963-1.882,1.922-2.855,2.848a.9.9,0,0,0-.263,1.164,5.09,5.09,0,0,1-2.676,6.5.921.921,0,0,0-.648,1q.028,9.892.013,19.786v.727Zm3.682-36.939a2.135,2.135,0,0,0-2.093-2.155,2.17,2.17,0,0,0-2.156,2.11,2.145,2.145,0,0,0,2.11,2.142A2.106,2.106,0,0,0,870.3,14008.977Zm-10.824,10.771a2.1,2.1,0,0,0-2.089-2.145,2.134,2.134,0,0,0-2.163,2.084,2.171,2.171,0,0,0,2.1,2.163A2.142,2.142,0,0,0,859.481,14019.747Zm-19.249-19.055a2.084,2.084,0,0,0-2.111,2.113,2.133,2.133,0,0,0,2.11,2.137,2.175,2.175,0,0,0,2.131-2.137A2.127,2.127,0,0,0,840.232,14000.692Zm41.636,19.8a2.078,2.078,0,0,0-2.175,2.044,2.115,2.115,0,1,0,4.227.131A2.1,2.1,0,0,0,881.868,14020.493Z" fill="#524092"/>
      <path id="Trazado_4267" data-name="Trazado 4267" d="M900,13983.645c-.392,1.356-.81,2.705-1.168,4.07-.2.761-.478,1.415-1.338,1.56a1.6,1.6,0,0,1-1.8-1.158c-.231.219-.429.4-.619.59q-5.762,5.761-11.521,11.522c-1.165,1.165-1.83,1.161-3-.014q-5.978-5.975-11.951-11.955c-.2-.2-.359-.427-.577-.687-.273.252-.474.425-.662.611q-4.175,4.17-8.346,8.345c-1.024,1.022-1.767,1.023-2.784.008l-15.184-15.183c-.176-.176-.362-.341-.576-.542-.212.2-.4.359-.576.535-1.9,1.9-3.8,3.81-5.716,5.7a2.577,2.577,0,0,1-.992.664,1.388,1.388,0,0,1-1.644-.647,1.42,1.42,0,0,1,.217-1.878q3.8-3.841,7.648-7.642a1.48,1.48,0,0,1,2.286.154c1.249,1.228,2.48,2.474,3.718,3.712q5.843,5.84,11.685,11.682c.159.159.327.309.527.5.219-.207.422-.391.616-.585q4.148-4.144,8.292-8.291c1.075-1.074,1.749-1.069,2.835.016q6.059,6.056,12.115,12.114c.176.176.363.343.509.48l11.392-11.413c-.081-.055-.239-.155-.393-.262a1.255,1.255,0,0,1-.607-1.439,1.948,1.948,0,0,1,.908-1.172c1.632-.542,3.3-.97,4.98-1.363.85-.2,1.361.368,1.734,1.061Z" fill="#524092"/>
      <path id="Trazado_4268" data-name="Trazado 4268" d="M829.289,13988.311a1.5,1.5,0,1,1-.1,3.006,1.5,1.5,0,0,1,.1-3.006Z" fill="#524092"/>
      <path id="Trazado_4269" data-name="Trazado 4269" d="M881.811,14040.168a1.519,1.519,0,1,1-.055,3.037,1.519,1.519,0,0,1,.055-3.037Z" fill="#524092"/>
    </g>
  </g>
</svg>
