<svg xmlns="http://www.w3.org/2000/svg" width="71.975" height="74" viewBox="0 0 71.975 74">
  <g id="Grupo_1144" data-name="Grupo 1144" transform="translate(-1626.794 -13972)">
    <g id="Grupo_1143" data-name="Grupo 1143">
      <path id="Trazado_4270" data-name="Trazado 4270" d="M1682.731,13996.119h3.089a5.306,5.306,0,0,1,3.839,1.494,3,3,0,0,1,.734,3.709c-.939,2.162-1.892,4.316-2.832,6.46.055.063.082.126.115.129,2.555.231,3.231,2.11,2.75,4.5a1.169,1.169,0,0,0,.3,1.149c1.58,1.822,3.211,3.605,4.7,5.5a14.869,14.869,0,0,1,2.98,12.758c-1.182,5.682-5.206,9.529-11.116,10.615-1.455.268-2.943.353-4.558.537,0,.478.006,1.027,0,1.578-.013,1.1-.342,1.447-1.413,1.447q-26.539,0-53.078,0c-1.085,0-1.443-.346-1.443-1.416q0-35.569,0-71.139c0-1.092.347-1.442,1.415-1.442q19.846,0,39.693.023a2.213,2.213,0,0,1,1.4.589c4.27,4.224,8.5,8.487,12.753,12.728a2.116,2.116,0,0,1,.685,1.633c-.025,2.724-.011,5.447-.011,8.17Zm-15.484-21.954H1628.97v69.662h51.63v-1.037a.649.649,0,0,0-.158-.1c-.176-.035-.353-.06-.53-.087a18.912,18.912,0,0,1-9.266-3.821,8.8,8.8,0,0,1-3.379-5.348,14.127,14.127,0,0,1,.528-7.068,28.017,28.017,0,0,1,4.145-7.341q1.958-2.713,3.9-5.437a4.079,4.079,0,0,1-.581-3.606,2.872,2.872,0,0,1,2.844-2.105c-.982-2.2-1.936-4.323-2.884-6.452a2.945,2.945,0,0,1,1.007-4.056,11.156,11.156,0,0,1,2.857-1.192,5.97,5.97,0,0,1,1.492-.108v-8.568h-.964q-5.346,0-10.692,0c-1.413,0-1.675-.259-1.675-1.645q0-3.083,0-6.166Zm16.046,40.241v.057c-1.333,0-2.676.1-4-.028a2.184,2.184,0,0,0-2.484,1.354,13.184,13.184,0,0,1-1.173,1.711c-1.407,2.02-2.875,4-4.2,6.073a14.039,14.039,0,0,0-2.3,7.09,7.406,7.406,0,0,0,3.182,6.786,14.156,14.156,0,0,0,1.819,1.145,19.082,19.082,0,0,0,13.512,1.616c4.784-1.19,7.854-4.162,8.769-9.122a13.123,13.123,0,0,0-2.82-10.973c-1.486-1.864-3.094-3.631-4.666-5.425a.958.958,0,0,0-.643-.271C1686.624,14014.4,1684.958,14014.406,1683.293,14014.406Zm-.513-16.191a30.966,30.966,0,0,0-3.145.028,5.481,5.481,0,0,0-2.005.643c-.768.418-.862.876-.508,1.68,1.011,2.295,2.053,4.575,3.06,6.873a.739.739,0,0,0,.81.512c1.177-.027,2.355-.038,3.531,0a.864.864,0,0,0,.967-.623c.9-2.121,1.841-4.222,2.768-6.331.589-1.34.371-1.933-1-2.485a4.336,4.336,0,0,0-1.41-.287C1684.828,13998.185,1683.8,13998.214,1682.78,13998.215Zm-3.9-12.845-9.469-9.488v9.488Zm3.9,24.689c-1.513,0-3.026,0-4.539,0-.864,0-1,.156-1.007,1.061-.008,1.052.134,1.252.983,1.254q4.616.013,9.231,0c.835,0,1.016-.223,1.017-1.154,0-.971-.147-1.155-.993-1.159C1685.91,14010.055,1684.346,14010.06,1682.782,14010.06Z" fill="#524092"/>
      <path id="Trazado_4271" data-name="Trazado 4271" d="M1634.465,14008.125c0-1.337-.006-2.673,0-4.009a1.8,1.8,0,0,1,1.968-2.036q4.077-.023,8.155,0a1.782,1.782,0,0,1,1.967,1.965q.036,4.085,0,8.171a1.8,1.8,0,0,1-2.013,2q-4.038.023-8.078,0a1.81,1.81,0,0,1-2-2.007C1634.458,14010.848,1634.466,14009.486,1634.465,14008.125Zm9.978-3.879H1636.6v7.8h7.838Z" fill="#524092"/>
      <path id="Trazado_4272" data-name="Trazado 4272" d="M1640.434,14039.53c-1.333,0-2.666.009-4,0a1.779,1.779,0,0,1-1.966-1.947q-.016-4.124,0-8.246a1.725,1.725,0,0,1,1.846-1.909q4.193-.042,8.384,0a1.7,1.7,0,0,1,1.85,1.828q.051,4.238,0,8.478a1.715,1.715,0,0,1-1.882,1.8C1643.255,14039.542,1641.844,14039.53,1640.434,14039.53Zm-3.826-2.162h7.809v-7.813h-7.809Z" fill="#524092"/>
      <path id="Trazado_4273" data-name="Trazado 4273" d="M1646.293,13996.359h9.689a3.3,3.3,0,0,1,.689.026c.535.118.947.484.836,1.016a2,2,0,0,1-.78.987c-.184.143-.543.074-.824.074q-9.649,0-19.3,0h-.154c-.982-.009-1.491-.37-1.491-1.058s.52-1.047,1.492-1.048Z" fill="#524092"/>
      <path id="Trazado_4274" data-name="Trazado 4274" d="M1645.008,14019.8q-4.655,0-9.308,0c-.751,0-1.2-.377-1.228-.986-.033-.639.419-1.056,1.2-1.1.154-.009.308,0,.462,0h17.693c1.142,0,1.648.322,1.658,1.043s-.507,1.053-1.632,1.053Z" fill="#524092"/>
      <path id="Trazado_4275" data-name="Trazado 4275" d="M1657.392,14007.285c-1.792,0-3.584,0-5.376,0-.917,0-1.4-.374-1.4-1.06s.484-1.057,1.4-1.058q5.414-.006,10.829,0c.909,0,1.4.389,1.4,1.064s-.494,1.05-1.408,1.053C1661.028,14007.288,1659.21,14007.285,1657.392,14007.285Z" fill="#524092"/>
      <path id="Trazado_4276" data-name="Trazado 4276" d="M1641.777,13991.715c1.8,0,3.59,0,5.384,0,.861,0,1.322.387,1.31,1.057-.011.644-.443,1.022-1.27,1.024q-5.46.018-10.921,0c-.847,0-1.336-.42-1.323-1.062s.507-1.019,1.359-1.021C1638.137,13991.711,1639.957,13991.715,1641.777,13991.715Z" fill="#524092"/>
      <path id="Trazado_4277" data-name="Trazado 4277" d="M1641.012,14024.445c-1.742,0-3.485,0-5.228,0-.861,0-1.325-.387-1.313-1.052.012-.648.445-1.011,1.274-1.013q5.305-.01,10.611,0c.8,0,1.27.388,1.282,1.013.012.649-.476,1.049-1.32,1.053C1644.55,14024.449,1642.781,14024.445,1641.012,14024.445Z" fill="#524092"/>
      <path id="Trazado_4278" data-name="Trazado 4278" d="M1656.516,14009.012c1.588,0,3.175-.006,4.763,0,.825,0,1.329.429,1.314,1.072-.015.622-.491,1.036-1.279,1.038q-4.8.016-9.6,0c-.8,0-1.249-.4-1.257-1.041-.01-.682.441-1.065,1.3-1.069C1653.34,14009.006,1654.928,14009.012,1656.516,14009.012Z" fill="#524092"/>
      <path id="Trazado_4279" data-name="Trazado 4279" d="M1638.778,13987.237c.843,0,1.686,0,2.529,0a1.035,1.035,0,1,1,.008,2.06q-2.605.028-5.21,0c-.709-.007-1.2-.469-1.14-1.062a1.015,1.015,0,0,1,1.131-1Q1637.437,13987.239,1638.778,13987.237Z" fill="#524092"/>
      <path id="Trazado_4280" data-name="Trazado 4280" d="M1682.354,14022.256c0-.529-.017-.989,0-1.449a1.047,1.047,0,0,1,1.029-1.123c.6-.047,1.041.443,1.072,1.154.019.456,0,.914,0,1.473.413,0,.762-.011,1.11,0,.809.03,1.243.405,1.242,1.056s-.437,1.036-1.241,1.044c-1.024.011-2.05,0-3.074.006-.826.008-1.286.42-1.269,1.107.016.635.475,1.016,1.27,1.033.589.013,1.179-.006,1.768.007a3.152,3.152,0,0,1,.774,6.209l-.58.162c0,.477.014.962,0,1.444a1.032,1.032,0,0,1-1.016,1.127c-.61.047-1.048-.417-1.086-1.135-.024-.458,0-.919,0-1.484h-.94c-1.687,0-2.17-.229-2.184-1.036-.014-.829.5-1.077,2.222-1.077.872,0,1.743.009,2.614,0,.779-.012,1.249-.405,1.271-1.034s-.447-1.055-1.226-1.086c-.716-.029-1.437.011-2.15-.048a3.125,3.125,0,0,1-2.849-3.017,3.165,3.165,0,0,1,2.562-3.192C1681.873,14022.357,1682.071,14022.314,1682.354,14022.256Z" fill="#524092"/>
      <path id="Trazado_4281" data-name="Trazado 4281" d="M1640.005,14007.985c.545-.576,1.039-1.13,1.568-1.649a1.055,1.055,0,1,1,1.471,1.48c-.7.715-1.4,1.422-2.126,2.111a1.279,1.279,0,0,1-1.969.021c-.229-.205-.443-.426-.653-.651a1.012,1.012,0,0,1-.086-1.508.984.984,0,0,1,1.444-.082C1639.736,14007.767,1639.814,14007.833,1640.005,14007.985Z" fill="#524092"/>
      <path id="Trazado_4282" data-name="Trazado 4282" d="M1640.021,14033.3c.561-.592,1.055-1.146,1.586-1.664a1.022,1.022,0,0,1,1.559-.095,1.059,1.059,0,0,1-.095,1.571c-.711.736-1.435,1.463-2.176,2.17a1.3,1.3,0,0,1-1.921.018,9.537,9.537,0,0,1-.706-.706,1.012,1.012,0,0,1-.088-1.455.967.967,0,0,1,1.436-.133Z" fill="#524092"/>
    </g>
  </g>
</svg>
