<svg xmlns="http://www.w3.org/2000/svg" width="80.094" height="80" viewBox="0 0 80.094 80">
  <g id="Grupo_1138" data-name="Grupo 1138" transform="translate(-217.979 -13970)">
    <g id="Grupo_1137" data-name="Grupo 1137">
      <path id="Trazado_4249" data-name="Trazado 4249" d="M267.559,14050a1.616,1.616,0,0,1-1.084-1.756q.031-12.939.013-25.878v-.941c-.825.476-1.53.9-2.254,1.3a27.685,27.685,0,0,1-12.72,3.331c-1.345.035-1.719-.342-1.72-1.694q0-12.041,0-24.08v-1.086H224.706c-1.476,0-1.768-.293-1.737-1.8a27.387,27.387,0,0,1,5.831-16.493c.559-.729,1.226-.9,1.8-.479.622.453.654,1.129.05,1.91a25.453,25.453,0,0,0-5.276,13.482c-.029.308-.031.617-.051,1.031h25.038c1.46,0,1.775.318,1.776,1.8q0,12,0,24v1.132c1.63-.254,3.174-.413,4.68-.745a24.946,24.946,0,0,0,9.119-4.118,1.171,1.171,0,0,0,.562-1.087c-.022-3.806-.014-7.61-.011-11.414,0-2.593,1.41-4,4.017-4,1.9,0,3.8,0,5.77,0a25.742,25.742,0,0,0-3.591-18.1c-.216.357-.39.627-.547.905q-1.777,3.167-3.553,6.334c-.485.861-1.119,1.114-1.773.735s-.737-1.05-.257-1.907c1.525-2.724,3.054-5.445,4.6-8.2a25.018,25.018,0,0,0-7.817-6.64,25.568,25.568,0,0,0-29.057,2.986c-.12.1-.237.205-.362.3a1.162,1.162,0,0,1-1.68-.077,1.111,1.111,0,0,1,.2-1.716,46.34,46.34,0,0,1,5.251-3.641,27.863,27.863,0,0,1,34.309,6.138c.1.116.213.226.4.422.531-.938,1.068-1.817,1.534-2.732a1.683,1.683,0,0,1,1.685-1c5.239.02,10.478.01,15.717.014a2.577,2.577,0,0,1,.7.068,1.146,1.146,0,0,1-.153,2.248,7.188,7.188,0,0,1-.859.024c-4.8,0-9.592.012-14.388-.014a1.083,1.083,0,0,0-1.144.684,25.638,25.638,0,0,1-1.259,2.248.773.773,0,0,0,.027.975,27.568,27.568,0,0,1,4.719,16.7c-.039,1.089-.174,2.174-.252,3.109a9.65,9.65,0,0,1,1.935,1.624,4.027,4.027,0,0,1,.682,2.171c.044,9.642.031,19.283.027,28.926,0,.937-.429,1.43-1.18,1.417s-1.158-.517-1.159-1.458q-.01-9.146,0-18.294,0-5.121,0-10.241c0-1.315-.347-1.659-1.667-1.661q-3.48-.006-6.959,0c-1.148,0-1.554.409-1.554,1.558q0,20.326,0,40.651c0,.156.013.312.024.542h10.119c.013-.265.037-.54.037-.814,0-2.06,0-4.118,0-6.177a3.777,3.777,0,0,1,.047-.776,1.089,1.089,0,0,1,1.163-.949,1.046,1.046,0,0,1,1.112,1.079c.021,3,.015,5.993,0,8.99,0,.707-.569.927-1.114,1.138Z" fill="#524092"/>
      <path id="Trazado_4250" data-name="Trazado 4250" d="M217.979,14002.619a1.617,1.617,0,0,1,1.558-.8q13.053.025,26.107.012c1.154,0,1.546.39,1.546,1.554q.006,13.05,0,26.1c0,1.146-.438,1.627-1.571,1.518q-3.064-.293-6.109-.771c-.531-.083-.719.018-.926.476-1.057,2.348-2.168,4.672-3.219,7.021a1.565,1.565,0,0,1-1.619,1.056c-4.22-.023-8.441-.008-12.662-.013-.971,0-1.528-.448-1.513-1.184s.576-1.158,1.555-1.158c3.83,0,7.66-.017,11.49.014a1.011,1.011,0,0,0,1.1-.718c.925-2.092,1.9-4.161,2.889-6.3-.545-.229-1.071-.431-1.582-.667-9.87-4.569-15.541-12.22-16.9-23.034a5.49,5.49,0,0,0-.141-.6Zm2.422,1.59a25.438,25.438,0,0,0,17.225,22.969c.479-1.026.955-2.063,1.445-3.094.383-.808,1.028-1.1,1.677-.79a1.218,1.218,0,0,1,.456,1.742c-.422.948-.864,1.889-1.359,2.966l4.954.7v-24.493Z" fill="#524092"/>
      <path id="Trazado_4251" data-name="Trazado 4251" d="M284.294,14050a1.518,1.518,0,0,1-1.12-1.711c.026-8.077.014-16.155.016-24.232a3.578,3.578,0,0,1,3.943-3.912q3.558,0,7.115,0a3.566,3.566,0,0,1,3.808,3.816c.005,8.1-.008,16.207.017,24.311a1.563,1.563,0,0,1-1.11,1.727Zm11.376-2.454c.018-.169.039-.271.039-.374q0-11.643,0-23.284c0-.959-.471-1.392-1.478-1.395-2.318-.008-4.637,0-6.955,0-1.4,0-1.739.344-1.739,1.756q0,11.212,0,22.425v.874Z" fill="#524092"/>
      <path id="Trazado_4252" data-name="Trazado 4252" d="M250.98,14050c-.92-.231-1.175-.847-1.167-1.751.032-3.751.008-7.5.015-11.255,0-2.525,1.389-3.929,3.9-3.946q3.518-.025,7.036,0c2.537.018,3.938,1.45,3.941,4.007,0,3.727-.016,7.452.014,11.179a1.631,1.631,0,0,1-1.072,1.768Zm11.337-2.465c.017-.275.043-.5.043-.729q0-4.879,0-9.758c0-1.278-.385-1.653-1.7-1.657q-3.4-.009-6.792,0c-1.359,0-1.695.348-1.7,1.72q0,4.8,0,9.6c0,.272.032.544.049.823Z" fill="#524092"/>
      <path id="Trazado_4253" data-name="Trazado 4253" d="M285.963,13973.913c-1.825,0-3.649.008-5.474,0-.93,0-1.467-.432-1.489-1.135-.023-.734.541-1.2,1.5-1.2q5.473-.01,10.948,0c1.035,0,1.658.676,1.4,1.483a1.273,1.273,0,0,1-1.415.859C289.613,13973.907,287.788,13973.913,285.963,13973.913Z" fill="#524092"/>
      <path id="Trazado_4254" data-name="Trazado 4254" d="M225.722,14031.386c1.511,0,3.022-.006,4.533,0,.871,0,1.372.429,1.389,1.139.018.739-.5,1.2-1.408,1.2q-4.611.01-9.221,0c-.9,0-1.45-.465-1.444-1.182s.55-1.155,1.462-1.159C222.6,14031.381,224.159,14031.386,225.722,14031.386Z" fill="#524092"/>
      <path id="Trazado_4255" data-name="Trazado 4255" d="M290.254,13996.359c1.353,0,2.706-.009,4.059,0,.855.006,1.377.445,1.393,1.141.016.723-.525,1.2-1.418,1.2q-4.02.01-8.04,0c-.86,0-1.369-.441-1.384-1.146-.016-.743.5-1.187,1.408-1.193C287.6,13996.352,288.926,13996.359,290.254,13996.359Z" fill="#524092"/>
      <path id="Trazado_4256" data-name="Trazado 4256" d="M290.235,14003.741c-1.327,0-2.654.007-3.98,0-.887-.007-1.37-.409-1.389-1.125-.019-.738.5-1.209,1.4-1.213q4.019-.018,8.038,0c.888,0,1.428.5,1.4,1.224-.027.691-.542,1.108-1.412,1.114C292.94,14003.748,291.588,14003.741,290.235,14003.741Z" fill="#524092"/>
      <path id="Trazado_4257" data-name="Trazado 4257" d="M290.319,14006.477c1.326,0,2.653-.009,3.979,0,.871.008,1.385.43,1.407,1.119.023.72-.513,1.211-1.407,1.216q-4.019.021-8.037,0c-.91,0-1.417-.477-1.395-1.217.021-.711.5-1.11,1.4-1.118C287.614,14006.468,288.966,14006.477,290.319,14006.477Z" fill="#524092"/>
    </g>
  </g>
</svg>
