<svg xmlns="http://www.w3.org/2000/svg" xmlns:xlink="http://www.w3.org/1999/xlink" width="79.394" height="79.656" viewBox="0 0 79.394 79.656">
  <defs>
    <clipPath id="clip-path">
      <rect id="Rectángulo_494" data-name="Rectángulo 494" width="79.394" height="79.656" transform="translate(0 0)" fill="none"/>
    </clipPath>
  </defs>
  <g id="Grupo_2560" data-name="Grupo 2560" transform="translate(0 0)">
    <g id="Grupo_2559" data-name="Grupo 2559" clip-path="url(#clip-path)">
      <path id="Trazado_13552" data-name="Trazado 13552" d="M45.523,76.991H15.2c-1.538,0-1.925-.38-1.927-1.889,0-1.1,0-2.2,0-3.42h-.923q-3.981,0-7.961,0c-1.292,0-1.727-.445-1.73-1.752,0-1.6,0-3.195,0-4.886-.473,0-.879.018-1.283,0A1.3,1.3,0,0,1,.017,63.679q-.035-3.276,0-6.552a1.3,1.3,0,0,1,1.355-1.366c.385-.021.773,0,1.289,0,0-1.451-.021-2.876.009-4.3.013-.669.123-1.335.19-2l.206-.024c-.16-.18-.316-.363-.48-.539A9.243,9.243,0,0,1,.008,42.437c-.007-1.272-.014-2.544,0-3.815.012-.833.452-1.417,1.2-1.423,2.208-.017,4.425-.059,6.625.091A8.588,8.588,0,0,1,13.207,39.9V38.472a12.018,12.018,0,0,1,.069-23.855V13.74q0-5.971,0-11.943c0-1.36.423-1.785,1.779-1.786q22.1,0,44.2-.011a2.3,2.3,0,0,1,1.76.73Q67.24,6.994,73.5,13.22a2.564,2.564,0,0,1,.823,1.974q-.029,18.121.006,36.244A2.733,2.733,0,0,0,74.8,52.86a12.237,12.237,0,0,1,2.168,6.93c.006,3.4.029,6.8-.017,10.2a3.252,3.252,0,0,0,.792,2.24,7.594,7.594,0,0,1,1.491,2.442,3.9,3.9,0,0,1-3.769,4.96c-2.182.043-4.367.011-6.55.011q-9.5,0-18.989,0c-2.3,0-3.28-.586-4.4-2.654M71.6,49.608V15.938c-3.844,0-7.628,0-11.412,0-1.365,0-1.795-.424-1.8-1.769q0-4.439,0-8.875V2.714H15.985V14.649A12.058,12.058,0,0,1,26.491,26.174a11.584,11.584,0,0,1-2.185,7.248,11.946,11.946,0,0,1-8.329,5.015V39.9a7.881,7.881,0,0,1,4.447-2.423c2.547-.239,5.12-.236,7.682-.257a1.111,1.111,0,0,1,1.071,1.183c.021,1.712.082,3.435-.061,5.137a8.911,8.911,0,0,1-2.932,5.8,4.672,4.672,0,0,1,.343,1.158q.045,3.276.007,6.552A1.3,1.3,0,0,1,25.166,58.4c-.4.021-.809,0-1.216,0v3.984c.3,0,.551,0,.8,0,1.368.009,1.8.425,1.8,1.769,0,1.962.007,3.925,0,5.888,0,1.144-.476,1.622-1.6,1.631-1.3.01-2.6,0-3.9,0H15.981v2.625H45.419c.678-.9,1.337-1.712,1.923-2.575a2.3,2.3,0,0,0,.416-1.183c.032-3.677-.017-7.355.032-11.031A11.894,11.894,0,0,1,55.842,48.45c.459-.158.925-.294,1.448-.459-.439-1.116-.851-2.164-1.264-3.212-.6-1.53-.1-2.294,1.516-2.295q4.811-.006,9.619,0c1.672,0,2.166.753,1.542,2.337-.411,1.044-.82,2.09-1.206,3.074l4.1,1.714M62.287,76.991c4.256,0,8.512-.006,12.769.006a1.517,1.517,0,0,0,1.544-.735,1.458,1.458,0,0,0-.376-1.733c-.438-.533-.835-1.1-1.3-1.614A2.489,2.489,0,0,1,74.3,71.1c.02-3.87.054-7.741-.01-11.611A9.058,9.058,0,0,0,66.5,50.625a51.926,51.926,0,0,0-6.452-.172,9.283,9.283,0,0,0-9.62,9.612c-.007,3.041-.126,6.089.042,9.121a6.265,6.265,0,0,1-1.888,5.289,1.4,1.4,0,0,0-.443,1.784c.35.667.954.74,1.625.738,4.174-.012,8.347-.006,12.52-.006M5.316,26.544a9.286,9.286,0,1,0,9.192-9.279,9.319,9.319,0,0,0-9.192,9.279M2.665,39.978c0,.846-.027,1.753.005,2.657a6.546,6.546,0,0,0,2.623,5.129c2.418,1.9,5.23,1.242,7.965,1.349,0-1.135.058-2.159-.011-3.174a6.377,6.377,0,0,0-5.26-5.917,38.993,38.993,0,0,0-5.322-.044M15.875,49.1c1.616,0,3.054.07,4.484-.017a6.425,6.425,0,0,0,4.862-2.639c1.528-1.98,1.386-4.265,1.28-6.616-1.4,0-2.75-.024-4.1.005a6.5,6.5,0,0,0-6.322,5.409,33.971,33.971,0,0,0-.207,3.858m-10.5,6.587H23.847V51.81H5.373ZM2.7,62.334H21.171V58.452H2.7ZM23.853,65.1H5.381v3.882H23.853ZM69.305,13.235C66.6,10.528,63.783,7.712,61.114,5.04v8.195ZM59.046,45.157c.312.8.549,1.5.868,2.171a.9.9,0,0,0,.639.443c1.212.043,2.427.034,3.641.007a.752.752,0,0,0,.575-.3c.337-.743.61-1.515.924-2.324Z" fill="#fff"/>
      <rect id="Rectángulo_490" data-name="Rectángulo 490" width="38.404" height="2.55" transform="translate(29.24 25.287)" fill="#fff"/>
      <rect id="Rectángulo_491" data-name="Rectángulo 491" width="38.375" height="2.554" transform="translate(29.237 31.907)" fill="#fff"/>
      <rect id="Rectángulo_492" data-name="Rectángulo 492" width="25.106" height="2.557" transform="translate(29.238 11.997)" fill="#fff"/>
      <rect id="Rectángulo_493" data-name="Rectángulo 493" width="25.106" height="2.558" transform="translate(29.239 18.633)" fill="#fff"/>
      <path id="Trazado_13553" data-name="Trazado 13553" d="M72.986,63.7A10.614,10.614,0,1,1,62.457,53.1,10.627,10.627,0,0,1,72.986,63.7M62.354,55.756a7.963,7.963,0,1,0,7.977,7.859,7.972,7.972,0,0,0-7.977-7.859" fill="#fff"/>
      <path id="Trazado_13554" data-name="Trazado 13554" d="M13.318,18.635h2.571c.023.387.046.784.076,1.289.446,0,.88-.025,1.31.005a1.254,1.254,0,0,1,1.289,1.254c.052.875.012,1.755.012,2.675H15.971c-.023-.386-.046-.784-.073-1.232H13.319v2.6c1.166,0,2.342,0,3.518,0,1.3,0,1.742.439,1.746,1.735q.006,2.2,0,4.4c0,1.414-.409,1.822-1.819,1.832-.244,0-.488,0-.785,0-.032.45-.06.848-.091,1.276a2.553,2.553,0,0,1-.339.047c-.716,0-1.432,0-2.23,0-.025-.427-.048-.826-.077-1.329-.449,0-.883.026-1.312-.006a1.255,1.255,0,0,1-1.289-1.255c-.05-.875-.011-1.755-.011-2.674h2.6c.023.388.047.786.073,1.234h2.58v-2.6c-1.169,0-2.345,0-3.52,0-1.3,0-1.741-.44-1.745-1.737q-.006-2.2,0-4.4c0-1.417.4-1.821,1.818-1.83.244,0,.488,0,.786,0,.032-.448.06-.847.091-1.285" fill="#fff"/>
      <path id="Trazado_13555" data-name="Trazado 13555" d="M63.747,70.316H61.079a2.141,2.141,0,0,1-.028-.427,1,1,0,0,0-.748-1.22,3.168,3.168,0,0,1-1.914-2.959c.779,0,1.517,0,2.255,0,.126,0,.325.024.367.1.5.943,1.374.48,2.086.509.187.007.553-.427.542-.644s-.359-.551-.607-.6a10.052,10.052,0,0,0-1.487-.042,3.3,3.3,0,0,1-3.063-2.587,3.1,3.1,0,0,1,1.611-3.566,1.328,1.328,0,0,0,.917-1.738H63.6c.02.028.08.075.075.112-.123.841.211,1.288,1.02,1.652a3.081,3.081,0,0,1,1.667,2.813c-.822,0-1.6,0-2.388-.006a.364.364,0,0,1-.268-.132c-.559-.934-1.44-.428-2.182-.454-.147-.005-.448.448-.425.663a.846.846,0,0,0,.57.561,14.1,14.1,0,0,0,1.57.046,3.282,3.282,0,0,1,3.01,2.543,3.108,3.108,0,0,1-1.491,3.55c-.812.4-1.324.8-1.012,1.822" fill="#fff"/>
    </g>
  </g>
</svg>
