<svg xmlns="http://www.w3.org/2000/svg" xmlns:xlink="http://www.w3.org/1999/xlink" width="104.998" height="105.004" viewBox="0 0 104.998 105.004">
  <defs>
    <linearGradient id="linear-gradient" y1="0.5" x2="1" y2="0.5" gradientUnits="objectBoundingBox">
      <stop offset="0.279" stop-color="#ffc72c"/>
      <stop offset="0.531" stop-color="#f5b922"/>
      <stop offset="0.997" stop-color="#dc970b"/>
      <stop offset="1" stop-color="#dc970b"/>
    </linearGradient>
  </defs>
  <g id="Grupo_2106" data-name="Grupo 2106" transform="translate(-5830.004 -2428.965)">
    <path id="Trazado_9205" data-name="Trazado 9205" d="M5830,2481.408c-.037-28.679,23.429-52.371,51.945-52.443A52.5,52.5,0,1,1,5830,2481.408Z" fill="url(#linear-gradient)"/>
    <g id="Grupo_2105" data-name="Grupo 2105">
      <path id="Trazado_9206" data-name="Trazado 9206" d="M5880.781,2502.081c-.464-.645-.845-1.18-1.231-1.711-1.957-2.688-3.934-5.362-5.852-8.08a1.794,1.794,0,0,1-.325-1.455c.182-.352.869-.529,1.359-.6a16.484,16.484,0,0,1,2.2-.025v-10.377h-24.342c-2.6,0-3.756-1.182-3.756-3.84q0-14.111,0-28.222c0-2.595,1.164-3.764,3.735-3.764h58.8c2.565,0,3.734,1.174,3.734,3.766q0,14.156,0,28.31c0,2.536-1.191,3.75-3.672,3.75q-11.7,0-23.4,0h-1.047v10.377a16.87,16.87,0,0,1,2.218.025c.49.066,1.176.247,1.357.6a1.8,1.8,0,0,1-.324,1.456c-2.107,2.973-4.269,5.906-6.413,8.852-.2.273-.392.55-.664.93a12.688,12.688,0,1,1-2.374.005Zm1.146-24.343h29.312c1.557,0,1.8-.244,1.8-1.8v-27.96c0-1.661-.2-1.869-1.812-1.869H5852.69c-1.6,0-1.8.209-1.8,1.88v27.873c0,1.653.218,1.879,1.811,1.879Zm10.836,37.437a10.8,10.8,0,1,0-10.817,10.987A10.951,10.951,0,0,0,5892.763,2515.175Zm-7.883-35.273h-5.828v.582q0,5.243,0,10.487c0,.984-.325,1.312-1.273,1.337-.444.012-.888,0-1.533,0l5.724,7.861,5.722-7.86h-1.023c-1.641-.006-1.785-.157-1.785-1.867Z" fill="#fff"/>
      <path id="Trazado_9207" data-name="Trazado 9207" d="M5901.485,2485.785c0,.961,0,1.921,0,2.882,0,.707-.309,1.231-1.035,1.235s-1.027-.5-1.023-1.225q.017-2.881,0-5.763c0-.723.279-1.23,1.013-1.233s1.04.515,1.044,1.223C5901.49,2483.864,5901.485,2484.825,5901.485,2485.785Z" fill="#fff"/>
      <path id="Trazado_9208" data-name="Trazado 9208" d="M5864.5,2485.785c0,.99,0,1.979,0,2.969,0,.7-.334,1.145-1.009,1.15a1.008,1.008,0,0,1-1.039-1.139q-.024-2.969,0-5.938c0-.671.344-1.15,1.028-1.147.735,0,1.033.5,1.024,1.224C5864.492,2483.864,5864.5,2484.825,5864.5,2485.785Z" fill="#fff"/>
      <path id="Trazado_9209" data-name="Trazado 9209" d="M5869.382,2495.426c0,.7.017,1.394,0,2.09-.021.676-.371,1.14-1.046,1.127s-1-.475-1-1.163q0-2.091,0-4.181c0-.683.315-1.154.991-1.172s1.028.45,1.052,1.122C5869.4,2493.973,5869.382,2494.7,5869.382,2495.426Z" fill="#fff"/>
      <path id="Trazado_9210" data-name="Trazado 9210" d="M5896.589,2495.434c0,.726.012,1.452,0,2.177a1.008,1.008,0,1,1-2.015.034c-.038-1.508-.039-3.019,0-4.528a.949.949,0,0,1,1.075-.989.959.959,0,0,1,.938,1.041C5896.6,2493.924,5896.59,2494.679,5896.589,2495.434Z" fill="#fff"/>
      <path id="Trazado_9211" data-name="Trazado 9211" d="M5867.343,2488.4c0-.579-.019-1.159.005-1.737a.949.949,0,0,1,.98-.993.938.938,0,0,1,1.022.951c.048,1.156.054,2.316.01,3.472a1.008,1.008,0,0,1-2.016-.042c-.02-.55,0-1.1,0-1.651Z" fill="#fff"/>
      <path id="Trazado_9212" data-name="Trazado 9212" d="M5896.589,2488.405c0,.55.018,1.1,0,1.651a1.008,1.008,0,0,1-2.016.032c-.043-1.156-.038-2.317.011-3.473a.936.936,0,0,1,1.026-.945.95.95,0,0,1,.975,1c.024.578,0,1.158,0,1.737Z" fill="#fff"/>
      <path id="Trazado_9213" data-name="Trazado 9213" d="M5864.492,2503.441a2.859,2.859,0,0,1-.03,1.118,1.829,1.829,0,0,1-.9.946.843.843,0,0,1-1.07-.839,14.527,14.527,0,0,1,0-2.52.859.859,0,0,1,1.067-.852,1.758,1.758,0,0,1,.906.943A3.189,3.189,0,0,1,5864.492,2503.441Z" fill="#fff"/>
      <path id="Trazado_9214" data-name="Trazado 9214" d="M5899.437,2503.366a2.861,2.861,0,0,1,.029-1.118,1.832,1.832,0,0,1,.9-.953.857.857,0,0,1,1.076.84,14.289,14.289,0,0,1,0,2.52.92.92,0,0,1-1.073.884.96.96,0,0,1-.932-1.041c-.013-.377,0-.754,0-1.132Z" fill="#fff"/>
      <path id="Trazado_9215" data-name="Trazado 9215" d="M5864.494,2493.159c0,.32.011.64,0,.959a.955.955,0,0,1-.961,1.015.943.943,0,0,1-1.052-.921,11.788,11.788,0,0,1,.007-2.173c.06-.59.5-1.015,1.067-.845a1.9,1.9,0,0,1,.911.935c.142.271.028.682.028,1.03Z" fill="#fff"/>
      <path id="Trazado_9216" data-name="Trazado 9216" d="M5899.432,2493.1c0-.29-.007-.581,0-.871a.958.958,0,0,1,.993-1.065.97.97,0,0,1,1.042,1.027,14.4,14.4,0,0,1,0,1.915.983.983,0,0,1-1.049,1.03.966.966,0,0,1-.988-1.077C5899.429,2493.735,5899.433,2493.416,5899.432,2493.1Z" fill="#fff"/>
      <path id="Trazado_9217" data-name="Trazado 9217" d="M5864.493,2498.25c0,.319.108.7-.025.941a1.975,1.975,0,0,1-.89.955.847.847,0,0,1-1.085-.814,6.52,6.52,0,0,1,.029-2.153,1.433,1.433,0,0,1,.991-.84c.549-.092.936.339.975.957C5864.509,2497.613,5864.492,2497.932,5864.493,2498.25Z" fill="#fff"/>
      <path id="Trazado_9218" data-name="Trazado 9218" d="M5899.443,2498.191c0-.318-.113-.706.025-.938.222-.373.582-.843.937-.9a1.207,1.207,0,0,1,.97.71,6.005,6.005,0,0,1,.014,2.313,1.282,1.282,0,0,1-1.02.745c-.328-.022-.7-.529-.9-.907-.142-.269-.028-.68-.028-1.027Z" fill="#fff"/>
      <path id="Trazado_9219" data-name="Trazado 9219" d="M5895.542,2461.985a13.58,13.58,0,1,1-13.491-13.934A13.741,13.741,0,0,1,5895.542,2461.985Zm-25.1-.1a11.523,11.523,0,1,0,11.572-11.735A11.666,11.666,0,0,0,5870.445,2461.883Z" fill="#fff"/>
      <path id="Trazado_9220" data-name="Trazado 9220" d="M5858.2,2450.148a4.776,4.776,0,0,1-3.341,3.405v.838c0,5.008.006,10.017-.008,15.025,0,.57.065.93.708,1.155a3.887,3.887,0,0,1,2.384,2.471.865.865,0,0,0,1,.662c3.856-.021,7.712-.012,11.568-.011.285,0,.638-.092.84.044.34.229.788.592.809.924s-.37.762-.678,1.033c-.175.153-.546.092-.829.093q-6.384.006-12.768,0c-1.3,0-1.436-.122-1.674-1.418a2.422,2.422,0,0,0-2.133-2.066c-1.047-.162-1.27-.406-1.27-1.468q-.007-8.91,0-17.82c0-1.08.221-1.33,1.25-1.481a2.427,2.427,0,0,0,2.171-2.224c.153-1.014.4-1.257,1.378-1.259q6.64-.009,13.281,0c.7,0,1.266.185,1.325,1.018.049.7-.422,1.077-1.335,1.079C5866.675,2450.151,5862.477,2450.148,5858.2,2450.148Z" fill="#fff"/>
      <path id="Trazado_9221" data-name="Trazado 9221" d="M5909.018,2453.535a4.735,4.735,0,0,1-3.284-3.4h-3.064c-3.228,0-6.456-.006-9.684,0-.6,0-1.086-.149-1.245-.806-.181-.753.345-1.287,1.29-1.292,2.228-.011,4.456,0,6.684,0q3.213,0,6.427,0c1.183,0,1.383.176,1.572,1.337a2.4,2.4,0,0,0,2.233,2.151,1.194,1.194,0,0,1,1.189,1.381q-.02,9,0,18a1.208,1.208,0,0,1-1.181,1.393,2.331,2.331,0,0,0-2.246,2.316,1.158,1.158,0,0,1-1.306,1.171q-6.726,0-13.454-.005c-.829,0-1.285-.436-1.228-1.116.065-.781.583-.978,1.263-.977,4,.006,8-.006,12,.013.517,0,.807-.1,1-.653a4.132,4.132,0,0,1,2.531-2.561.724.724,0,0,0,.567-.8q-.023-7.905-.014-15.812A2.966,2.966,0,0,0,5909.018,2453.535Z" fill="#fff"/>
      <path id="Trazado_9222" data-name="Trazado 9222" d="M5861.19,2465.378a3.463,3.463,0,1,1,3.435-3.47A3.422,3.422,0,0,1,5861.19,2465.378Zm.019-4.819a1.358,1.358,0,1,0,1.351,1.39A1.369,1.369,0,0,0,5861.209,2460.559Z" fill="#fff"/>
      <path id="Trazado_9223" data-name="Trazado 9223" d="M5902.73,2465.378a3.463,3.463,0,1,1,3.41-3.485A3.44,3.44,0,0,1,5902.73,2465.378Zm.041-4.82a1.358,1.358,0,1,0-.042,2.716,1.358,1.358,0,0,0,.042-2.716Z" fill="#fff"/>
      <path id="Trazado_9224" data-name="Trazado 9224" d="M5880.939,2509.1c0-.556-.017-1.079,0-1.6a1.021,1.021,0,1,1,2.04-.03c.031.521.006,1.046.006,1.5a8.063,8.063,0,0,1,1.785,1.231,5.9,5.9,0,0,1,1.019,2.047.972.972,0,0,1-.825,1.355.928.928,0,0,1-1.156-.968c-.068-1.39-2.007-2.03-3.156-1.061a1.018,1.018,0,0,0,.135,1.827c.748.419,1.539.758,2.315,1.125,1.383.654,2.76,1.368,2.726,3.206s-1.177,2.873-2.841,3.475c0,.521.013,1.042,0,1.563-.022.683-.357,1.121-1.051,1.109-.648-.011-.959-.437-1-1.079a1.637,1.637,0,0,1,0-.349,1.362,1.362,0,0,0-.946-1.708,3.147,3.147,0,0,1-1.876-2.634c-.1-.678.052-1.262.8-1.4.729-.128,1.073.284,1.222,1a1.894,1.894,0,0,0,3.1,1.045,1.035,1.035,0,0,0-.148-1.876c-.827-.453-1.7-.818-2.55-1.231-1.312-.638-2.52-1.417-2.451-3.125a3.585,3.585,0,0,1,2.682-3.356C5880.8,2509.167,5880.829,2509.151,5880.939,2509.1Z" fill="#fff"/>
      <path id="Trazado_9225" data-name="Trazado 9225" d="M5880.937,2454.339c0-.5,0-1.2,0-1.9a1.04,1.04,0,0,1,.99-1.189c.607-.062,1.043.441,1.062,1.2.018.7,0,1.392,0,2.11a4.487,4.487,0,0,1,3.513,3.565c.165.875-.123,1.473-.755,1.609-.664.142-1.073-.238-1.25-1.167a2.4,2.4,0,0,0-2.138-1.955,2.692,2.692,0,0,0-2.717,1.267,1.309,1.309,0,0,0,.51,1.942c.861.507,1.79.893,2.686,1.339.64.319,1.3.6,1.906.984a3.514,3.514,0,0,1,.618,5.756,16.586,16.586,0,0,1-2.373,1.6c0,.449,0,1.167,0,1.885a1.03,1.03,0,0,1-.988,1.185c-.619.055-1.045-.43-1.065-1.191-.018-.7,0-1.392,0-2.1a4.505,4.505,0,0,1-3.512-3.569c-.165-.88.122-1.475.756-1.6.68-.138,1.068.224,1.25,1.165a2.4,2.4,0,0,0,2.141,1.954,2.7,2.7,0,0,0,2.714-1.273,1.308,1.308,0,0,0-.514-1.941c-.861-.507-1.791-.891-2.687-1.338a21.272,21.272,0,0,1-1.9-.986,3.515,3.515,0,0,1-.614-5.756A16.256,16.256,0,0,1,5880.937,2454.339Z" fill="#fff"/>
    </g>
  </g>
</svg>
