<svg xmlns="http://www.w3.org/2000/svg" xmlns:xlink="http://www.w3.org/1999/xlink" width="90.554" height="84.676" viewBox="0 0 90.554 84.676">
  <defs>
    <clipPath id="clip-path">
      <rect id="Rectángulo_495" data-name="Rectángulo 495" width="90.554" height="84.676" transform="translate(0 0)" fill="none"/>
    </clipPath>
  </defs>
  <g id="Grupo_2562" data-name="Grupo 2562" transform="translate(0 0)">
    <g id="Grupo_2561" data-name="Grupo 2561" clip-path="url(#clip-path)">
      <path id="Trazado_13556" data-name="Trazado 13556" d="M90.554,61.205a13.751,13.751,0,0,1-.939,2.074A5.2,5.2,0,0,1,85,65.6c-9.4.006-18.8.048-28.2-.014a9.049,9.049,0,0,1-8.542-12.25,9.169,9.169,0,0,1,8.824-5.867q12.822-.018,25.642,0h1.09V31.921a1.043,1.043,0,0,0-.326.075,7.979,7.979,0,0,1-4.544,1.166q-27.586-.021-55.174-.009c-4.008,0-8.017-.05-12.024.016a11.351,11.351,0,0,1-8.573-3.264,1.637,1.637,0,0,0-.327-.166v.913q0,22.2,0,44.391c0,3.34,1.62,5.806,4.621,6.46a39.742,39.742,0,0,0,5.865.42V80.567q0-20.121,0-40.243a8.536,8.536,0,0,1,.063-1.142,1.3,1.3,0,0,1,1.388-1.213,1.31,1.31,0,0,1,1.374,1.237,8.878,8.878,0,0,1,.057,1.142q0,20.123,0,40.244v1.221h.97q29.973,0,59.948,0c3.4,0,5.793-1.751,6.545-4.793a8.148,8.148,0,0,0,.177-1.835c.023-1.677-.006-3.354.014-5.031.013-1.12.559-1.74,1.454-1.731.864.008,1.388.6,1.4,1.678.015,1.941.054,3.885-.025,5.823a9.049,9.049,0,0,1-8.813,8.737c-.265.01-.53.009-.795.009q-33.732,0-67.464.009a8.947,8.947,0,0,1-7.841-3.8A22.738,22.738,0,0,1,0,76.916V20.78c.046-.072.124-.14.134-.216a11.062,11.062,0,0,1,11.415-9.343c6.187.106,12.377.036,18.565,0a3.273,3.273,0,0,0,1.619-.492c2.175-1.35,4.31-2.765,6.461-4.154,1.206-.779,2.013-.758,2.545.061.52.8.2,1.562-1,2.34q-8.6,5.567-17.194,11.135c-.261.168-.51.353-.959.667h1.07c2.652,0,5.305.026,7.957-.022a3.266,3.266,0,0,0,1.625-.474q9.808-6.294,19.58-12.648c1.57-1.015,1.57-1.014.891-2.762a2.752,2.752,0,0,0-4.344-1.465c-1,.62-1.971,1.289-2.971,1.909a1.479,1.479,0,0,1-2.18-.312,1.429,1.429,0,0,1,.583-2.042c1.047-.711,2.1-1.423,3.189-2.06a5.592,5.592,0,0,1,8.387,2.933c.146.368.289.737.466,1.189C57.9,3.692,59.871,2.411,61.85,1.145c3.612-2.312,7.413-1.022,8.89,3.012.767,2.1,1.548,4.187,2.276,6.3a.972.972,0,0,0,1.108.809c1.8-.053,3.6-.047,5.392-.011a6.968,6.968,0,0,1,7.147,6.809c.154,3.906.063,7.822.067,11.734.006,5.677,0,11.354.017,17.031,0,.325.142.855.357.941a5.764,5.764,0,0,1,3.45,4.082ZM83.906,23.621H66.981a5.9,5.9,0,0,1-.883-.027,1.4,1.4,0,0,1-.128-2.755,4.146,4.146,0,0,1,.967-.056c2.229,0,4.458,0,6.779,0-.159-.464-.276-.822-.4-1.177q-2.6-7.164-5.209-14.326c-.918-2.529-2.607-3.094-4.877-1.626Q50.51,11.878,37.8,20.109c-.255.166-.5.354-.935.671h1.184q10.876,0,21.752,0a5.889,5.889,0,0,1,.882.029,1.36,1.36,0,0,1,1.236,1.463A1.327,1.327,0,0,1,60.632,23.6a7.658,7.658,0,0,1-.971.021H13.769c-.265,0-.531.009-.8-.005a1.4,1.4,0,0,1-1.5-1.4,1.382,1.382,0,0,1,1.469-1.428c.794-.036,1.6.054,2.385-.032a4.114,4.114,0,0,0,1.7-.51c2.915-1.834,5.793-3.725,8.682-5.6.206-.134.4-.293.754-.561-3,0-5.8-.016-8.588.005-2.65.02-5.313-.075-7.947.153A8.062,8.062,0,0,0,11.21,30.3q34.042.031,68.086.01c.206,0,.413,0,.618-.021a4.157,4.157,0,0,0,3.809-3.274,24.2,24.2,0,0,0,.183-3.4M70.95,62.74c4.656,0,9.312.008,13.968,0a2.468,2.468,0,0,0,2.787-2.768c.01-2.176,0-4.353,0-6.529,0-2.252-.882-3.125-3.161-3.125q-13.26,0-26.521,0c-.705,0-1.413.038-2.115.106a6.19,6.19,0,0,0,1.248,12.311c4.6.02,9.194.005,13.792.005m12.9-41.961c0-.934.03-1.754-.006-2.571A4.051,4.051,0,0,0,80.215,14.2c-1.889-.169-3.806-.036-5.836-.036.788,2.16,1.552,4.276,2.344,6.381.047.123.322.227.492.228,2.175.015,4.35.01,6.637.01" fill="#fff"/>
      <path id="Trazado_13557" data-name="Trazado 13557" d="M61.931,56.553a4.265,4.265,0,1,1-4.218-4.314,4.294,4.294,0,0,1,4.218,4.314m-2.855-.033a1.411,1.411,0,0,0-1.4-1.39,1.4,1.4,0,1,0,1.4,1.39" fill="#fff"/>
    </g>
  </g>
</svg>
