<svg xmlns="http://www.w3.org/2000/svg" xmlns:xlink="http://www.w3.org/1999/xlink" width="79.631" height="79.438" viewBox="0 0 79.631 79.438">
  <defs>
    <clipPath id="clip-path">
      <rect id="Rectángulo_489" data-name="Rectángulo 489" width="79.631" height="79.438" transform="translate(0 0)" fill="none"/>
    </clipPath>
  </defs>
  <g id="Grupo_2558" data-name="Grupo 2558" transform="translate(0 0)">
    <g id="Grupo_2557" data-name="Grupo 2557" clip-path="url(#clip-path)">
      <path id="Trazado_13546" data-name="Trazado 13546" d="M39.827,15.891c-.445,0-.775-.008-1.1,0a1.356,1.356,0,0,1-1-2.424q2.906-2.891,5.8-5.789c1.016-1.014,1.992-2.073,3.068-3.019a2.71,2.71,0,0,1,1.591-.655c3.366-.059,6.733-.029,10.214-.029,0-.834-.009-1.622,0-2.41C58.415.49,58.891.015,59.981.008q2.4-.017,4.807,0C65.867.016,66.34.5,66.354,1.584c.011.766,0,1.533,0,2.393A16.723,16.723,0,0,1,68.627,4a2.866,2.866,0,0,1,1.533.609c2.986,2.907,5.919,5.868,8.871,8.81a1.377,1.377,0,0,1-1.064,2.473c-.3-.014-.6,0-.96,0-.014.319-.037.585-.037.852,0,3.943.006,7.885-.012,11.828a1.026,1.026,0,0,0,.612,1.088,3.841,3.841,0,0,1,1.93,4.347,3.956,3.956,0,0,1-3.75,3.063c-.439.015-.879,0-1.408,0v7.9H71.708V37.132h-3.99V47.6H65.054V37.121H59.767v5.191H57.1V37.139H51.786v7.832H49.151V37.128h-3.99V47.6H42.5V37.072c-.521,0-.955.01-1.388,0a3.962,3.962,0,0,1-3.8-3,3.858,3.858,0,0,1,1.865-4.378,1.1,1.1,0,0,0,.666-1.142c-.022-3.943-.012-7.885-.012-11.828ZM58.435,29.072H74.249V15.935H58.435ZM52.318,6.624c2.156,2.15,4.133,4.151,6.155,6.107a1.924,1.924,0,0,0,1.206.491c4.836.034,9.672.022,14.507.022H75.1c-1.559-1.555-3.075-2.856-4.33-4.372-1.454-1.754-3.1-2.692-5.407-2.248a.384.384,0,0,1-.083,0c-1.082-.023-1.557-.492-1.571-1.575-.011-.787,0-1.574,0-2.354H61.051V4.618c0,1.647-.353,2.006-1.973,2.006h-6.76m6.13,27.8h16.58a4.054,4.054,0,0,0,.826-.029,1.312,1.312,0,0,0-.018-2.592,3.686,3.686,0,0,0-.744-.025H41.683a3.6,3.6,0,0,0-.743.028,1.312,1.312,0,0,0,.019,2.591,4.127,4.127,0,0,0,.826.027H58.448m-15.934-5.34h2.619v-.932c0-2.648,0-5.3,0-7.942,0-1.2.457-1.665,1.637-1.671q2.321-.012,4.642,0c1.227,0,1.674.462,1.676,1.716q.008,3.97,0,7.942v.868H55.7V15.945H42.514Zm-.562-15.914H54.781L48.368,6.766l-6.416,6.406m5.873,15.91h2.56V21.249h-2.56Z" fill="#fff"/>
      <path id="Trazado_13547" data-name="Trazado 13547" d="M53.005,60.9c5.751,0,11.442-.008,17.132.005a26.085,26.085,0,0,1,4.047.148,6.5,6.5,0,0,1,5.434,6.375c.056,2.431.034,2.476-2.357,3.014q-19.7,4.436-39.4,8.855a5.694,5.694,0,0,1-1.228.131q-17.364.011-34.73,0c-1.474,0-1.874-.395-1.874-1.851q0-10.755,0-21.509c0-1.363.421-1.791,1.767-1.792q6.05,0,12.1,0c1.589,0,1.908.315,1.968,1.934.006.134.022.268.044.537.26-.205.444-.338.613-.487a13.337,13.337,0,0,1,16.144-1.1,2.816,2.816,0,0,0,1.442.423c3.813.034,7.629.117,11.438-.01A7,7,0,0,1,53.005,60.9M15.946,76.743c.206.025.287.043.368.043q10.2,0,20.394,0a3.762,3.762,0,0,0,.815-.111Q52.461,73.317,67.4,69.953c3.171-.714,6.339-1.436,9.536-2.161.01-.2.034-.366.025-.525a3.985,3.985,0,0,0-4.112-3.712q-9.657-.015-19.315,0c-.187,0-.374.029-.546.044-1.259,3.725-3.39,5.25-7.3,5.25H37.226V66.2h.949c2.68,0,5.361.024,8.041-.017A5.212,5.212,0,0,0,48.14,65.8a3.949,3.949,0,0,0-1.621-7.536q-6.509-.037-13.015,0a3.152,3.152,0,0,1-1.986-.632,10.557,10.557,0,0,0-15.148,2.9,3.043,3.043,0,0,0-.446,1.533c-.02,4.6.008,9.211.022,13.817,0,.27,0,.54,0,.859M13.2,57H2.728V76.751H13.2Z" fill="#fff"/>
      <path id="Trazado_13548" data-name="Trazado 13548" d="M.08,10.613H2.66V23.992c1.295-1.237,2.569-2.429,3.8-3.662a1.293,1.293,0,0,0,.2-.833q.018-6.577.009-13.155V5.368H9.3V18.5l5.329-1.387V10.644h2.615V17.1l5.328,1.383V8.006h2.669V8.9c0,3.53.012,7.06-.013,10.59a1.327,1.327,0,0,0,.573,1.171c1.237.995,2.431,2.043,3.409,2.872V5.348h2.663v.763c0,8.963.017,17.925,0,26.888A15.906,15.906,0,0,1,15.292,48.978C7.2,48.736.223,41.914.074,33.835-.067,26.226.038,18.612.036,11c0-.105.023-.211.044-.388M2.687,33.058A13.262,13.262,0,1,0,15.87,19.864,13.266,13.266,0,0,0,2.687,33.058" fill="#fff"/>
      <rect id="Rectángulo_474" data-name="Rectángulo 474" width="2.56" height="2.569" transform="translate(0.087 0.052)" fill="#fff"/>
      <rect id="Rectángulo_475" data-name="Rectángulo 475" width="2.521" height="2.575" transform="translate(6.728 0.06)" fill="#fff"/>
      <rect id="Rectángulo_476" data-name="Rectángulo 476" width="2.56" height="2.54" transform="translate(29.255 0.066)" fill="#fff"/>
      <rect id="Rectángulo_477" data-name="Rectángulo 477" width="2.58" height="2.516" transform="translate(22.601 2.715)" fill="#fff"/>
      <rect id="Rectángulo_478" data-name="Rectángulo 478" width="2.55" height="2.551" transform="translate(0.073 5.341)" fill="#fff"/>
      <rect id="Rectángulo_479" data-name="Rectángulo 479" width="2.56" height="2.541" transform="translate(14.663 5.361)" fill="#fff"/>
      <rect id="Rectángulo_480" data-name="Rectángulo 480" width="2.544" height="2.575" transform="translate(57.119 45.056)" fill="#fff"/>
      <rect id="Rectángulo_481" data-name="Rectángulo 481" width="2.548" height="2.545" transform="translate(49.172 47.7)" fill="#fff"/>
      <rect id="Rectángulo_482" data-name="Rectángulo 482" width="2.556" height="2.545" transform="translate(71.704 47.728)" fill="#fff"/>
      <rect id="Rectángulo_483" data-name="Rectángulo 483" width="2.55" height="2.559" transform="translate(42.524 50.349)" fill="#fff"/>
      <rect id="Rectángulo_484" data-name="Rectángulo 484" width="2.521" height="2.575" transform="translate(65.093 50.368)" fill="#fff"/>
      <rect id="Rectángulo_485" data-name="Rectángulo 485" width="2.556" height="2.545" transform="translate(71.704 53.023)" fill="#fff"/>
      <path id="Trazado_13549" data-name="Trazado 13549" d="M66.323,26.482c-1.243,0-2.487.011-3.73,0a1.35,1.35,0,0,1-1.538-1.519q-.021-2.44,0-4.882a1.345,1.345,0,0,1,1.521-1.534q3.771-.02,7.543,0a1.348,1.348,0,0,1,1.54,1.518q.022,2.439,0,4.881a1.352,1.352,0,0,1-1.522,1.537c-1.271.015-2.542,0-3.813,0m-2.588-2.711h5.231V21.237H63.735Z" fill="#fff"/>
      <rect id="Rectángulo_486" data-name="Rectángulo 486" width="2.58" height="2.539" transform="translate(8.025 59.627)" fill="#fff"/>
      <rect id="Rectángulo_487" data-name="Rectángulo 487" width="2.54" height="2.575" transform="translate(5.403 31.809)" fill="#fff"/>
      <rect id="Rectángulo_488" data-name="Rectángulo 488" width="2.545" height="2.555" transform="translate(23.956 31.817)" fill="#fff"/>
      <path id="Trazado_13550" data-name="Trazado 13550" d="M14.036,27.677c0-.818,0-1.587,0-2.355,0-.37.244-.586.57-.512a.468.468,0,0,1,.369.525q0,1,0,2v.323h1.936v-.419c0-.629,0-1.258,0-1.887,0-.348.176-.549.463-.554s.475.2.477.564c0,.657,0,1.314,0,1.971v.323a2.9,2.9,0,0,1,1.992,4.99c.167.089.316.16.458.245a2.863,2.863,0,0,1-1.383,5.319c-.344.01-.689,0-1.067,0v1.412c0,.32,0,.639,0,.958a.464.464,0,0,1-.468.516.468.468,0,0,1-.47-.52c-.006-.7,0-1.408,0-2.112,0-.072-.012-.145-.019-.232H14.977v1.559c0,.262.005.525,0,.788a.471.471,0,0,1-.473.517.463.463,0,0,1-.465-.52c0-.768,0-1.537,0-2.358H12.713c-.685,0-1.369,0-2.054-.008a.434.434,0,0,1-.459-.433.439.439,0,0,1,.435-.487c.412-.021.826-.016,1.238-.009.178,0,.247-.046.247-.237q-.008-4.123-.005-8.249c0-.045-.008-.09-.017-.181h-.585c-.272,0-.545.008-.816,0a.46.46,0,0,1-.5-.49.447.447,0,0,1,.509-.442c.985,0,1.97,0,2.955,0h.372m-.955,5.751v3.846h1.572c1.425,0,2.851.023,4.276-.009A1.88,1.88,0,0,0,20.754,35.3a1.909,1.909,0,0,0-1.892-1.881c-1.866-.011-3.733,0-5.6,0-.055,0-.11.006-.182.011m-.01-.97c.062.007.1.015.135.015,1.584,0,3.169,0,4.753-.005a1.685,1.685,0,0,0,.5-.088,1.926,1.926,0,0,0,1.324-2.126,1.9,1.9,0,0,0-1.836-1.63c-1.087-.021-2.175-.006-3.262-.007H13.071Z" fill="#fff"/>
      <path id="Trazado_13551" data-name="Trazado 13551" d="M17.387,41.428h0a.8.8,0,0,1-.8-.849c0-.449,0-.9,0-1.347,0-.223,0-.445,0-.667H15.308v1.461c0,.188,0,.375,0,.562a.8.8,0,0,1-.8.84h0a.792.792,0,0,1-.8-.849c0-.545,0-1.09,0-1.654v-.374H12.2c-.517,0-1.033,0-1.549-.008a.792.792,0,0,1-.036-1.582c.392-.021.778-.018,1.169-.011q0-3.045,0-6.091V28.946h-.515c-.191,0-.388,0-.586-.005a.792.792,0,0,1-.814-.834.772.772,0,0,1,.839-.761c.709,0,1.418,0,2.127,0h.87v-.38c0-.56,0-1.1,0-1.645a.871.871,0,0,1,.307-.7.776.776,0,0,1,.668-.138.794.794,0,0,1,.627.848q0,.714,0,1.428v.563h1.273v-.637q0-.671,0-1.339a.8.8,0,0,1,.789-.884.76.76,0,0,1,.563.211.921.921,0,0,1,.251.684q0,.7,0,1.4v.6a3.211,3.211,0,0,1,2.18,5.188c.037.02.073.041.109.062a3.216,3.216,0,0,1,1.452,3.55,3.168,3.168,0,0,1-3,2.386c-.238.006-.476.005-.724,0h-.021v1.364c0,.226,0,.452,0,.677a.793.793,0,0,1-.8.843M14.645,37.9H17.2l.034.378a1.729,1.729,0,0,1,.013.185q0,.384,0,.768c0,.447,0,.894,0,1.341,0,.2.1.192.144.192s.128-.006.131-.19c0-.221,0-.443,0-.665V37.879h.332l.357,0c.24,0,.47,0,.7,0a2.513,2.513,0,0,0,2.374-1.891,2.551,2.551,0,0,0-1.152-2.813c-.09-.054-.183-.1-.282-.153l-.162-.084-.38-.2.294-.315a2.572,2.572,0,0,0-1.772-4.433l-.309-.021V26.757q0-.7,0-1.4a.319.319,0,0,0-.051-.212.134.134,0,0,0-.088-.022c-.054,0-.135,0-.137.225q0,.667,0,1.334v1.3h-2.6V26.762q0-.714,0-1.427c0-.177-.049-.188-.11-.2a.14.14,0,0,0-.11.01.244.244,0,0,0-.056.18c0,.542,0,1.083,0,1.642v1.044H12.834q-1.063,0-2.124,0c-.175,0-.177.063-.179.122s-.005.14.179.148.368.006.552,0H12.4l.037.376a1.074,1.074,0,0,1,.01.137v2.062q0,3.093,0,6.186a.585.585,0,0,1-.152.425.573.573,0,0,1-.432.144c-.411-.007-.814-.012-1.215.009-.066,0-.126.023-.121.14,0,.073.026.115.132.117.513.007,1.027.007,1.54.008h2.164v1.039c0,.562,0,1.106,0,1.649,0,.194.088.19.137.19s.133,0,.138-.194,0-.361,0-.541Zm2.516-.288c-.413,0-.824,0-1.229,0l-1.279,0h-1.9v-4.49l.374-.023c.05,0,.1-.007.139-.007h1.563c1.346,0,2.692,0,4.039,0a2.237,2.237,0,0,1,2.221,2.2,2.266,2.266,0,0,1-.622,1.633,2.163,2.163,0,0,1-1.527.67c-.59.013-1.185.017-1.775.017M14.7,36.942q.618,0,1.235,0c.98,0,1.993.009,2.986-.013a1.5,1.5,0,0,0,1.062-.465,1.609,1.609,0,0,0,.439-1.159,1.576,1.576,0,0,0-1.562-1.558c-1.345-.007-2.69-.006-4.034,0H13.412v3.194H14.7Zm.436-4.137H13.2a1.009,1.009,0,0,1-.123-.01l-.343-.041V28.285h1.94c.329,0,.654,0,.98,0,.75,0,1.525-.006,2.289.009a2.22,2.22,0,0,1,2.158,1.921A2.254,2.254,0,0,1,18.552,32.7a2.008,2.008,0,0,1-.592.1q-1.411.006-2.824.005M13.4,32.141h.64q1.958,0,3.915,0a1.345,1.345,0,0,0,.4-.073A1.6,1.6,0,0,0,19.448,30.3a1.573,1.573,0,0,0-1.513-1.341c-.756-.015-1.527-.012-2.273-.009-.328,0-.655,0-.983,0H13.4Z" fill="#fff"/>
    </g>
  </g>
</svg>
