<svg xmlns="http://www.w3.org/2000/svg" xmlns:xlink="http://www.w3.org/1999/xlink" width="106.696" height="106.733" viewBox="0 0 106.696 106.733">
  <defs>
    <linearGradient id="linear-gradient" x1="0.146" y1="0.147" x2="0.853" y2="0.854" gradientUnits="objectBoundingBox">
      <stop offset="0.279" stop-color="#ffc72c"/>
      <stop offset="0.531" stop-color="#f5b922"/>
      <stop offset="0.997" stop-color="#dc970b"/>
      <stop offset="1" stop-color="#dc970b"/>
    </linearGradient>
  </defs>
  <g id="Grupo_2104" data-name="Grupo 2104" transform="translate(-6443.936 -2427.236)">
    <path id="Trazado_9201" data-name="Trazado 9201" d="M6497.267,2427.236a53.367,53.367,0,1,1-53.331,53.736A53.447,53.447,0,0,1,6497.267,2427.236Z" fill="url(#linear-gradient)"/>
    <g id="Grupo_2103" data-name="Grupo 2103">
      <path id="Trazado_9202" data-name="Trazado 9202" d="M6521.571,2513.861h-22a1.606,1.606,0,0,1-.982-1.7c.014-3.628.006-7.257.006-10.885v-.755h-4.547c0,1.944-.013,3.84.007,5.736a2.127,2.127,0,0,1-.681,1.67c-.947.908-1.852,1.859-2.789,2.778-1.079,1.06-2.174,2.1-3.262,3.157h-22.121a1.788,1.788,0,0,1-.886-1.773q.03-10.231,0-20.462a2.038,2.038,0,0,1,.636-1.559q2.667-2.638,5.3-5.311a2.162,2.162,0,0,1,1.667-.68c2.519.017,5.039.008,7.558.006.219,0,.438-.021.655-.033v-4.522h-.787q-6.651,0-13.3,0c-1.291,0-1.715-.431-1.715-1.733q0-10.293-.007-20.587a1.891,1.891,0,0,1,.591-1.446c1.675-1.656,3.327-3.333,5-4.991.365-.363.776-.681,1.165-1.019H6493.2a1.859,1.859,0,0,1,.854,1.854q-.011,5.443,0,10.885v.738h4.547v-.711c0-1.731.014-3.462-.007-5.192a2.072,2.072,0,0,1,.654-1.614c1.768-1.737,3.5-3.507,5.266-5.251a8.347,8.347,0,0,1,.937-.709h22.871v22.914a9.753,9.753,0,0,1-.752.984q-2.035,2.076-4.1,4.119c-2.134,2.1-1.217,1.724-4.2,1.759-.806.009-1.612,0-2.451,0v4.556h.763c3.04,0,6.08.009,9.12-.006a1.541,1.541,0,0,1,1.629.984V2507.1c-.336.389-.652.8-1.013,1.163q-2.21,2.239-4.445,4.454C6522.454,2513.12,6522,2513.48,6521.571,2513.861Zm-35.929-36.873V2458.17h-18.778v18.818Zm34.292,15.516h-18.8v18.806h18.8Zm-18.794-34.352v18.837h18.769V2458.17h-3.135v.71q0,3.473,0,6.945a4.054,4.054,0,0,1-.07.807,1.173,1.173,0,0,1-1.393.93c-.681-.118-1.027-.591-1.031-1.477-.009-2.4,0-4.8,0-7.2v-.738Zm-20.957,53.183v-.746q0-5.132,0-10.262a4.724,4.724,0,0,1,.034-.749,1.2,1.2,0,0,1,1.119-1,1.168,1.168,0,0,1,1.253.9,3.663,3.663,0,0,1,.089.865q.009,5.131,0,10.262v.719h2.955V2492.5h-18.759v18.832Zm18.416-13.4c0-2.141.011-4.225-.006-6.309a2.025,2.025,0,0,1,.643-1.556q2.673-2.634,5.3-5.311a2.162,2.162,0,0,1,1.667-.68c2.457.018,4.913.008,7.37.006.219,0,.437-.022.651-.034v-4.521h-13.846c-1.359,0-1.778-.426-1.778-1.8q0-5.6,0-11.2v-.71h-4.547c0,2.062-.012,4.082.007,6.1a2.161,2.161,0,0,1-.682,1.669c-1.739,1.709-3.467,3.43-5.164,5.18a2.308,2.308,0,0,1-1.875.777c-1.2-.045-2.4-.012-3.621-.012v4.556h.7q4.529,0,9.057,0c1.064,0,1.477.391,1.562,1.438.02.249.014.5.014.751q0,5.444,0,10.888v.769Zm-8.813-45.678h-.834q-6.561,0-13.123,0c-1.289,0-2.578.024-3.867.037q-1.378,1.362-2.755,2.725c-.166.166-.321.343-.5.537a.919.919,0,0,0,.194.068q8.594,0,17.185,0a.7.7,0,0,0,.452-.138C6487.587,2454.458,6488.623,2453.415,6489.786,2452.254Zm34.178.073a1.051,1.051,0,0,0-.206-.068q-8.592,0-17.184,0a.7.7,0,0,0-.453.131c-1.052,1.028-2.087,2.073-3.214,3.2.209.022.283.036.358.036q8.529,0,17.058-.007a.856.856,0,0,0,.549-.2C6521.9,2454.413,6522.906,2453.39,6523.964,2452.327Zm1.856,1.694c-1.084,1.089-2.056,2.033-2.981,3.021a1.475,1.475,0,0,0-.37.915c-.022,5.53-.016,11.06-.016,16.59v.721c1.068-1.079,1.991-2.033,2.941-2.957a1.3,1.3,0,0,0,.436-1.032q-.023-8.232-.01-16.465Zm0,34.348c-1.088,1.091-2.07,2.046-3.009,3.042a1.378,1.378,0,0,0-.344.859c-.02,5.544-.015,11.088-.013,16.632,0,.175.023.35.043.633,1.018-1.017,1.946-1.966,2.9-2.886a1.3,1.3,0,0,0,.431-1.034q-.021-8.128-.01-16.257Zm-34.323-25.143v-9.159c-1.029,1.031-1.987,1.955-2.893,2.928a1.56,1.56,0,0,0-.4.963c-.024,5.5-.017,11.007-.016,16.511,0,.2.017.4.033.744,1.058-1.064,2.035-2.018,2.969-3.012a1.407,1.407,0,0,0,.345-.862c.033-1.646.016-3.293.016-4.94v-.584c-1.538-.144-2.074-.507-2.055-1.331C6489.516,2463.678,6490.026,2463.35,6491.5,2463.226Zm.027,25.219c-.211.188-.351.3-.477.426-.826.823-1.668,1.631-2.461,2.486a1.485,1.485,0,0,0-.382.908c-.022,5.545-.016,11.091-.014,16.636,0,.174.025.347.045.607,1.1-1.1,2.135-2.115,3.147-3.157a.893.893,0,0,0,.163-.568c.012-1.6.008-3.21,0-4.815a3.71,3.71,0,0,0-.052-.459c-1.464-.122-1.951-.405-1.976-1.2-.009-.27.064-.683.244-.793a14.246,14.246,0,0,1,1.759-.795Zm22.5-1.857c-1.975,0-4.1.069-6.216-.028a2.987,2.987,0,0,0-2.7,1.132,29.524,29.524,0,0,1-2.139,2.128l.09.138h.671c5.246,0,10.492-.021,15.737.022a2.479,2.479,0,0,0,2.109-.879c.729-.839,1.565-1.586,2.44-2.458h-7.193c-.218,1.778-.482,2.251-1.291,2.228-.271-.007-.685-.1-.778-.289A17.562,17.562,0,0,1,6514.027,2486.588Zm-24.3.048h-7.047c0,.378.024.712,0,1.042a1.247,1.247,0,1,1-2.488-.081c-.01-.323,0-.646,0-1.009-1.77,0-3.433,0-5.1,0a8.694,8.694,0,0,0-3.082.118c-.873.356-1.488,1.349-2.212,2.067-.359.356-.708.722-1.1,1.126a1.976,1.976,0,0,0,.272.054q8.553,0,17.106,0a.711.711,0,0,0,.458-.123C6487.577,2488.8,6488.609,2487.755,6489.724,2486.636Z" fill="#fff"/>
      <path id="Trazado_9203" data-name="Trazado 9203" d="M6514.287,2471.152a1.205,1.205,0,0,1,1.245-1.2,1.224,1.224,0,0,1,1.226,1.234,1.238,1.238,0,0,1-1.287,1.238A1.215,1.215,0,0,1,6514.287,2471.152Z" fill="#fff"/>
      <path id="Trazado_9204" data-name="Trazado 9204" d="M6481.387,2496.217a1.233,1.233,0,0,1,.039-2.466,1.234,1.234,0,1,1-.039,2.466Z" fill="#fff"/>
    </g>
  </g>
</svg>
