<svg xmlns="http://www.w3.org/2000/svg" xmlns:xlink="http://www.w3.org/1999/xlink" width="104.998" height="105.004" viewBox="0 0 104.998 105.004">
  <defs>
    <linearGradient id="linear-gradient" y1="0.5" x2="1" y2="0.5" gradientUnits="objectBoundingBox">
      <stop offset="0.279" stop-color="#ffc72c"/>
      <stop offset="0.531" stop-color="#f5b922"/>
      <stop offset="0.997" stop-color="#dc970b"/>
      <stop offset="1" stop-color="#dc970b"/>
    </linearGradient>
  </defs>
  <g id="Grupo_2102" data-name="Grupo 2102" transform="translate(-7059.566 -2428.965)">
    <g id="Grupo_2101" data-name="Grupo 2101">
      <path id="Trazado_9195" data-name="Trazado 9195" d="M7059.566,2481.408c-.038-28.679,23.429-52.371,51.945-52.443a52.5,52.5,0,1,1-51.945,52.443Z" fill="url(#linear-gradient)"/>
      <path id="Trazado_9196" data-name="Trazado 9196" d="M7122.341,2498.427l-8.114-8.12a25.131,25.131,0,0,1-21.343,3.258,23.486,23.486,0,0,1-13.418-10c-7.02-10.649-5.516-23.832,3.624-32.414a25.1,25.1,0,0,1,37.84,32.471l7.949,7.938a.305.305,0,0,0,.134-.061c2.221-2.1,2.221-2.1,4.364.044q6.661,6.66,13.321,13.321c3.206,3.215,3.188,7.028-.029,10.263-.516.519-1.02,1.053-1.562,1.543a6.508,6.508,0,0,1-9.176-.12c-4.964-4.9-9.864-9.859-14.81-14.774a1.44,1.44,0,0,1-.033-2.3A14.114,14.114,0,0,1,7122.341,2498.427Zm-22.074-51.331c-12.359-.165-22.313,9.8-22.524,22.543-.2,11.948,9.774,22.078,21.9,22.252,12.438.179,22.666-9.5,22.866-21.635A22.442,22.442,0,0,0,7100.267,2447.1Zm27.756,57.882q4.625,4.605,9.252,9.213c.191.19.377.386.578.566a3.91,3.91,0,0,0,5.355.057c.638-.555,1.222-1.174,1.814-1.78a3.989,3.989,0,0,0,0-6.111q-4.438-4.472-8.908-8.911c-.209-.209-.437-.4-.592-.54Zm-3.77-8.8,2.466-2.426-7.52-7.535-2.489,2.406Zm-.372,4.4,2.12,2.126,7.205-7.18-1.944-2.34Z" fill="#fff"/>
      <path id="Trazado_9197" data-name="Trazado 9197" d="M7100.256,2448.751a20.746,20.746,0,1,1-20.859,20.878C7079.592,2457.824,7088.811,2448.6,7100.256,2448.751Zm-18.246,20.666a18.118,18.118,0,1,0,36.234.023,17.993,17.993,0,0,0-17.593-18C7090.253,2451.354,7082.077,2459.241,7082.01,2469.417Z" fill="#fff"/>
      <path id="Trazado_9198" data-name="Trazado 9198" d="M7080.565,2469.411c.072-10.987,8.9-19.5,20.128-19.416a19.559,19.559,0,0,1-.795,39.108A19.682,19.682,0,0,1,7080.565,2469.411Zm19.678,17.042a16.935,16.935,0,1,0-17.064-17.224A16.895,16.895,0,0,0,7100.243,2486.453Z" fill="url(#linear-gradient)"/>
      <path id="Trazado_9199" data-name="Trazado 9199" d="M7100.243,2486.453a16.934,16.934,0,1,1,16.83-16.725A16.961,16.961,0,0,1,7100.243,2486.453Zm-3-13.013c-1.525-1.546-2.963-2.989-4.383-4.45-.657-.675-1.352-1.09-2.2-.356-.638.554-.51,1.378.306,2.2q2.4,2.418,4.822,4.822c1.259,1.256,1.7,1.261,2.948.015q5.194-5.186,10.379-10.38c.244-.244.619-.5.653-.779.061-.516.1-1.283-.2-1.53a2.277,2.277,0,0,0-1.627-.167c-.316.053-.573.484-.845.756C7103.86,2466.811,7100.622,2470.055,7097.241,2473.44Z" fill="#fff"/>
      <path id="Trazado_9200" data-name="Trazado 9200" d="M7097.241,2473.44c3.381-3.385,6.619-6.629,9.859-9.87.272-.272.529-.7.845-.756a2.277,2.277,0,0,1,1.627.167c.3.247.257,1.014.2,1.53-.034.282-.409.535-.653.779q-5.186,5.194-10.379,10.38c-1.247,1.246-1.689,1.241-2.948-.015q-2.415-2.409-4.822-4.822c-.816-.821-.944-1.645-.306-2.2.846-.734,1.541-.319,2.2.356C7094.278,2470.451,7095.716,2471.894,7097.241,2473.44Z" fill="url(#linear-gradient)"/>
    </g>
  </g>
</svg>
