<svg xmlns="http://www.w3.org/2000/svg" width="39.626" height="39.626" viewBox="0 0 39.626 39.626">
  <g id="Grupo_2422" data-name="Grupo 2422" transform="translate(-1044.679 -7226.747)">
    <g id="Grupo_2421" data-name="Grupo 2421">
      <path id="Trazado_12262" data-name="Trazado 12262" d="M1074.983,7233.822a2.323,2.323,0,1,0,2.323,2.323A2.323,2.323,0,0,0,1074.983,7233.822Z" fill="#fff"/>
      <path id="Trazado_12263" data-name="Trazado 12263" d="M1064.655,7236.8a9.759,9.759,0,1,0,9.758,9.759A9.771,9.771,0,0,0,1064.655,7236.8Zm0,16.01a6.251,6.251,0,1,1,6.251-6.251A6.258,6.258,0,0,1,1064.655,7252.811Z" fill="#fff"/>
      <path id="Trazado_12264" data-name="Trazado 12264" d="M1072.4,7266.373h-15.82a11.917,11.917,0,0,1-11.9-11.9v-15.821a11.916,11.916,0,0,1,11.9-11.9h15.82a11.916,11.916,0,0,1,11.9,11.9v15.821A11.917,11.917,0,0,1,1072.4,7266.373Zm-15.82-35.9a8.183,8.183,0,0,0-8.175,8.174v15.821a8.184,8.184,0,0,0,8.175,8.175h15.82a8.184,8.184,0,0,0,8.175-8.175v-15.821a8.183,8.183,0,0,0-8.175-8.174Z" fill="#fff"/>
    </g>
  </g>
</svg>
