<svg xmlns="http://www.w3.org/2000/svg" width="32.971" height="32.894" viewBox="0 0 32.971 32.894">
  <g id="Grupo_2426" data-name="Grupo 2426" transform="translate(-980.22 -7230.817)">
    <path id="Trazado_12266" data-name="Trazado 12266" d="M980.764,7241.737H987.6v21.974h-6.841Zm3.422-10.92a3.96,3.96,0,1,1-3.966,3.957,3.961,3.961,0,0,1,3.966-3.957" fill="#fff"/>
    <path id="Trazado_12267" data-name="Trazado 12267" d="M991.891,7241.737h6.552v3.005h.089a7.183,7.183,0,0,1,6.468-3.549c6.916,0,8.191,4.548,8.191,10.466v12.052h-6.826v-10.683c0-2.551-.049-5.828-3.55-5.828-3.555,0-4.1,2.776-4.1,5.642v10.869h-6.827Z" fill="#fff"/>
  </g>
</svg>
