<svg xmlns="http://www.w3.org/2000/svg" width="235.902" height="72.889" viewBox="0 0 235.902 72.889">
  <g id="Grupo_2459" data-name="Grupo 2459" transform="translate(-136.098 -39.029)">
    <g id="Grupo_2458" data-name="Grupo 2458">
      <path id="Trazado_12747" data-name="Trazado 12747" d="M136.1,39.029h31.061v6.246H143.543V64.442h21.819V70.6H143.543V96.7H136.1Z" fill="#fff"/>
      <path id="Trazado_12748" data-name="Trazado 12748" d="M197.791,39.029V96.7h-7.444V39.029Z" fill="#fff"/>
      <path id="Trazado_12749" data-name="Trazado 12749" d="M234.327,45.361H216.786V39.029h42.7v6.332H241.857V96.7h-7.53Z" fill="#fff"/>
      <path id="Trazado_12750" data-name="Trazado 12750" d="M339.912,39.029h7.445V90.454H372V96.7H339.912Z" fill="#fff"/>
    </g>
    <path id="Trazado_12751" data-name="Trazado 12751" d="M297.753,41.454h-8.472l23.137,55.239H320.1l0,.007" fill="#fff"/>
    <path id="Trazado_12752" data-name="Trazado 12752" d="M286.825,52.308,272.6,83.424l1.315,14.2Z" fill="#fff"/>
    <path id="Trazado_12753" data-name="Trazado 12753" d="M281.425,106.46l6.107-46.72-9.5,32.869" fill="#fff"/>
    <path id="Trazado_12754" data-name="Trazado 12754" d="M290.864,111.918,290.4,64.8l-4.821,33.872" fill="#fff"/>
  </g>
</svg>
