<svg xmlns="http://www.w3.org/2000/svg" xmlns:xlink="http://www.w3.org/1999/xlink" width="142.142" height="142.15" viewBox="0 0 142.142 142.15">
  <defs>
    <linearGradient id="linear-gradient" y1="0.5" x2="1" y2="0.5" gradientUnits="objectBoundingBox">
      <stop offset="0.279" stop-color="#ffc72c"/>
      <stop offset="0.531" stop-color="#f5b922"/>
      <stop offset="0.997" stop-color="#dc970b"/>
      <stop offset="1" stop-color="#dc970b"/>
    </linearGradient>
  </defs>
  <g id="Grupo_2037" data-name="Grupo 2037" transform="translate(-8526.326 -4084.133)">
    <g id="Grupo_2036" data-name="Grupo 2036">
      <path id="Trazado_7899" data-name="Trazado 7899" d="M8526.326,4155.129c-.051-38.825,31.718-70.9,70.321-71,39.82-.1,71.776,31.447,71.82,70.905a71.071,71.071,0,1,1-142.142.091Z" fill="url(#linear-gradient)"/>
      <path id="Trazado_7900" data-name="Trazado 7900" d="M8611.308,4178.168l-10.984-10.992c-8.915,5.725-18.584,7.371-28.893,4.411a31.8,31.8,0,0,1-18.165-13.536c-9.5-14.418-7.467-32.264,4.906-43.881a33.975,33.975,0,0,1,51.228,43.957l10.761,10.746a.386.386,0,0,0,.18-.082c3.007-2.841,3.007-2.841,5.908.06q9.018,9.016,18.034,18.033c4.339,4.352,4.315,9.513-.039,13.894-.7.7-1.381,1.424-2.115,2.088a8.812,8.812,0,0,1-12.423-.162c-6.719-6.63-13.354-13.347-20.049-20a1.951,1.951,0,0,1-.044-3.118A19.32,19.32,0,0,1,8611.308,4178.168Zm-29.883-69.489c-16.729-.224-30.205,13.263-30.491,30.518-.269,16.174,13.231,29.888,29.654,30.124,16.838.241,30.685-12.859,30.955-29.29C8611.829,4122.707,8598.574,4108.908,8581.425,4108.679ZM8619,4187.037q6.259,6.234,12.524,12.471c.259.258.511.524.781.767a5.294,5.294,0,0,0,7.25.078c.864-.752,1.655-1.59,2.456-2.411,2.564-2.629,2.576-5.676,0-8.273q-6.009-6.053-12.06-12.063c-.283-.282-.591-.54-.8-.731Zm-5.1-11.912c1.116-1.1,2.331-2.295,3.338-3.284-3.5-3.5-6.963-6.978-10.181-10.2l-3.37,3.257C8607.022,4168.239,8610.467,4171.689,8613.9,4175.125Zm-.5,5.96,2.869,2.879c3.33-3.318,6.665-6.64,9.755-9.72l-2.632-3.168Z" fill="#fff"/>
      <path id="Trazado_7901" data-name="Trazado 7901" d="M8581.411,4110.919a28.136,28.136,0,0,1,27.894,29.036c-.252,15.217-13.074,27.35-28.669,27.126-15.21-.218-27.712-12.919-27.464-27.9C8553.437,4123.2,8565.917,4110.711,8581.411,4110.919Zm-24.7,27.977a24.526,24.526,0,1,0,49.052.032,24.36,24.36,0,0,0-23.816-24.375C8567.869,4114.443,8556.8,4125.121,8556.71,4138.9Z" fill="#fff"/>
      <path id="Trazado_7902" data-name="Trazado 7902" d="M8554.754,4138.888c.1-14.874,12.049-26.4,27.248-26.284,14.1.11,25.809,12.1,25.716,26.318a26.482,26.482,0,1,1-52.964-.034Zm26.638,23.07c12.3.161,22.557-10.032,22.785-22.641a22.945,22.945,0,0,0-45.885-.676C8558.109,4151.532,8568.268,4161.787,8581.392,4161.958Z" fill="url(#linear-gradient)"/>
      <path id="Trazado_7903" data-name="Trazado 7903" d="M8581.392,4161.958c-13.124-.171-23.282-10.426-23.1-23.317a22.945,22.945,0,0,1,45.885.676C8603.948,4151.926,8593.691,4162.119,8581.392,4161.958Zm-4.062-17.616c-2.065-2.093-4.012-4.047-5.935-6.024-.89-.914-1.829-1.476-2.975-.483-.864.751-.689,1.866.414,2.977q3.253,3.275,6.528,6.528c1.7,1.7,2.3,1.707,3.99.021q7.031-7.02,14.051-14.052c.33-.33.839-.672.884-1.054.083-.7.137-1.738-.265-2.072a3.089,3.089,0,0,0-2.2-.226c-.428.072-.775.655-1.144,1.023C8586.289,4135.368,8581.906,4139.759,8577.329,4144.342Z" fill="#fff"/>
      <path id="Trazado_7904" data-name="Trazado 7904" d="M8577.329,4144.342c4.577-4.583,8.96-8.974,13.347-13.362.368-.368.716-.951,1.144-1.023a3.089,3.089,0,0,1,2.2.226c.4.334.348,1.373.265,2.072-.045.382-.554.724-.884,1.054q-7.021,7.032-14.051,14.052c-1.688,1.686-2.286,1.68-3.99-.021q-3.27-3.259-6.528-6.528c-1.1-1.111-1.278-2.226-.414-2.977,1.146-.993,2.085-.431,2.975.483C8573.317,4140.295,8575.264,4142.249,8577.329,4144.342Z" fill="url(#linear-gradient)"/>
    </g>
  </g>
</svg>
