<svg xmlns="http://www.w3.org/2000/svg" width="105.766" height="139.745" viewBox="0 0 105.766 139.745">
  <g id="Grupo_2024" data-name="Grupo 2024" transform="translate(-9236.548 -1502.255)">
    <path id="Trazado_7842" data-name="Trazado 7842" d="M9289.392,1595.184c-.748,0-1.5.019-2.244,0a5.879,5.879,0,0,1-6.062-6.144,2.4,2.4,0,0,0-1.229-2.362,5.511,5.511,0,0,1-2.561-5.28,1.94,1.94,0,0,0-1.028-2.031,5.608,5.608,0,0,1-2.668-5.231,36.687,36.687,0,0,0-2.206-14.45,44.16,44.16,0,0,0-3.532-6.985c-8.718-13.98-.5-34.523,18.285-37.2,14.877-2.121,28.3,9.751,28.258,24.852a21.716,21.716,0,0,1-3.289,11.995,36.649,36.649,0,0,0-5.855,21.557,6.184,6.184,0,0,1-3.053,5.78,1.638,1.638,0,0,0-.621,1.221c.067,2.755-.855,4.927-3.352,6.317a1.241,1.241,0,0,0-.449.886c-.441,5.479-2.175,7.087-7.692,7.088h-.7Zm1.685-51.776c0-1.095-.031-2.074,0-3.049a7.547,7.547,0,1,1,7.474,7.62c-.961.016-1.924,0-2.9,0v20.431h5.235c.131-1,.249-1.923.374-2.847a37.892,37.892,0,0,1,5.812-15.19,18.78,18.78,0,0,0,2.718-12.355,20.507,20.507,0,0,0-40.878,1.834,18.859,18.859,0,0,0,2.855,10.533,38.023,38.023,0,0,1,5.381,12.85c.326,1.726.575,3.466.855,5.17h5.11v-20.434c-1.124,0-2.147.031-3.168-.005a7.537,7.537,0,1,1,7.756-7.826c.04,1.063.006,2.128.006,3.265Zm-3.252,4.626v20.377h3.147v-20.377Zm12.795,25.068h-22.413c-.245,2.414.085,2.81,2.3,2.812q8.9.008,17.8,0C9300.5,1575.913,9300.924,1575.416,9300.619,1573.1Zm-3.743,7.444h-15.02c-.171,2.383.176,2.766,2.405,2.767q5.188,0,10.378,0C9296.816,1583.311,9297.24,1582.8,9296.876,1580.546Zm-1.262-37.072c1.16,0,2.138.047,3.108-.011a3.042,3.042,0,0,0,2.941-2.971,3.081,3.081,0,0,0-2.859-3.055,2.992,2.992,0,0,0-3.17,2.708A32.292,32.292,0,0,0,9295.614,1543.474Zm-12.409-.009c0-1.149.039-2.127-.009-3.1a2.99,2.99,0,0,0-5.978-.045,2.949,2.949,0,0,0,2.751,3.131C9280.983,1543.534,9282.009,1543.465,9283.205,1543.465Zm2.537,44.417c-.373,2.267.044,2.79,2.176,2.8q1.537.006,3.071,0c2.088-.012,2.552-.629,2.084-2.8Z" fill="#524092"/>
    <path id="Trazado_7843" data-name="Trazado 7843" d="M9284.135,1637.487c3.3,0,6.57.026,9.838-.038a1.5,1.5,0,0,0,1.031-.824c.786-1.846,1.5-3.722,2.192-5.607a2.971,2.971,0,0,1,2.294-2,38.725,38.725,0,0,0,10.959-4.542,3.062,3.062,0,0,1,3.17-.2c1.771.837,3.6,1.554,5.369,2.4a1.158,1.158,0,0,0,1.57-.294c2.024-2.076,4.117-4.085,6.109-6.19a1.754,1.754,0,0,0,.257-1.523c-.729-1.868-1.576-3.692-2.415-5.515a2.757,2.757,0,0,1,.146-2.789,40.347,40.347,0,0,0,4.7-11.342,2.883,2.883,0,0,1,1.99-2.145c1.8-.662,3.565-1.4,5.369-2.032a1.35,1.35,0,0,0,1.092-1.5c-.055-2.852.019-5.706-.062-8.556a1.774,1.774,0,0,0-.887-1.287c-1.792-.79-3.636-1.469-5.48-2.131a2.965,2.965,0,0,1-2.058-2.257,39.013,39.013,0,0,0-4.646-11.213,2.846,2.846,0,0,1-.13-2.916c.813-1.732,1.527-3.512,2.36-5.234a1.428,1.428,0,0,0-.349-1.936c-2.452-2.373-4.847-4.808-7.257-7.225-1.347-1.351-1.531-2.639-.542-3.66s2.352-.884,3.664.422c2.951,2.936,5.873,5.9,8.841,8.818a2.67,2.67,0,0,1,.641,3.4c-.882,1.854-1.73,3.73-2.472,5.644a2.851,2.851,0,0,0,.04,1.893c1.2,3.08,2.541,6.108,3.734,9.193a2.2,2.2,0,0,0,1.446,1.491c1.937.68,3.829,1.487,5.76,2.189a2.638,2.638,0,0,1,1.9,2.77q-.026,6.383,0,12.766a2.623,2.623,0,0,1-1.939,2.738c-1.979.7-3.948,1.443-5.872,2.281a2.659,2.659,0,0,0-1.206,1.318q-2,4.616-3.85,9.3a2.64,2.64,0,0,0-.052,1.768c.79,1.995,1.694,3.946,2.587,5.9a2.476,2.476,0,0,1-.555,3.061q-4.625,4.6-9.224,9.227a2.5,2.5,0,0,1-3.069.545c-1.916-.861-3.82-1.758-5.775-2.518a2.882,2.882,0,0,0-1.922.019c-3.169,1.232-6.31,2.539-9.436,3.878a2.257,2.257,0,0,0-1.113,1.061c-.833,1.978-1.58,3.993-2.329,6.005a2.638,2.638,0,0,1-2.766,1.9q-6.384-.051-12.768,0a2.593,2.593,0,0,1-2.735-1.923c-.706-1.978-1.447-3.947-2.288-5.87a2.675,2.675,0,0,0-1.32-1.2q-4.614-2.008-9.293-3.864a2.67,2.67,0,0,0-1.791-.044c-1.954.765-3.863,1.647-5.775,2.518a2.629,2.629,0,0,1-3.295-.612q-4.474-4.554-9.026-9.028a2.594,2.594,0,0,1-.58-3.291c.892-1.9,1.766-3.816,2.534-5.77a2.678,2.678,0,0,0-.066-1.788q-1.849-4.678-3.855-9.293a2.674,2.674,0,0,0-1.232-1.3c-1.97-.85-3.992-1.58-6-2.334a2.452,2.452,0,0,1-1.748-2.562q.042-6.522,0-13.046a2.462,2.462,0,0,1,1.759-2.557c2.01-.76,4.033-1.487,6-2.337a2.662,2.662,0,0,0,1.223-1.3q2.005-4.614,3.854-9.294a2.675,2.675,0,0,0,.07-1.789c-.769-1.954-1.641-3.868-2.535-5.769a2.592,2.592,0,0,1,.574-3.291c3.032-2.986,6.019-6.017,9.037-9.018,1.171-1.164,2.5-1.292,3.463-.382,1.037.975.959,2.312-.276,3.561-2.465,2.495-4.935,4.986-7.452,7.428a1.382,1.382,0,0,0-.331,1.915c.839,1.667,1.519,3.412,2.307,5.1a3.118,3.118,0,0,1-.161,3.181,39.05,39.05,0,0,0-4.583,11.09,2.9,2.9,0,0,1-1.939,2.2c-1.839.679-3.654,1.421-5.5,2.085a1.257,1.257,0,0,0-1.021,1.393c.058,2.9.05,5.8,0,8.7a1.182,1.182,0,0,0,.943,1.3,56.07,56.07,0,0,1,5.6,2.2,3.768,3.768,0,0,1,1.831,2.049,44.243,44.243,0,0,0,4.7,11.2,3.007,3.007,0,0,1,.143,3.056c-.827,1.778-1.582,3.589-2.418,5.363a1.168,1.168,0,0,0,.27,1.574c2.083,2.016,4.088,4.113,6.192,6.1a1.762,1.762,0,0,0,1.525.278c1.828-.7,3.619-1.508,5.391-2.348a2.976,2.976,0,0,1,3.053.13,39.7,39.7,0,0,0,11.215,4.644,2.881,2.881,0,0,1,2.157,1.972C9282.442,1633.159,9283.284,1635.282,9284.135,1637.487Z" fill="#524092"/>
    <path id="Trazado_7844" data-name="Trazado 7844" d="M9256.677,1588.135a31.932,31.932,0,0,1,8.378-20.921c.813-.92,1.712-1.474,2.95-.971,1.536.625,1.8,2.409.535,3.829a28.578,28.578,0,0,0-6.2,11.015,28.231,28.231,0,1,0,54.838,13.082c1.589-8.928-.717-16.831-6.56-23.741a4.824,4.824,0,0,1-1.066-1.9,1.924,1.924,0,0,1,1.242-2.264,2.188,2.188,0,0,1,2.669.613,32.065,32.065,0,0,1,6.455,10.26,32.741,32.741,0,0,1-26.212,44.423C9274.095,1624.2,9256.7,1608.943,9256.677,1588.135Z" fill="#524092"/>
    <path id="Trazado_7845" data-name="Trazado 7845" d="M9311.724,1509.42a16.237,16.237,0,0,1-.683,1.766q-1.15,2.083-2.375,4.125a2.313,2.313,0,0,1-3.193,1.084,2.272,2.272,0,0,1-.724-3.275c.833-1.512,1.694-3.01,2.6-4.479a1.93,1.93,0,0,1,2.522-.936A8.142,8.142,0,0,1,9311.724,1509.42Z" fill="#524092"/>
    <path id="Trazado_7846" data-name="Trazado 7846" d="M9326.013,1524.771a6.176,6.176,0,0,1-1.284,1.554,48.853,48.853,0,0,1-4.339,2.541,2.25,2.25,0,0,1-3.182-.715,2.194,2.194,0,0,1,.881-3.125c1.506-.929,3.033-1.837,4.608-2.641S9326,1522.63,9326.013,1524.771Z" fill="#524092"/>
    <path id="Trazado_7847" data-name="Trazado 7847" d="M9291.639,1507.189c0,.887.035,1.775-.009,2.66a2.161,2.161,0,0,1-2.062,2.219,2.105,2.105,0,0,1-2.35-1.915,45.849,45.849,0,0,1,.017-6.008,2.044,2.044,0,0,1,2.235-1.89,2.146,2.146,0,0,1,2.15,2.136c.057.93.012,1.865.012,2.8Z" fill="#524092"/>
    <path id="Trazado_7848" data-name="Trazado 7848" d="M9271.756,1516.668a5.6,5.6,0,0,1-1.464-1.206c-.957-1.429-1.785-2.95-2.6-4.47a2.218,2.218,0,0,1,.813-3.145,2.168,2.168,0,0,1,3.021.869c.955,1.544,1.886,3.112,2.7,4.733C9275.015,1515.015,9273.882,1516.724,9271.756,1516.668Z" fill="#524092"/>
    <path id="Trazado_7849" data-name="Trazado 7849" d="M9261.911,1526.641c.006,1.942-1.549,3.114-3,2.422a44.5,44.5,0,0,1-5.2-3,1.99,1.99,0,0,1-.623-2.736,1.969,1.969,0,0,1,2.7-1.076,49.162,49.162,0,0,1,5.425,3.156C9261.639,1525.687,9261.784,1526.4,9261.911,1526.641Z" fill="#524092"/>
  </g>
</svg>
