<svg xmlns="http://www.w3.org/2000/svg" xmlns:xlink="http://www.w3.org/1999/xlink" width="144.438" height="144.482" viewBox="0 0 144.438 144.482">
  <defs>
    <linearGradient id="linear-gradient" x1="0.146" y1="0.147" x2="0.853" y2="0.854" gradientUnits="objectBoundingBox">
      <stop offset="0.279" stop-color="#ffc72c"/>
      <stop offset="0.531" stop-color="#f5b922"/>
      <stop offset="0.997" stop-color="#dc970b"/>
      <stop offset="1" stop-color="#dc970b"/>
    </linearGradient>
  </defs>
  <g id="Grupo_2040" data-name="Grupo 2040" transform="translate(-9334.753 -4315.518)">
    <g id="Grupo_2038" data-name="Grupo 2038">
      <path id="Trazado_7905" data-name="Trazado 7905" d="M9406.914,4315.518a72.241,72.241,0,1,1-72.16,72.775A72.354,72.354,0,0,1,9406.914,4315.518Z" fill="url(#linear-gradient)"/>
    </g>
    <g id="Grupo_2039" data-name="Grupo 2039">
      <path id="Trazado_7906" data-name="Trazado 7906" d="M9462.112,4391.647c-.264,1.76-.434,3.539-.806,5.275-3.635,16.94-13.523,28.715-29.927,34.063-17,5.544-32.284,1.583-45.319-10.738a2.82,2.82,0,0,0-2.155-.863c-4.14.039-8.28.049-12.419.008-5.423-.054-8.795-5.332-6.411-10.034a6.506,6.506,0,0,1,5.789-3.8c1.706-.08,3.418-.015,5.3-.015-.16-.492-.26-.85-.391-1.2a41.8,41.8,0,0,1-2.515-10.49c-.083-.8-.341-1-1.105-.995q-6.211.051-12.419.009a6.983,6.983,0,0,1-7.278-7.073,6.883,6.883,0,0,1,6.737-6.817c4.5-.046,8.993-.013,13.489-.014h.936l4.888-12.652h-4.893c-2.106,0-4.212.017-6.317,0a6.96,6.96,0,1,1,.021-13.915c7.709-.015,15.418.009,23.126-.03a3.552,3.552,0,0,0,1.852-.586,43.55,43.55,0,0,1,31.126-7.379,44.1,44.1,0,0,1,37.207,32.932c.642,2.438.871,4.984,1.3,7.48.047.277.123.549.187.824Zm-78.525-2.976a33.92,33.92,0,1,0,33.9-34A34,34,0,0,0,9383.587,4388.671Z" fill="#fff"/>
      <path id="Trazado_7907" data-name="Trazado 7907" d="M9390.013,4388.659a27.495,27.495,0,1,1,27.554,27.52A27.559,27.559,0,0,1,9390.013,4388.659Zm24.354,3.138h16.02v-6.4h-9.665V4369.38h-6.354Z" fill="#fff"/>
    </g>
  </g>
</svg>
