<svg xmlns="http://www.w3.org/2000/svg" width="203.477" height="78.042" viewBox="0 0 203.477 78.042">
  <g id="Grupo_2454" data-name="Grupo 2454" transform="translate(-477.631 -7478.899)">
    <g id="Grupo_2448" data-name="Grupo 2448">
      <path id="Trazado_12702" data-name="Trazado 12702" d="M507.783,7517.991H496.256l-4.948-14.53h-3.279v14.53h-10.4v-38h17.694q5.856,0,9.1,3.076a10.673,10.673,0,0,1,3.239,8.115,13.427,13.427,0,0,1-1.191,5.8,10.419,10.419,0,0,1-4.815,4.44Zm-19.754-22.659h4.442a5.022,5.022,0,0,0,3.152-.919,3.2,3.2,0,0,0,1.191-2.7q0-3.646-4-3.646h-4.789Z" fill="#fff"/>
    </g>
    <g id="Grupo_2449" data-name="Grupo 2449">
      <path id="Trazado_12703" data-name="Trazado 12703" d="M534.07,7508.916v9.075H510.495v-38H534.07v8.769H519.93v5.511h11.431v8.435H519.93v6.207Z" fill="#fff"/>
    </g>
    <g id="Grupo_2450" data-name="Grupo 2450">
      <path id="Trazado_12704" data-name="Trazado 12704" d="M592.573,7508.916v9.075H569v-38h23.575v8.769h-14.14v5.511h11.432v8.435H578.433v6.207Z" fill="#fff"/>
    </g>
    <g id="Grupo_2451" data-name="Grupo 2451">
      <path id="Trazado_12705" data-name="Trazado 12705" d="M621,7517.008a17.664,17.664,0,0,1-7.98,1.582c-11.858,0-17.064-8.952-17.064-19.185,0-13.556,8.191-20.44,17.641-20.44,3.642,0,6.6.826,7.92,1.71l-1.656,8.1a12.827,12.827,0,0,0-5.865-1.383c-4.877,0-9.1,3.493-9.1,11.361,0,6.97,3.431,11.3,9.249,11.3a15.058,15.058,0,0,0,5.676-1.1Z" fill="#fff"/>
    </g>
    <g id="Grupo_2452" data-name="Grupo 2452">
      <path id="Trazado_12706" data-name="Trazado 12706" d="M536.935,7517.991v-38h12.626q8.226,0,12.315,5.679a21.9,21.9,0,0,1,4.089,13.139q0,8.517-4.388,13.849a14.07,14.07,0,0,1-11.394,5.33Zm10.02-8.74h2.606q2.487,0,4.2-2.812a14.68,14.68,0,0,0,1.71-7.655,15.7,15.7,0,0,0-1.519-7.154,4.757,4.757,0,0,0-4.388-3.007h-2.606Z" fill="#fff"/>
    </g>
    <g id="Grupo_2453" data-name="Grupo 2453">
      <path id="Trazado_12707" data-name="Trazado 12707" d="M482.773,7526.44l-.881-2.213h-.247v2.213h-1.032v-5.86h1.732a1.475,1.475,0,0,1,.854.242,1.458,1.458,0,0,1,.527.663,2.423,2.423,0,0,1,.175.939,2.229,2.229,0,0,1-.238,1.044,1.356,1.356,0,0,1-.7.651l.978,2.321Zm-1.128-3.223h.639a.493.493,0,0,0,.426-.192.9.9,0,0,0,.141-.542.87.87,0,0,0-.141-.526.5.5,0,0,0-.426-.192h-.639Z" fill="#fff"/>
      <path id="Trazado_12708" data-name="Trazado 12708" d="M487.7,7524.453h-2.335a1.184,1.184,0,0,0,.2.664.54.54,0,0,0,.438.229.556.556,0,0,0,.537-.451h1.1a2.46,2.46,0,0,1-.3.826,1.69,1.69,0,0,1-.552.577,1.365,1.365,0,0,1-.742.208,1.417,1.417,0,0,1-.881-.292,1.9,1.9,0,0,1-.6-.835,3.389,3.389,0,0,1-.217-1.268,3.437,3.437,0,0,1,.214-1.269,1.888,1.888,0,0,1,.6-.835,1.429,1.429,0,0,1,.887-.292,1.414,1.414,0,0,1,.868.284,1.849,1.849,0,0,1,.6.809,3.237,3.237,0,0,1,.214,1.227Q487.72,7524.236,487.7,7524.453Zm-1.038-.793a.884.884,0,0,0-.181-.585.566.566,0,0,0-.452-.217.553.553,0,0,0-.437.209,1.074,1.074,0,0,0-.221.593Z" fill="#fff"/>
      <path id="Trazado_12709" data-name="Trazado 12709" d="M490.166,7521.915a1.3,1.3,0,0,1,.413.526v-.659h1.032v4.649a3.479,3.479,0,0,1-.184,1.165,1.84,1.84,0,0,1-.561.831,1.435,1.435,0,0,1-.938.308,1.6,1.6,0,0,1-1.213-.488,2.1,2.1,0,0,1-.53-1.323H489.2a.7.7,0,0,0,.229.421.666.666,0,0,0,.447.155.6.6,0,0,0,.509-.255,1.373,1.373,0,0,0,.19-.814v-.659a1.388,1.388,0,0,1-.416.53.989.989,0,0,1-.621.2,1.11,1.11,0,0,1-.754-.3,1.979,1.979,0,0,1-.534-.843,3.732,3.732,0,0,1-.2-1.265,3.7,3.7,0,0,1,.2-1.26,1.953,1.953,0,0,1,.534-.835,1.123,1.123,0,0,1,.754-.292A1.02,1.02,0,0,1,490.166,7521.915Zm.2,1.353a.6.6,0,0,0-1.043,0,1.436,1.436,0,0,0-.214.839,1.481,1.481,0,0,0,.214.848.594.594,0,0,0,1.043,0,1.767,1.767,0,0,0,0-1.686Z" fill="#fff"/>
      <path id="Trazado_12710" data-name="Trazado 12710" d="M492.435,7521.076a.863.863,0,0,1-.173-.547.877.877,0,0,1,.173-.555.537.537,0,0,1,.443-.221.531.531,0,0,1,.437.221.877.877,0,0,1,.172.555.862.862,0,0,1-.172.547.53.53,0,0,1-.437.221A.536.536,0,0,1,492.435,7521.076Zm.956.706v4.658h-1.032v-4.658Z" fill="#fff"/>
      <path id="Trazado_12711" data-name="Trazado 12711" d="M494.724,7526.3a1.493,1.493,0,0,1-.543-.572,1.873,1.873,0,0,1-.223-.814h1.019a.608.608,0,0,0,.163.392.478.478,0,0,0,.356.151.407.407,0,0,0,.3-.1.366.366,0,0,0,.1-.271.327.327,0,0,0-.151-.3,2.554,2.554,0,0,0-.488-.212,3.6,3.6,0,0,1-.6-.247,1.13,1.13,0,0,1-.416-.409,1.409,1.409,0,0,1-.175-.755,1.655,1.655,0,0,1,.16-.73,1.23,1.23,0,0,1,.471-.522,1.373,1.373,0,0,1,.739-.192,1.234,1.234,0,0,1,1,.434,1.971,1.971,0,0,1,.42,1.152H495.9a.646.646,0,0,0-.154-.384.437.437,0,0,0-.34-.142.377.377,0,0,0-.278.1.356.356,0,0,0-.1.263.334.334,0,0,0,.154.3,1.978,1.978,0,0,0,.48.2,4.427,4.427,0,0,1,.609.263,1.158,1.158,0,0,1,.414.418,1.49,1.49,0,0,1,.183.772,1.564,1.564,0,0,1-.166.731,1.218,1.218,0,0,1-.476.5,1.383,1.383,0,0,1-.721.184A1.478,1.478,0,0,1,494.724,7526.3Z" fill="#fff"/>
      <path id="Trazado_12712" data-name="Trazado 12712" d="M499.381,7525.229v1.211h-.525a1.075,1.075,0,0,1-.875-.38,1.957,1.957,0,0,1-.313-1.24v-1.853h-.41v-1.185h.41v-1.136H498.7v1.136h.676v1.185H498.7v1.87a.483.483,0,0,0,.073.3.286.286,0,0,0,.241.092Z" fill="#fff"/>
      <path id="Trazado_12713" data-name="Trazado 12713" d="M501.439,7521.952a.932.932,0,0,1,.6-.221v1.511h-.284a.714.714,0,0,0-.579.23,1.271,1.271,0,0,0-.193.8v2.163h-1.032v-4.658h1.032v.776A1.706,1.706,0,0,1,501.439,7521.952Z" fill="#fff"/>
      <path id="Trazado_12714" data-name="Trazado 12714" d="M503.179,7526.214a1.917,1.917,0,0,1-.621-.835,3.623,3.623,0,0,1,0-2.533,1.928,1.928,0,0,1,.627-.839,1.51,1.51,0,0,1,1.785,0,1.937,1.937,0,0,1,.628.839,3.243,3.243,0,0,1,.229,1.265,3.206,3.206,0,0,1-.232,1.264,1.948,1.948,0,0,1-.633.839,1.486,1.486,0,0,1-.9.292A1.454,1.454,0,0,1,503.179,7526.214Zm1.393-1.244a1.5,1.5,0,0,0,.208-.859,1.542,1.542,0,0,0-.2-.86.567.567,0,0,0-1,0,1.545,1.545,0,0,0-.2.864,1.569,1.569,0,0,0,.2.859.574.574,0,0,0,.491.3A.6.6,0,0,0,504.572,7524.97Z" fill="#fff"/>
      <path id="Trazado_12715" data-name="Trazado 12715" d="M507.649,7522.842a1.962,1.962,0,0,1,.534-.835,1.124,1.124,0,0,1,.754-.292,1.032,1.032,0,0,1,.606.192,1.315,1.315,0,0,1,.432.517v-2.162h1.031v6.178h-1.031v-.668a1.3,1.3,0,0,1-.414.534,1.013,1.013,0,0,1-.624.2,1.112,1.112,0,0,1-.754-.3,1.989,1.989,0,0,1-.534-.843,3.733,3.733,0,0,1-.2-1.265A3.7,3.7,0,0,1,507.649,7522.842Zm2.112.426a.6.6,0,0,0-1.044,0,1.436,1.436,0,0,0-.214.839,1.481,1.481,0,0,0,.214.848.594.594,0,0,0,1.044,0,1.767,1.767,0,0,0,0-1.686Z" fill="#fff"/>
      <path id="Trazado_12716" data-name="Trazado 12716" d="M514.91,7524.453h-2.335a1.177,1.177,0,0,0,.2.664.537.537,0,0,0,.437.229.554.554,0,0,0,.537-.451h1.1a2.438,2.438,0,0,1-.3.826,1.672,1.672,0,0,1-.552.577,1.361,1.361,0,0,1-.741.208,1.417,1.417,0,0,1-.881-.292,1.9,1.9,0,0,1-.6-.835,3.389,3.389,0,0,1-.217-1.268,3.437,3.437,0,0,1,.214-1.269,1.889,1.889,0,0,1,.6-.835,1.432,1.432,0,0,1,.888-.292,1.414,1.414,0,0,1,.868.284,1.84,1.84,0,0,1,.594.809,3.236,3.236,0,0,1,.214,1.227C514.927,7524.169,514.921,7524.308,514.91,7524.453Zm-1.038-.793a.889.889,0,0,0-.181-.585.569.569,0,0,0-.453-.217.555.555,0,0,0-.437.209,1.074,1.074,0,0,0-.22.593Z" fill="#fff"/>
      <path id="Trazado_12717" data-name="Trazado 12717" d="M519.506,7520.946a2.367,2.367,0,0,1,.776,1.032,4.405,4.405,0,0,1,0,3.059,2.335,2.335,0,0,1-.779,1.035,1.926,1.926,0,0,1-1.167.368h-1.587v-5.86h1.587A1.928,1.928,0,0,1,519.506,7520.946Zm-.326,3.816a2.079,2.079,0,0,0,.326-1.252,2.117,2.117,0,0,0-.326-1.261,1.058,1.058,0,0,0-.91-.451h-.489v3.406h.489A1.064,1.064,0,0,0,519.18,7524.762Z" fill="#fff"/>
      <path id="Trazado_12718" data-name="Trazado 12718" d="M524.29,7524.453h-2.335a1.184,1.184,0,0,0,.2.664.54.54,0,0,0,.438.229.556.556,0,0,0,.537-.451h1.1a2.459,2.459,0,0,1-.3.826,1.69,1.69,0,0,1-.552.577,1.365,1.365,0,0,1-.742.208,1.417,1.417,0,0,1-.881-.292,1.9,1.9,0,0,1-.6-.835,3.39,3.39,0,0,1-.217-1.268,3.437,3.437,0,0,1,.214-1.269,1.888,1.888,0,0,1,.6-.835,1.429,1.429,0,0,1,.887-.292,1.415,1.415,0,0,1,.868.284,1.849,1.849,0,0,1,.595.809,3.236,3.236,0,0,1,.214,1.227Q524.308,7524.236,524.29,7524.453Zm-1.038-.793a.884.884,0,0,0-.181-.585.566.566,0,0,0-.452-.217.553.553,0,0,0-.437.209,1.074,1.074,0,0,0-.221.593Z" fill="#fff"/>
      <path id="Trazado_12719" data-name="Trazado 12719" d="M525.436,7526.3a1.5,1.5,0,0,1-.543-.572,1.873,1.873,0,0,1-.223-.814h1.019a.618.618,0,0,0,.163.392.48.48,0,0,0,.356.151.407.407,0,0,0,.3-.1.365.365,0,0,0,.1-.271.328.328,0,0,0-.15-.3,2.6,2.6,0,0,0-.489-.212,3.588,3.588,0,0,1-.6-.247,1.125,1.125,0,0,1-.417-.409,1.418,1.418,0,0,1-.174-.755,1.64,1.64,0,0,1,.16-.73,1.228,1.228,0,0,1,.47-.522,1.373,1.373,0,0,1,.739-.192,1.236,1.236,0,0,1,1,.434,1.97,1.97,0,0,1,.419,1.152h-.954a.652.652,0,0,0-.153-.384.439.439,0,0,0-.341-.142.379.379,0,0,0-.278.1.355.355,0,0,0-.1.263.332.332,0,0,0,.154.3,1.95,1.95,0,0,0,.479.2,4.5,4.5,0,0,1,.61.263,1.157,1.157,0,0,1,.413.418,1.5,1.5,0,0,1,.184.772,1.577,1.577,0,0,1-.166.731,1.227,1.227,0,0,1-.477.5,1.382,1.382,0,0,1-.72.184A1.482,1.482,0,0,1,525.436,7526.3Z" fill="#fff"/>
      <path id="Trazado_12720" data-name="Trazado 12720" d="M529.665,7521.915a1.008,1.008,0,0,1,.622-.2,1.126,1.126,0,0,1,.754.292,1.962,1.962,0,0,1,.534.835,3.721,3.721,0,0,1,.2,1.26,3.758,3.758,0,0,1-.2,1.265,1.989,1.989,0,0,1-.534.843,1.114,1.114,0,0,1-.754.3,1,1,0,0,1-.619-.2,1.362,1.362,0,0,1-.419-.518v2.872h-1.032v-6.878h1.032v.659A1.36,1.36,0,0,1,529.665,7521.915Zm.842,1.348a.631.631,0,0,0-.528-.305.623.623,0,0,0-.522.31,1.768,1.768,0,0,0,0,1.686.623.623,0,0,0,.522.308.631.631,0,0,0,.525-.312,1.474,1.474,0,0,0,.217-.848A1.436,1.436,0,0,0,530.507,7523.263Z" fill="#fff"/>
      <path id="Trazado_12721" data-name="Trazado 12721" d="M532.3,7522.842a1.951,1.951,0,0,1,.533-.835,1.126,1.126,0,0,1,.754-.292,1.02,1.02,0,0,1,.625.2,1.3,1.3,0,0,1,.413.526v-.659h1.032v4.658H534.63v-.66a1.35,1.35,0,0,1-.419.526,1.013,1.013,0,0,1-.624.2,1.107,1.107,0,0,1-.749-.3,1.978,1.978,0,0,1-.533-.843,3.733,3.733,0,0,1-.2-1.265A3.7,3.7,0,0,1,532.3,7522.842Zm2.111.426a.6.6,0,0,0-1.044,0,1.436,1.436,0,0,0-.214.839,1.481,1.481,0,0,0,.214.848.594.594,0,0,0,1.044,0,1.768,1.768,0,0,0,0-1.686Z" fill="#fff"/>
      <path id="Trazado_12722" data-name="Trazado 12722" d="M536.419,7522.842a1.9,1.9,0,0,1,.6-.835,1.408,1.408,0,0,1,.878-.292,1.387,1.387,0,0,1,1.059.459,2.423,2.423,0,0,1,.558,1.294h-1.1q-.14-.534-.537-.535a.51.51,0,0,0-.453.3,2.338,2.338,0,0,0,0,1.745.509.509,0,0,0,.453.305q.4,0,.537-.535h1.1a2.442,2.442,0,0,1-.561,1.286,1.379,1.379,0,0,1-1.056.467,1.4,1.4,0,0,1-.878-.292,1.893,1.893,0,0,1-.6-.835,3.867,3.867,0,0,1,0-2.537Z" fill="#fff"/>
      <path id="Trazado_12723" data-name="Trazado 12723" d="M543.058,7522.262a2.618,2.618,0,0,1,.35,1.456v2.722h-1.026v-2.53a1.284,1.284,0,0,0-.175-.726.557.557,0,0,0-.941,0,1.284,1.284,0,0,0-.175.726v2.53h-1.032v-6.178h1.032v2.146a1.278,1.278,0,0,1,.429-.493,1.085,1.085,0,0,1,1.538.347Z" fill="#fff"/>
      <path id="Trazado_12724" data-name="Trazado 12724" d="M544.768,7526.214a1.933,1.933,0,0,1-.621-.835,3.639,3.639,0,0,1,0-2.533,1.935,1.935,0,0,1,.627-.839,1.512,1.512,0,0,1,1.786,0,1.935,1.935,0,0,1,.627.839,3.242,3.242,0,0,1,.229,1.265,3.207,3.207,0,0,1-.232,1.264,1.949,1.949,0,0,1-.633.839,1.485,1.485,0,0,1-.9.292A1.455,1.455,0,0,1,544.768,7526.214Zm1.394-1.244a1.5,1.5,0,0,0,.208-.859,1.542,1.542,0,0,0-.2-.86.567.567,0,0,0-1,0,1.553,1.553,0,0,0-.2.864,1.578,1.578,0,0,0,.2.859.576.576,0,0,0,.492.3A.6.6,0,0,0,546.162,7524.97Z" fill="#fff"/>
      <path id="Trazado_12725" data-name="Trazado 12725" d="M548.554,7526.3a1.486,1.486,0,0,1-.543-.572,1.888,1.888,0,0,1-.224-.814h1.02a.608.608,0,0,0,.163.392.477.477,0,0,0,.356.151.407.407,0,0,0,.3-.1.365.365,0,0,0,.1-.271.327.327,0,0,0-.151-.3,2.54,2.54,0,0,0-.489-.212,3.623,3.623,0,0,1-.6-.247,1.123,1.123,0,0,1-.416-.409,1.409,1.409,0,0,1-.175-.755,1.655,1.655,0,0,1,.16-.73,1.223,1.223,0,0,1,.471-.522,1.373,1.373,0,0,1,.739-.192,1.234,1.234,0,0,1,1,.434,1.971,1.971,0,0,1,.419,1.152h-.953a.646.646,0,0,0-.154-.384.437.437,0,0,0-.341-.142.376.376,0,0,0-.277.1.352.352,0,0,0-.1.263.334.334,0,0,0,.154.3,1.96,1.96,0,0,0,.48.2,4.481,4.481,0,0,1,.609.263,1.149,1.149,0,0,1,.413.418,1.49,1.49,0,0,1,.184.772,1.564,1.564,0,0,1-.166.731,1.218,1.218,0,0,1-.476.5,1.383,1.383,0,0,1-.721.184A1.478,1.478,0,0,1,548.554,7526.3Z" fill="#fff"/>
      <path id="Trazado_12726" data-name="Trazado 12726" d="M552.6,7522.842a1.944,1.944,0,0,1,.534-.835,1.122,1.122,0,0,1,.753-.292,1.032,1.032,0,0,1,.607.192,1.313,1.313,0,0,1,.431.517v-2.162h1.032v6.178H554.93v-.668a1.3,1.3,0,0,1-.413.534,1.014,1.014,0,0,1-.625.2,1.11,1.11,0,0,1-.753-.3,1.97,1.97,0,0,1-.534-.843,3.733,3.733,0,0,1-.2-1.265A3.7,3.7,0,0,1,552.6,7522.842Zm2.111.426a.6.6,0,0,0-1.044,0,1.444,1.444,0,0,0-.214.839,1.49,1.49,0,0,0,.214.848.594.594,0,0,0,1.044,0,1.768,1.768,0,0,0,0-1.686Z" fill="#fff"/>
      <path id="Trazado_12727" data-name="Trazado 12727" d="M559.865,7524.453h-2.334a1.177,1.177,0,0,0,.2.664.54.54,0,0,0,.438.229.555.555,0,0,0,.537-.451h1.1a2.438,2.438,0,0,1-.3.826,1.69,1.69,0,0,1-.552.577,1.362,1.362,0,0,1-.742.208,1.417,1.417,0,0,1-.881-.292,1.9,1.9,0,0,1-.6-.835,3.39,3.39,0,0,1-.217-1.268,3.437,3.437,0,0,1,.214-1.269,1.889,1.889,0,0,1,.6-.835,1.482,1.482,0,0,1,1.756-.008,1.855,1.855,0,0,1,.594.809,3.236,3.236,0,0,1,.214,1.227Q559.883,7524.236,559.865,7524.453Zm-1.038-.793a.884.884,0,0,0-.181-.585.566.566,0,0,0-.452-.217.553.553,0,0,0-.437.209,1.074,1.074,0,0,0-.22.593Z" fill="#fff"/>
      <path id="Trazado_12728" data-name="Trazado 12728" d="M561.8,7521.952a2.475,2.475,0,0,1,.757-1.06,1.789,1.789,0,0,1,2.392.172,2.861,2.861,0,0,1,.718,1.5h-1.134a1.218,1.218,0,0,0-.359-.559.807.807,0,0,0-.528-.192.887.887,0,0,0-.772.459,2.691,2.691,0,0,0,0,2.454.887.887,0,0,0,.772.459.806.806,0,0,0,.528-.191,1.217,1.217,0,0,0,.359-.56h1.134a2.841,2.841,0,0,1-.718,1.5,1.793,1.793,0,0,1-2.392.166,2.468,2.468,0,0,1-.757-1.056,4.111,4.111,0,0,1-.271-1.544A4.155,4.155,0,0,1,561.8,7521.952Z" fill="#fff"/>
      <path id="Trazado_12729" data-name="Trazado 12729" d="M566.944,7526.214a1.933,1.933,0,0,1-.621-.835,3.638,3.638,0,0,1,0-2.533,1.943,1.943,0,0,1,.627-.839,1.512,1.512,0,0,1,1.786,0,1.937,1.937,0,0,1,.628.839,3.261,3.261,0,0,1,.228,1.265,3.225,3.225,0,0,1-.231,1.264,1.95,1.95,0,0,1-.634.839,1.483,1.483,0,0,1-.9.292A1.457,1.457,0,0,1,566.944,7526.214Zm1.394-1.244a1.5,1.5,0,0,0,.208-.859,1.533,1.533,0,0,0-.2-.86.566.566,0,0,0-1,0,1.545,1.545,0,0,0-.2.864,1.568,1.568,0,0,0,.2.859.573.573,0,0,0,.491.3A.6.6,0,0,0,568.338,7524.97Z" fill="#fff"/>
      <path id="Trazado_12730" data-name="Trazado 12730" d="M571.592,7521.915a1.026,1.026,0,0,1,.622-.2,1.124,1.124,0,0,1,.754.292,1.962,1.962,0,0,1,.534.835,3.7,3.7,0,0,1,.2,1.26,3.733,3.733,0,0,1-.2,1.265,1.989,1.989,0,0,1-.534.843,1.112,1.112,0,0,1-.754.3,1.017,1.017,0,0,1-.622-.2,1.336,1.336,0,0,1-.416-.522v.652h-1.031v-6.178h1.031v2.179A1.307,1.307,0,0,1,571.592,7521.915Zm.842,1.348a.631.631,0,0,0-.528-.305.62.62,0,0,0-.521.31,1.76,1.76,0,0,0,0,1.686.62.62,0,0,0,.521.308.631.631,0,0,0,.525-.312,1.466,1.466,0,0,0,.217-.848A1.436,1.436,0,0,0,572.434,7523.263Z" fill="#fff"/>
      <path id="Trazado_12731" data-name="Trazado 12731" d="M575.725,7521.952a.934.934,0,0,1,.6-.221v1.511h-.283a.715.715,0,0,0-.58.23,1.277,1.277,0,0,0-.193.8v2.163h-1.031v-4.658h1.031v.776A1.707,1.707,0,0,1,575.725,7521.952Z" fill="#fff"/>
      <path id="Trazado_12732" data-name="Trazado 12732" d="M576.814,7522.842a1.943,1.943,0,0,1,.534-.835,1.122,1.122,0,0,1,.754-.292,1.02,1.02,0,0,1,.624.2,1.3,1.3,0,0,1,.413.526v-.659h1.032v4.658h-1.032v-.66a1.35,1.35,0,0,1-.419.526,1.013,1.013,0,0,1-.624.2,1.1,1.1,0,0,1-.748-.3,1.969,1.969,0,0,1-.534-.843,3.731,3.731,0,0,1-.2-1.265A3.694,3.694,0,0,1,576.814,7522.842Zm2.111.426a.6.6,0,0,0-1.044,0,1.444,1.444,0,0,0-.214.839,1.49,1.49,0,0,0,.214.848.594.594,0,0,0,1.044,0,1.768,1.768,0,0,0,0-1.686Z" fill="#fff"/>
      <path id="Trazado_12733" data-name="Trazado 12733" d="M583.914,7522.262a2.6,2.6,0,0,1,.353,1.456v2.722h-1.025v-2.53a1.283,1.283,0,0,0-.176-.726.556.556,0,0,0-.94,0,1.283,1.283,0,0,0-.176.726v2.53h-1.031v-4.658h1.031v.617a1.279,1.279,0,0,1,.423-.488,1.039,1.039,0,0,1,.6-.18A1.084,1.084,0,0,1,583.914,7522.262Z" fill="#fff"/>
      <path id="Trazado_12734" data-name="Trazado 12734" d="M585.95,7525.262h1.46v1.178H584.8V7525.3l1.4-2.346H584.81v-1.176h2.57v1.135Z" fill="#fff"/>
      <path id="Trazado_12735" data-name="Trazado 12735" d="M587.968,7522.842a1.961,1.961,0,0,1,.534-.835,1.122,1.122,0,0,1,.754-.292,1.02,1.02,0,0,1,.624.2,1.311,1.311,0,0,1,.414.526v-.659h1.031v4.658h-1.031v-.66a1.362,1.362,0,0,1-.42.526,1.013,1.013,0,0,1-.624.2,1.1,1.1,0,0,1-.748-.3,1.988,1.988,0,0,1-.534-.843,3.731,3.731,0,0,1-.2-1.265A3.694,3.694,0,0,1,587.968,7522.842Zm2.112.426a.6.6,0,0,0-1.044,0,1.436,1.436,0,0,0-.214.839,1.481,1.481,0,0,0,.214.848.594.594,0,0,0,1.044,0,1.768,1.768,0,0,0,0-1.686Z" fill="#fff"/>
    </g>
    <path id="Trazado_12736" data-name="Trazado 12736" d="M598.476,7556.941c-4.521-4.871-8.827-9.51-12.338-13.294,6.684-7.432,13.005-14.805,19.777-21.723,1.51-1.543,4.6-2.064,6.968-2.065q16.688,0,33.37.7a1.845,1.845,0,0,1,.848.277,3.606,3.606,0,0,1,.374,5.795,2.483,2.483,0,0,1-1.295.651c-4.344.478-8.78.023-13.159.29a2.508,2.508,0,0,0-.833.213,2.18,2.18,0,0,0-.082,4,1.506,1.506,0,0,0,.548.106c7.019-.065,14.067-.146,21.036-.9,2.36-.254,4.772-2.163,6.713-3.848,4.339-3.766,8.333-7.941,12.6-11.8,2.034-1.84,4.431-3.332,6.937-.669,2.448,2.6.545,4.777-1.087,6.613-5.6,6.3-11.255,12.543-17.066,18.635-4.821,5.053-11.771,4.229-17.946,4.419q-13.045.4-26.089-.232c-4.947-.244-8.489,1.2-11.552,5.009C604,7551.859,601.261,7554.157,598.476,7556.941Z" fill="#fff"/>
    <path id="Trazado_12737" data-name="Trazado 12737" d="M641.8,7478.9a20.58,20.58,0,0,0-10.931,38.018h21.863A20.58,20.58,0,0,0,641.8,7478.9Zm1.985,27.693v3.053H639.5v-2.776a21.613,21.613,0,0,1-6.685-1.269l1.217-4.127a18.734,18.734,0,0,0,6.647,1.313c1.914,0,3.253-.433,3.253-1.388,0-.925-1.1-1.492-3.913-2.172-4.12-1.03-7.024-2.574-7.024-5.582,0-2.716,2.376-4.858,6.675-5.545v-2.769h4.29v2.523a19.034,19.034,0,0,1,5.723.948l-1.216,3.985a16.405,16.405,0,0,0-5.705-1.03c-2.225,0-2.894.627-2.894,1.3,0,.731,1.282,1.313,4.45,2.186,4.762,1.247,6.477,2.941,6.477,5.672C650.791,7503.69,648.312,7505.958,643.786,7506.592Z" fill="#fff"/>
  </g>
</svg>
