<svg xmlns="http://www.w3.org/2000/svg" xmlns:xlink="http://www.w3.org/1999/xlink" width="144.438" height="144.482" viewBox="0 0 144.438 144.482">
  <defs>
    <linearGradient id="linear-gradient" y1="0.5" x2="1" y2="0.5" gradientUnits="objectBoundingBox">
      <stop offset="0.279" stop-color="#ffc72c"/>
      <stop offset="0.531" stop-color="#f5b922"/>
      <stop offset="0.997" stop-color="#dc970b"/>
      <stop offset="1" stop-color="#dc970b"/>
    </linearGradient>
  </defs>
  <g id="Grupo_2035" data-name="Grupo 2035" transform="translate(-8525.178 -4311.143)">
    <g id="Grupo_2034" data-name="Grupo 2034">
      <path id="Trazado_7896" data-name="Trazado 7896" d="M8597.34,4311.143a72.241,72.241,0,1,1-72.161,72.775A72.354,72.354,0,0,1,8597.34,4311.143Z" fill="url(#linear-gradient)"/>
    </g>
    <path id="Trazado_7897" data-name="Trazado 7897" d="M8618.024,4348.709a15.462,15.462,0,0,1,9.3,4.022,15.986,15.986,0,0,1,5.337,12.41q-.012,27.039,0,54.076c0,.353-.006.706,0,1.059a2.018,2.018,0,0,0,2.252,2.265c2.18.021,4.361.006,6.542.006h.958l-13.872,15.429-13.882-15.429h2.8c1.6,0,3.208.02,4.812-.01a2.026,2.026,0,0,0,2.159-2.177c.009-.256,0-.513,0-.769q0-27.567.015-55.135a20.372,20.372,0,0,0-6.233-15.3,2.1,2.1,0,0,1-.187-.218C8618.012,4348.92,8618.024,4348.881,8618.024,4348.709Z" fill="#fff"/>
    <path id="Trazado_7898" data-name="Trazado 7898" d="M8577.932,4334.385a37.313,37.313,0,1,1-37.3,37.318A37.423,37.423,0,0,1,8577.932,4334.385Zm2.895,57.47c.6-.084,1.083-.155,1.563-.218a11.391,11.391,0,0,0,9.857-11.307,11.259,11.259,0,0,0-9.938-11.336c-2.527-.269-5.1-.1-7.647-.224a5.694,5.694,0,0,1,.013-11.365c.849-.047,1.7,0,2.552,0,3.987-.008,7.975.014,11.961-.04a2.822,2.822,0,0,0,3.051-2.876,2.854,2.854,0,0,0-3.053-2.879c-1.028-.042-2.061-.01-3.091-.011h-5.264c0-1.1,0-2,0-2.885s.036-1.795-.016-2.688a2.884,2.884,0,1,0-5.756.16c-.037,1.777-.008,3.556-.008,5.345-.612.091-1.053.163-1.5.22a11.383,11.383,0,0,0-9.926,11.379,11.267,11.267,0,0,0,10,11.283c2.529.266,5.1.1,7.649.222a5.693,5.693,0,0,1-.01,11.353c-.848.054-1.7.014-2.552.015-3.986.008-7.974-.015-11.961.035a2.859,2.859,0,0,0-3.088,3.345c.21,1.47,1.4,2.4,3.223,2.415,2.674.027,5.347.007,7.882.007.162.2.215.232.215.266q.035,2.553.063,5.1a2.955,2.955,0,0,0,1.853,3c1.938.78,3.832-.6,3.911-2.889C8580.875,4395.5,8580.826,4393.71,8580.826,4391.855Z" fill="#fff"/>
  </g>
</svg>
