<svg xmlns="http://www.w3.org/2000/svg" width="226.817" height="51.739" viewBox="0 0 226.817 51.739">
  <g id="Grupo_2457" data-name="Grupo 2457" transform="translate(-850.285 -7492.05)">
    <g id="Grupo_2455" data-name="Grupo 2455">
      <path id="Trazado_12738" data-name="Trazado 12738" d="M929.893,7515.708h-6.462v11.13h-3.647v-27.514h9.108q4.648,0,7.152,2.117a7.612,7.612,0,0,1,2.5,6.16,7.408,7.408,0,0,1-1.389,4.479,8.294,8.294,0,0,1-3.864,2.853l6.463,11.679v.226h-3.893Zm-6.462-2.967h5.574a6.287,6.287,0,0,0,4.3-1.4,4.735,4.735,0,0,0,1.6-3.748,4.99,4.99,0,0,0-1.521-3.919,6.445,6.445,0,0,0-4.394-1.382h-5.555Z" fill="#fff"/>
      <path id="Trazado_12739" data-name="Trazado 12739" d="M963.209,7514.121H951.285v9.751h13.851v2.966h-17.48v-27.514h17.291v2.967H951.285v8.863h11.924Z" fill="#fff"/>
      <path id="Trazado_12740" data-name="Trazado 12740" d="M993.047,7499.324v18.708a8.781,8.781,0,0,1-2.447,6.369,9.869,9.869,0,0,1-6.586,2.778l-.964.037a10.3,10.3,0,0,1-7.2-2.437,8.719,8.719,0,0,1-2.721-6.709v-18.746h3.591v18.633a5.738,5.738,0,0,0,6.33,6.292,6.361,6.361,0,0,0,4.715-1.644,6.284,6.284,0,0,0,1.635-4.629v-18.652Z" fill="#fff"/>
      <path id="Trazado_12741" data-name="Trazado 12741" d="M1023.943,7526.838H1020.3l-13.851-21.2v21.2H1002.8v-27.514h3.648l13.889,21.3v-21.3h3.609Z" fill="#fff"/>
      <path id="Trazado_12742" data-name="Trazado 12742" d="M1049.965,7514.121h-11.924v9.751h13.851v2.966h-17.48v-27.514H1051.7v2.967h-13.662v8.863h11.924Z" fill="#fff"/>
    </g>
    <text id="Registro_de_Información_de_Unidades_Especializadas_" data-name="Registro de Información de Unidades Especializadas " transform="translate(914.102 7538.774)" fill="#fff" font-size="6.12" font-family="Montserrat-Regular, Montserrat"><tspan x="0" y="0">Registro de Información de Unidades Especializadas </tspan></text>
    <path id="Trazado_12743" data-name="Trazado 12743" d="M919.784,7530.417v1.3h134.3v-1.3h-134.3" fill="#fff"/>
    <g id="Grupo_2456" data-name="Grupo 2456">
      <path id="Trazado_12744" data-name="Trazado 12744" d="M910.733,7514.289a22.238,22.238,0,0,0-38.688-14.965c.16,0,.318-.012.479-.012.609,0,1.211.031,1.807.079a19.433,19.433,0,1,1,16.737,34.433,22.527,22.527,0,0,1-2.094,2.692A22.234,22.234,0,0,0,910.733,7514.289Z" fill="#fff"/>
      <path id="Trazado_12745" data-name="Trazado 12745" d="M869.776,7526.289a19.345,19.345,0,0,1-3.52-11.151c0-.142.008-.283.011-.424s-.011-.283-.011-.425a22.154,22.154,0,0,1,5.789-14.965,22.235,22.235,0,1,0,16.929,37.192c-.16,0-.319.012-.479.012A22.217,22.217,0,0,1,869.776,7526.289Z" fill="#fff"/>
      <path id="Trazado_12746" data-name="Trazado 12746" d="M867.134,7514.789a19.9,19.9,0,0,0,3.4,10.951c3.689,4.92,8.58,8.841,15.167,8.841a19.464,19.464,0,0,0,5.37-.757,22.234,22.234,0,0,0-16.737-34.433C869.557,7502.846,867.27,7508.477,867.134,7514.789Z" fill="#fff"/>
    </g>
  </g>
</svg>
