<svg xmlns="http://www.w3.org/2000/svg" xmlns:xlink="http://www.w3.org/1999/xlink" width="144.442" height="144.49" viewBox="0 0 144.442 144.49">
  <defs>
    <linearGradient id="linear-gradient" x1="0.146" y1="0.147" x2="0.853" y2="0.854" gradientUnits="objectBoundingBox">
      <stop offset="0.279" stop-color="#ffc72c"/>
      <stop offset="0.531" stop-color="#f5b922"/>
      <stop offset="0.997" stop-color="#dc970b"/>
      <stop offset="1" stop-color="#dc970b"/>
    </linearGradient>
    <linearGradient id="linear-gradient-2" x1="0.132" y1="0.057" x2="0.868" y2="0.758" xlink:href="#linear-gradient"/>
    <linearGradient id="linear-gradient-3" x1="0.112" y1="0.114" x2="0.888" y2="0.888" xlink:href="#linear-gradient"/>
    <linearGradient id="linear-gradient-4" x1="0.311" y1="0.03" x2="0.689" y2="0.563" xlink:href="#linear-gradient"/>
  </defs>
  <g id="Grupo_2044" data-name="Grupo 2044" transform="translate(-9334.75 -3856.827)">
    <path id="Trazado_7912" data-name="Trazado 7912" d="M9406.947,3856.827a72.245,72.245,0,1,1-72.2,72.745A72.356,72.356,0,0,1,9406.947,3856.827Zm45.607,62.556c0-.4.007-.8,0-1.2-.146-7.885-2.326-15.442-3.814-23.106a3.142,3.142,0,0,0-1.963-1.729q-19.252-6.126-38.56-12.081a4.388,4.388,0,0,0-2.452,0c-12.386,3.839-24.733,7.8-37.146,11.556-2.425.733-3.649,1.781-4.012,4.379-.9,6.443-2.751,12.814-3.047,19.268-.914,20,7.021,36.039,23.346,47.594,6.527,4.621,13.672,8.369,20.5,12.569a2.684,2.684,0,0,0,3.175-.035c5.824-3.539,11.745-6.922,17.517-10.544C9443.283,3955.262,9451.849,3939.533,9452.555,3919.383Z" fill="url(#linear-gradient)"/>
    <path id="Trazado_7913" data-name="Trazado 7913" d="M9452.555,3919.383c-.706,20.15-9.271,35.879-26.456,46.663-5.771,3.622-11.692,7.005-17.517,10.544a2.684,2.684,0,0,1-3.175.035c-6.829-4.2-13.974-7.948-20.5-12.569-16.324-11.555-24.26-27.6-23.346-47.594.3-6.454,2.146-12.825,3.047-19.268.362-2.6,1.587-3.646,4.012-4.379,12.412-3.753,24.76-7.717,37.146-11.556a4.388,4.388,0,0,1,2.452,0q19.3,5.972,38.56,12.081a3.142,3.142,0,0,1,1.963,1.729c1.488,7.664,3.669,15.221,3.814,23.106C9452.562,3918.581,9452.555,3918.982,9452.555,3919.383Zm-6.38,1.827c-.108-1.751-.069-3.123-.3-4.449-.941-5.478-1.974-10.94-2.944-16.413a2.422,2.422,0,0,0-1.966-1.988c-10.946-3.407-21.881-6.854-32.837-10.233a4.407,4.407,0,0,0-2.454.028c-10.856,3.36-21.688,6.8-32.55,10.146a2.935,2.935,0,0,0-2.28,2.592c-.614,3.35-1.295,6.689-2,10.022a46.656,46.656,0,0,0,20.922,49.4c5.224,3.27,10.576,6.332,15.844,9.534a2.382,2.382,0,0,0,2.777-.046c5.23-3.167,10.578-6.149,15.709-9.467C9438.407,3951.082,9445.489,3937.731,9446.175,3921.21Z" fill="#fff"/>
    <path id="Trazado_7914" data-name="Trazado 7914" d="M9446.175,3921.21c-.686,16.521-7.768,29.872-22.072,39.123-5.131,3.318-10.479,6.3-15.709,9.467a2.382,2.382,0,0,1-2.777.046c-5.268-3.2-10.62-6.264-15.844-9.534a46.656,46.656,0,0,1-20.922-49.4c.7-3.333,1.382-6.672,2-10.022a2.935,2.935,0,0,1,2.28-2.592c10.861-3.344,21.693-6.786,32.55-10.146a4.407,4.407,0,0,1,2.454-.028c10.956,3.379,21.891,6.826,32.837,10.233a2.422,2.422,0,0,1,1.966,1.988c.971,5.473,2,10.935,2.944,16.413C9446.105,3918.087,9446.066,3919.459,9446.175,3921.21Zm-75.031-2.261c.591,16.816,6.636,28.888,19.019,37.438,5.143,3.55,10.669,6.548,16.055,9.741a1.863,1.863,0,0,0,1.589-.042c5.131-3.034,10.385-5.9,15.3-9.254,13.475-9.193,20.095-22.088,19.331-38.4-.254-5.408-1.691-10.765-2.679-16.128-.081-.445-.8-.944-1.326-1.109q-15.1-4.785-30.236-9.458a4.4,4.4,0,0,0-2.445.005c-9.613,2.965-19.187,6.057-28.822,8.946-2.027.608-2.986,1.487-3.3,3.628C9372.836,3909.809,9371.784,3915.26,9371.144,3918.949Z" fill="url(#linear-gradient-2)"/>
    <path id="Trazado_7915" data-name="Trazado 7915" d="M9371.144,3918.949c.641-3.689,1.692-9.14,2.489-14.629.311-2.141,1.27-3.02,3.3-3.628,9.636-2.889,19.209-5.981,28.822-8.946a4.4,4.4,0,0,1,2.445-.005q15.139,4.662,30.236,9.458c.522.165,1.245.664,1.326,1.109.987,5.363,2.425,10.72,2.679,16.128.764,16.308-5.856,29.2-19.331,38.4-4.917,3.355-10.171,6.22-15.3,9.254a1.863,1.863,0,0,1-1.589.042c-5.386-3.193-10.912-6.191-16.055-9.741C9377.779,3947.837,9371.734,3935.765,9371.144,3918.949Zm35.923-12.349-.007.151c-1.954,0-3.911-.052-5.865.009-8,.246-15.029,6.024-16.171,13.938-.646,4.478-.416,9.1-.385,13.653a16.612,16.612,0,0,0,14.2,16.69,87.237,87.237,0,0,0,13.8.318,16.543,16.543,0,0,0,16.255-13.982,89.554,89.554,0,0,0,.355-13.954,16.819,16.819,0,0,0-14.1-16.36A70.956,70.956,0,0,0,9407.066,3906.6Z" fill="#fff"/>
    <path id="Trazado_7916" data-name="Trazado 7916" d="M9407.066,3906.6a70.956,70.956,0,0,1,8.088.463,16.819,16.819,0,0,1,14.1,16.36,89.554,89.554,0,0,1-.355,13.954,16.543,16.543,0,0,1-16.255,13.982,87.237,87.237,0,0,1-13.8-.318,16.612,16.612,0,0,1-14.2-16.69c-.031-4.555-.262-9.175.385-13.653,1.142-7.914,8.166-13.692,16.171-13.938,1.954-.061,3.911-.009,5.865-.009Zm-19.21,22.369.165.01c0,1.806-.037,3.613.006,5.419.164,6.833,4.968,12.607,11.739,13.335a69.161,69.161,0,0,0,13.956.081,12.9,12.9,0,0,0,11.961-11.946,68.174,68.174,0,0,0-.021-13.663,12.907,12.907,0,0,0-12.031-11.876,75.354,75.354,0,0,0-13.96.112,12.937,12.937,0,0,0-11.244,10.448A64.649,64.649,0,0,0,9387.856,3928.969Z" fill="url(#linear-gradient-3)"/>
    <path id="Trazado_7917" data-name="Trazado 7917" d="M9387.856,3928.969a64.649,64.649,0,0,1,.571-8.08,12.937,12.937,0,0,1,11.244-10.448,75.354,75.354,0,0,1,13.96-.112,12.907,12.907,0,0,1,12.031,11.876,68.174,68.174,0,0,1,.021,13.663,12.9,12.9,0,0,1-11.961,11.946,69.161,69.161,0,0,1-13.956-.081c-6.771-.728-11.575-6.5-11.739-13.335-.043-1.806-.006-3.613-.006-5.419Zm15.1,2.329c-2.267-2.29-4.356-4.384-6.424-6.5-.843-.863-1.788-1.275-2.748-.352s-.637,1.878.24,2.746c2.494,2.468,4.96,4.967,7.463,7.428,1.1,1.085,1.839,1.084,2.966-.036q7.733-7.69,15.429-15.417c.856-.855,1.215-1.807.239-2.742s-1.906-.469-2.74.369q-4.51,4.53-9.038,9.045C9406.577,3927.613,9404.827,3929.4,9402.956,3931.3Z" fill="#fff"/>
    <path id="Trazado_7918" data-name="Trazado 7918" d="M9402.956,3931.3c1.871-1.9,3.621-3.685,5.387-5.457q4.513-4.529,9.038-9.045c.834-.838,1.752-1.317,2.74-.369s.617,1.887-.239,2.742q-7.714,7.709-15.429,15.417c-1.127,1.12-1.862,1.121-2.966.036-2.5-2.461-4.969-4.96-7.463-7.428-.877-.868-1.19-1.831-.24-2.746s1.905-.511,2.748.352C9398.6,3926.914,9400.689,3929.008,9402.956,3931.3Z" fill="url(#linear-gradient-4)"/>
  </g>
</svg>
