<svg xmlns="http://www.w3.org/2000/svg" width="20.679" height="25" viewBox="0 0 20.679 25">
  <path id="Trazado_4216" data-name="Trazado 4216" d="M666.011,14461.732l-6.546-8.522,6.532-8.525a2.291,2.291,0,0,0-1.819-3.685h0a3.373,3.373,0,0,0-2.69,1.338l-5.141,6.8-5.163-6.873a3.171,3.171,0,0,0-2.533-1.265h0a2.455,2.455,0,0,0-1.95,3.948l6.353,8.3-6.644,8.688a2.527,2.527,0,0,0,2.008,4.062h0a2.789,2.789,0,0,0,2.232-1.116l5.619-7.494,5.617,7.592a2.514,2.514,0,0,0,2.021,1.019h0A2.652,2.652,0,0,0,666.011,14461.732Z" transform="translate(-645.886 -14441)" fill="#ffc72c"/>
</svg>
