<svg xmlns="http://www.w3.org/2000/svg" width="44.31" height="44.327" viewBox="0 0 44.31 44.327">
  <g id="Grupo_2428" data-name="Grupo 2428" transform="translate(-1434.201 -7211.651)">
    <path id="Trazado_12269" data-name="Trazado 12269" d="M1434.2,7229.311c.116-.767.2-1.539.352-2.3a19.744,19.744,0,0,1,3.86-8.544,8.059,8.059,0,0,1,1.948-1.748,3.3,3.3,0,0,1,4.365.549c1.919,1.917,3.806,3.867,5.763,5.744a3.32,3.32,0,0,1,.1,4.981c-.894.98-1.817,1.937-2.652,2.966a9.042,9.042,0,0,0-1.177,1.952,3.741,3.741,0,0,0,.564,3.793c.127.193.268.378.379.579a.859.859,0,0,1-.235,1.121.817.817,0,0,1-1.162-.147c-1.652-2.182-2.144-4.3-.807-6.751.412-.755.937-1.448,1.386-2.132l-8.291-8.293c-.5,1.095-1.088,2.188-1.518,3.338a17.358,17.358,0,0,0,1.292,15.166,30.485,30.485,0,0,0,13.043,12.638c5.894,2.967,11.761,2.668,17.478-.618.06-.035.117-.076.131-.085l-8.247-8.25c-.516.36-1.078.787-1.675,1.158a5.9,5.9,0,0,1-3.3,1,6.68,6.68,0,0,1-3.9-1.579.811.811,0,0,1-.144-1.13.846.846,0,0,1,1.113-.26c.327.181.631.4.95.6a3.64,3.64,0,0,0,4.232-.042c1.146-.789,2.194-1.724,3.271-2.611.422-.348.781-.773,1.21-1.111a3.174,3.174,0,0,1,4.484.266q2.99,2.977,5.968,5.967a3.309,3.309,0,0,1,.709,3.858,5.952,5.952,0,0,1-1.832,2.268,20.014,20.014,0,0,1-9.794,4.144,19.241,19.241,0,0,1-12.363-2.5,33.24,33.24,0,0,1-13.183-13.488,19.393,19.393,0,0,1-2.249-7.661,1.27,1.27,0,0,0-.071-.242ZM1448.2,7228c.44-.473.92-.933,1.333-1.446a1.409,1.409,0,0,0-.034-2.063q-3.06-3.087-6.147-6.148a1.536,1.536,0,0,0-1.8-.3,4.758,4.758,0,0,0-1.806,1.506Zm13.986,13.966,8.459,8.46a4.816,4.816,0,0,0,1.495-1.81,1.582,1.582,0,0,0-.369-1.861q-3-3-6-5.993a1.417,1.417,0,0,0-2.088-.158C1463.14,7241.022,1462.663,7241.525,1462.182,7241.966Z" fill="#fff"/>
    <path id="Trazado_12270" data-name="Trazado 12270" d="M1458.786,7211.651c.782.113,1.567.2,2.345.341a21.12,21.12,0,0,1,17.168,17.778,23.2,23.2,0,0,1,.212,3.017,2.765,2.765,0,0,1-5.53.038,15.619,15.619,0,0,0-15.195-15.62,5.677,5.677,0,0,1-.9-.058,2.772,2.772,0,0,1-.31-5.369c.1-.035.206-.084.309-.127Zm-.84,1.739c-.216,0-.434-.018-.648,0a1.037,1.037,0,0,0,.007,2.066c.2.019.4.011.6.018a16.267,16.267,0,0,1,7.073,1.751,17.083,17.083,0,0,1,9.718,15.322c.034.806.4,1.264,1.048,1.263s1.051-.491,1.038-1.311a19.754,19.754,0,0,0-.695-4.907A19.424,19.424,0,0,0,1457.946,7213.39Z" fill="#fff"/>
    <path id="Trazado_12271" data-name="Trazado 12271" d="M1457.992,7220.244a12.559,12.559,0,0,1,11.378,8.841,10.337,10.337,0,0,1,.518,4,2.755,2.755,0,0,1-5.491-.177,7.193,7.193,0,0,0-1.892-4.88,6.781,6.781,0,0,0-4.6-2.206,7.235,7.235,0,0,1-1.159-.116,2.758,2.758,0,0,1-2.106-3.011,2.8,2.8,0,0,1,2.747-2.454C1457.589,7220.239,1457.79,7220.244,1457.992,7220.244Zm-.076,1.75a4.344,4.344,0,0,0-.653.006,1.031,1.031,0,0,0,.036,2.05c.171.021.345.025.517.034a8.34,8.34,0,0,1,4.8,1.729,8.618,8.618,0,0,1,3.492,6.882,1.045,1.045,0,1,0,2.077-.077,15.227,15.227,0,0,0-.279-2.269A10.784,10.784,0,0,0,1457.916,7221.994Z" fill="#fff"/>
    <path id="Trazado_12272" data-name="Trazado 12272" d="M1450.4,7240.622a.863.863,0,0,1-.838.872.891.891,0,0,1-.883-.882.863.863,0,0,1,.871-.839A.836.836,0,0,1,1450.4,7240.622Z" fill="#fff"/>
  </g>
</svg>
