<svg xmlns="http://www.w3.org/2000/svg" width="111.559" height="136.313" viewBox="0 0 111.559 136.313">
  <g id="Grupo_2026" data-name="Grupo 2026" transform="translate(-9235.609 -2039.687)">
    <path id="Trazado_7860" data-name="Trazado 7860" d="M9290.585,2176c-4.672-2.327-9.459-4.451-13.991-7.024a78.841,78.841,0,0,1-21.367-17.987c-.223-.264-.468-.509-.791-.858-1.5,1.526-2.947,3.025-4.427,4.49-1.838,1.82-3.617,1.826-5.437.025q-3.122-3.089-6.211-6.211c-1.771-1.793-1.773-3.537,0-5.335,2.023-2.053,4.055-4.1,6.124-6.11a1.222,1.222,0,0,0,.324-1.705,81.438,81.438,0,0,1-8.678-29.122c-.329-3.169-.435-6.373-.453-9.563-.055-10.07.079-20.142-.067-30.21-.061-4.158,2.668-6.866,6.8-6.882,3.747-.014,7.49-.684,11.236-1.048.611-.06,1.408-.281,1.8.006a3.255,3.255,0,0,1,1.286,1.913c.154,1.135-.74,1.76-1.8,1.913-2.762.4-5.527.781-8.3,1.081-1.5.162-3.012.156-4.519.2-1.9.06-2.453.582-2.455,2.487-.011,7.631-.083,15.262.02,22.892.083,6.114.084,12.254.666,18.331a72.1,72.1,0,0,0,7.578,25.325c.074.149.176.283.359.575,2.092-2.1,4.138-4.109,6.11-6.189.214-.226.145-.911-.021-1.281a66.751,66.751,0,0,1-5.415-18.288,97.514,97.514,0,0,1-.887-11.391c-.138-7.229-.04-14.462-.04-21.693,0-2.894.626-3.624,3.447-3.977a79.064,79.064,0,0,0,33.747-12.426c1.337-.871,2.626-1.816,3.923-2.745,1.855-1.328,2.68-1.342,4.523.029a75.686,75.686,0,0,0,24.961,12.439c4.125,1.148,8.369,1.9,12.59,2.661,2.871.517,3.525,1.1,3.525,4.071q0,5.457,0,10.914a2.039,2.039,0,0,1-1.646,2.257,1.8,1.8,0,0,1-2.157-1.15,4.169,4.169,0,0,1-.18-1.565c-.015-3.454-.008-6.908-.008-10.34-3.255-.669-6.431-1.225-9.559-1.983a81.492,81.492,0,0,1-28.661-13.218,1.609,1.609,0,0,0-2.272-.021,82.521,82.521,0,0,1-36.6,14.809c-.481.071-.958.176-1.5.277a2.87,2.87,0,0,0-.125.6c.069,8.915-.071,17.839.291,26.742a59.842,59.842,0,0,0,5.551,22c.78,0,1.474.02,2.167-.01a1.4,1.4,0,0,0,.82-.221c1.123-1,2.208-2.039,3.134-2.905-1.271-2.675-2.462-5.042-3.5-7.474a2.859,2.859,0,0,1,.017-2.125,1.9,1.9,0,0,1,3.419.161c1.346,2.537,2.667,5.088,3.984,7.641a3.314,3.314,0,0,1-.714,4.021c-1.178,1.2-2.423,2.33-3.711,3.56l3.4,3.04c.871-.937,1.9-2.095,2.979-3.193,1.814-1.837,3.124-1.945,5.289-.516a29,29,0,1,0-12.78-23.929c0,.222.008.444,0,.666a2,2,0,1,1-3.982.055,31.918,31.918,0,0,1,1.649-11.125,32.986,32.986,0,1,1,35.223,43.062,32.534,32.534,0,0,1-21.492-4.857l-1.143-.706c-1,1.07-2.026,2.162-3.032,3.276a.956.956,0,0,0-.287.683c.494,1.951-.574,3.207-1.869,4.382-.262.236-.491.508-.946.984,2.334,2.42,4.568,4.922,7,7.216a65.694,65.694,0,0,0,16.489,11.33,2.613,2.613,0,0,0,2.588.027c20.168-10.089,32.581-26.156,37.01-48.259.787-3.93.8-8.015,1.163-12.029.036-.4,0-.8.009-1.2.034-1.437.8-2.329,1.993-2.316a2.024,2.024,0,0,1,1.978,2.349c-.125,3.277-.138,6.578-.562,9.822a70.03,70.03,0,0,1-22.733,43.77,72.4,72.4,0,0,1-18.147,11.95,4.157,4.157,0,0,1-3.579.131,57.023,57.023,0,0,1-15.459-9.749c-3.445-2.977-6.556-6.343-9.812-9.537-.215-.211-.416-.436-.536-.563l-6.37,6.361a79.53,79.53,0,0,0,11.346,11.326c6.59,5.444,14.043,9.409,21.838,12.787a1.931,1.931,0,0,0,1.36,0c13.111-5.471,24.507-13.3,33.435-24.486a78.227,78.227,0,0,0,17-40.237,95.321,95.321,0,0,0,.593-10.482c.077-9.892.028-19.785.027-29.679,0-2.766-.281-3.1-3-3.159a69.69,69.69,0,0,1-36.379-10.763c-3.917-2.48-7.5-5.5-11.167-8.357-.909-.708-1.466-.778-2.351.006a74.077,74.077,0,0,1-24.385,14.828c-.126.044-.25.091-.375.136-1.714.619-2.816.314-3.272-.9s.172-2.219,1.856-2.822a65.271,65.271,0,0,0,17.408-9.287c2.194-1.653,4.3-3.426,6.425-5.171,2.469-2.028,4.6-2.081,7.024.018a76.084,76.084,0,0,0,19.157,12.57,69.354,69.354,0,0,0,26.577,5.8,8.255,8.255,0,0,1,3.444.757,5.474,5.474,0,0,1,3.029,5.232c0,3.194.01,6.388,0,9.583-.024,8.65.223,17.312-.142,25.949-.815,19.38-7.8,36.4-20.476,51.066-8.659,10.018-19.328,17.251-31.437,22.457-.97.418-1.915.894-2.872,1.343Zm-48.937-30.249c1.851,1.847,3.789,3.78,5.64,5.624l17.524-17.518-5.636-5.642Z" fill="#524092"/>
    <path id="Trazado_7861" data-name="Trazado 7861" d="M9292.1,2126.378c-13.206.588-24.885-10.235-25.44-23.576-.561-13.436,9.951-25.111,23-25.853a24.749,24.749,0,1,1,2.436,49.429Zm-.7-45.442a20.735,20.735,0,1,0,20.727,20.736A20.739,20.739,0,0,0,9291.405,2080.936Z" fill="#524092"/>
    <path id="Trazado_7862" data-name="Trazado 7862" d="M9290.075,2098.573c1.889-1.9,3.816-3.845,5.758-5.779s3.651-1.927,5.618.017c1.1,1.09,2.215,2.172,3.283,3.3a3.274,3.274,0,0,1,.013,4.958q-5.742,5.815-11.562,11.555a4.475,4.475,0,0,1-6.547-.041q-4.321-4.23-8.554-8.549a3.294,3.294,0,0,1-.022-5.05q1.749-1.819,3.57-3.571a3.308,3.308,0,0,1,5.052.02c1.061,1,2.093,2.038,3.139,3.056C9289.85,2098.512,9289.9,2098.514,9290.075,2098.573Zm8.434-2.858c-2.04,2.053-4.118,4.162-6.215,6.252-1.663,1.658-3.048,1.675-4.678.027-1.143-1.154-2.228-2.364-3.17-3.371l-3.225,2.911c2.723,2.723,5.366,5.4,8.073,8.019a1.322,1.322,0,0,0,1.291-.007c3.673-3.59,7.292-7.234,10.955-10.9Z" fill="#524092"/>
  </g>
</svg>
