<svg xmlns="http://www.w3.org/2000/svg" width="37.998" height="38.091" viewBox="0 0 37.998 38.091">
  <g id="Grupo_2420" data-name="Grupo 2420" transform="translate(-841.081 -7228.116)">
    <path id="Trazado_12260" data-name="Trazado 12260" d="M841.081,7266.207l2.731-10.189a18.862,18.862,0,1,1,7.511,7.445Zm10.751-6.562.645.385a15.311,15.311,0,1,0-5.237-5.19l.4.649-1.524,5.689Z" fill="#fff"/>
    <path id="Trazado_12261" data-name="Trazado 12261" d="M867.264,7249.546a3.157,3.157,0,0,0-2.694-.607c-.7.286-1.147,1.382-1.6,1.941a.671.671,0,0,1-.868.188,12.2,12.2,0,0,1-6.09-5.217.747.747,0,0,1,.094-1.02,4.124,4.124,0,0,0,1.107-1.8,3.936,3.936,0,0,0-.495-2.126,5.048,5.048,0,0,0-1.569-2.365,2.151,2.151,0,0,0-2.336.347,4.742,4.742,0,0,0-1.644,3.756,5.349,5.349,0,0,0,.148,1.192,9.867,9.867,0,0,0,1.144,2.635,20.8,20.8,0,0,0,1.193,1.816,18.442,18.442,0,0,0,5.178,4.807,15.667,15.667,0,0,0,3.229,1.536,7.17,7.17,0,0,0,3.758.593,4.545,4.545,0,0,0,3.408-2.535,2.2,2.2,0,0,0,.159-1.293C869.191,7250.506,867.985,7249.977,867.264,7249.546Z" fill="#fff" fill-rule="evenodd"/>
  </g>
</svg>
