<svg xmlns="http://www.w3.org/2000/svg" width="36.811" height="37.67" viewBox="0 0 36.811 37.67">
  <path id="Trazado_12276" data-name="Trazado 12276" d="M794.673,7244.769l14.9,21.68h-1.726c-2.791,0-5.583-.017-8.373.016a1.428,1.428,0,0,1-1.363-.706c-2.909-4.28-5.85-8.539-8.781-12.8-.226-.329-.456-.654-.753-1.079-.65.745-1.258,1.431-1.856,2.126-3.3,3.83-6.608,7.647-9.869,11.507a2.217,2.217,0,0,1-2.121.954,18.756,18.756,0,0,0-1.969-.012l14.364-16.7-14.315-20.838c.4-.031.658-.068.917-.068,3.07,0,6.141.016,9.211-.019a1.348,1.348,0,0,1,1.274.7q4.105,6.033,8.255,12.038c.226.329.459.653.74,1.052.237-.249.449-.453.641-.675,3.5-4.063,7.013-8.116,10.483-12.205a2.048,2.048,0,0,1,1.962-.9,18.945,18.945,0,0,0,2.078.014Zm-17.439-13.489c.22.354.337.564.474.76q10.867,15.544,21.718,31.1a1.98,1.98,0,0,0,1.967,1.009c1.176-.075,2.36-.018,3.735-.018l-6.007-8.593q-8.232-11.771-16.478-23.532a1.586,1.586,0,0,0-.958-.693C780.264,7231.236,778.836,7231.28,777.234,7231.28Z" transform="translate(-772.76 -7228.812)" fill="#fff"/>
</svg>
